/* XPM */
static char *e5e8d4b7f268488ed407f80397802378qWKpllCDDmIbWxvu[] = {
/* columns rows colors chars-per-pixel */
"25 25 72 1 ",
"  c None",
". c black",
"X c #010101",
"o c #020202",
"O c gray1",
"+ c #040404",
"@ c gray2",
"# c #060606",
"$ c #070707",
"% c gray3",
"& c #090909",
"* c gray4",
"= c #0B0B0B",
"- c #0C0C0C",
"; c gray5",
": c gray6",
"> c #101010",
", c #161616",
"< c gray10",
"1 c gray11",
"2 c #1E1E1E",
"3 c #202020",
"4 c gray13",
"5 c #222222",
"6 c #232323",
"7 c gray14",
"8 c #252525",
"9 c gray15",
"0 c #272727",
"q c #2A2A2A",
"w c gray17",
"e c #2C2C2C",
"r c #2D2D2D",
"t c gray18",
"y c #2F2F2F",
"u c gray19",
"i c #313131",
"p c #323232",
"a c gray20",
"s c #343434",
"d c #353535",
"f c gray21",
"g c gray22",
"h c #393939",
"j c #3A3A3A",
"k c #3C3C3C",
"l c #3E3E3E",
"z c #3F3F3F",
"x c gray25",
"c c #434343",
"v c #444444",
"b c gray27",
"n c #464646",
"m c gray28",
"M c #484848",
"N c #494949",
"B c #4B4B4B",
"V c #4C4C4C",
"C c #4E4E4E",
"Z c gray31",
"A c #515151",
"S c gray32",
"D c gray33",
"F c gray34",
"G c #5A5A5A",
"H c #5B5B5B",
"J c #626262",
"K c gray40",
"L c DimGray",
"P c gray43",
"I c gray44",
"U c gray45",
/* pixels */
"                         ",
" dgJJcrrrrrpggggggcPJcg  ",
" Z3dq=XXXXXXXXXXXXX7d3ml ",
" <XXXXXXXXXXXXXXXXXXXX:q ",
" l+XXXXXXXXXXXXXXXXXXXqZ ",
"mlXXXXXXXXXXXXXXXXXXXX3G ",
" cXXXXXXXXXXXXXXXXXXXX7U ",
" 3XXXXXXXXXXXXXXXXXXXX>D ",
" +XXXXXXXXXXXXXXXXXXXXXp ",
" XXXXXXXXXXXXXXXXXXXXXXp ",
" +XXXXXXXXXXXXXXXXXXXXXp ",
" +XXXXXXXXXXXXXXXXXXXXXp ",
" +XXXXXXXXXXXXXXXXXXXXXp ",
" +XXXXXXXXXXXXXXXXXXXX+p ",
" +XXXXXXXXXXXXXXXXXXXXXp ",
" XXXXXXXXXXXXXXXXXXXXXXp ",
" +XXXXXXXXXXXXXXXXXXXXXd ",
" lXXXXXXXXXXXXXXXXXXXX2I ",
"SlXXXXXXXXXXXXXXXXXXXX3G ",
" NXXXXXXXXXXXXXXXXXXXXpL ",
"m3XXXXXXXXXXXXXXXXXXXX,d ",
"gd=:+XXXXXXXXXXXXXXX==qd ",
" mrmZ2+=++==:=:::=:ZSrcq ",
" plGl37q237       d  mg  ",
"    7                    "
};
