/* XPM */
static char *_a64e923f7e9485bcd35de90ea4bb671nHiIU8MywJiZiMsQ[] = {
/* columns rows colors chars-per-pixel */
"50 50 194 2 ",
"   c #191306",
".  c #211600",
"X  c #241900",
"o  c #271E09",
"O  c #2A1E09",
"+  c #2D240A",
"@  c #35270C",
"#  c #34290E",
"$  c #362818",
"%  c #342B1A",
"&  c #3E3215",
"*  c #3E341C",
"=  c #3B3423",
"-  c #453919",
";  c #463B1E",
":  c #4A3D1C",
">  c #6E3B19",
",  c #412F29",
"<  c #453C24",
"1  c #493F24",
"2  c #443629",
"3  c #453B2A",
"4  c #473334",
"5  c #5A4815",
"6  c #55461C",
"7  c #5C4C1E",
"8  c #6C561D",
"9  c #745E1E",
"0  c #7E671F",
"q  c #4A4124",
"w  c #4B422A",
"e  c #544823",
"r  c #4E4632",
"t  c #4E493C",
"y  c #514931",
"u  c #51433C",
"i  c #554D3A",
"p  c #5D553A",
"a  c #5B543E",
"s  c #614F20",
"d  c #675421",
"f  c #6F5A23",
"g  c #7A6425",
"h  c #4C3344",
"j  c #523A46",
"k  c #5C3D59",
"l  c #584749",
"z  c #5A5342",
"x  c #5B5545",
"c  c #5B4058",
"v  c #615B47",
"b  c #645C4C",
"n  c #61445B",
"m  c #635E52",
"M  c #69614E",
"N  c #726748",
"B  c #666256",
"V  c #6A6453",
"C  c #6A655A",
"Z  c #6F6958",
"A  c #736D5C",
"S  c #634662",
"D  c #6D4C6F",
"F  c #6D4977",
"G  c #744E7C",
"H  c #726E63",
"J  c #797365",
"K  c #797466",
"L  c #7B766A",
"P  c #8A5721",
"I  c #965624",
"U  c #836C26",
"Y  c #816A2A",
"T  c #956826",
"R  c #8C7325",
"E  c #89722B",
"W  c #95762B",
"Q  c #957B2B",
"!  c #8C7431",
"~  c #987D32",
"^  c #C7652E",
"/  c #827D6E",
"(  c #837F75",
")  c #9E832F",
"_  c #9E8331",
"`  c #A3862D",
"'  c #A18533",
"]  c #A78A36",
"[  c #AB8D34",
"{  c #A78C3B",
"}  c #AE9139",
"|  c #B69638",
" . c #BFA23F",
".. c #CB9F19",
"X. c #CDA215",
"o. c #CCA119",
"O. c #D1A614",
"+. c #D5AB14",
"@. c #D8AD18",
"#. c #DCB21B",
"$. c #CAA538",
"%. c #D2AD39",
"&. c #D6B035",
"*. c #DCB53A",
"=. c #E5BB24",
"-. c #E6BC29",
";. c #E6BD2A",
":. c #E7BE33",
">. c #E7BC36",
",. c #E5BC3E",
"<. c #ECC235",
"1. c #EEC43B",
"2. c #F3C73B",
"3. c #90886C",
"4. c #878278",
"5. c #8D897C",
"6. c #928F7F",
"7. c #CCAA44",
"8. c #C9A649",
"9. c #D2AD42",
"0. c #DCB445",
"q. c #DCB748",
"w. c #E8BE48",
"e. c #E6C244",
"r. c #EDC243",
"t. c #EBC34E",
"y. c #F1C742",
"u. c #F3C943",
"i. c #F9CE45",
"p. c #F2C64B",
"a. c #F4CB4B",
"s. c #FED346",
"d. c #FED54B",
"f. c #E7C155",
"g. c #EEC451",
"h. c #F4CB53",
"j. c #F4C957",
"k. c #F4CC5B",
"l. c #FFD953",
"z. c #FAD359",
"x. c #FFE057",
"c. c #F5CE61",
"v. c #F7D465",
"b. c #F8D162",
"n. c #FFEA7A",
"m. c #7B518F",
"M. c #8659A1",
"N. c #9062AB",
"B. c #9765B5",
"V. c #9C69C0",
"C. c #A66FCD",
"Z. c #A972CC",
"A. c #AC74D4",
"S. c #B177D9",
"D. c #B378DC",
"F. c #B97EE6",
"G. c #8D8981",
"H. c #928D82",
"J. c #979287",
"K. c #99968D",
"L. c #9A9790",
"P. c #9D9A93",
"I. c #A19D94",
"U. c #A6A498",
"Y. c #A6A49C",
"T. c #A9A69D",
"R. c #AAA7A1",
"E. c #ADABA3",
"W. c #B0AEA7",
"Q. c #B7B4AB",
"!. c #B4B2AC",
"~. c #B8B6B2",
"^. c #BCBAB5",
"/. c #BFBDB9",
"(. c #D2BF86",
"). c #C0BEBA",
"_. c #FBE59E",
"`. c #C1C0BC",
"'. c #C6C4C1",
"]. c #C9C7C4",
"[. c #CAC9C5",
"{. c #CECDCC",
"}. c #D1D0CF",
"|. c #D6D6D6",
" X c #D8D7D7",
".X c #D8D8D7",
"XX c #D9D9D9",
"oX c #E7E4DA",
"OX c #DFDFE0",
"+X c #DFE0E0",
"@X c #E2E2E3",
"#X c #E6E6E9",
"$X c #EAEAEC",
"%X c #EFF0F4",
/* pixels */
"XXXXXXXXXXXXXXXXXXXXXXXXXXXXXXXXXXXXXXXXXXXXXX|.).XXXXXXXXXXXXXXXXXXXXXXXXXXXXXX XXXXXXXXXXXXXXXXXXX",
"XXXXXXXXXXXXXXXXXXXXXXXXXXXXXXXXXXXXXX|.XXXX`.i ; C }.XXXXXXXXXXXXXXXXXXXXXXXXXXXXXXXXXXXXXXXXXXXXXX",
"XXXXXXXXXXXXXXXXXXXXXXXXXXXXXXXXXXXXXX|.XXOXm Y f.8 x XXXXXXXX|.XXXXXXXXXXXXXXXXXXXXXXXXXXXXXXXXXXXX",
"XXXXXXXXXXXXXXXXXXXXXXXXXXXXXXXXXXXXXX|.+XW.: q.i.g.7 G.@X|.|.XXXXXXXXXXXXXXXXXXXXXXXXXXXXXXXXXXXXXX",
"XXXXXXXXXXXXXXXXXXXXXXXXXXXXXXXXXX|.XX|.+Xm E d.y.p.| 1 [.XXXXXXXXXXXXXXXXXXXXXXXXXXXXXXXXXXXXXXXXXX",
"XXXXXXXXXXXXXXXXXXXXXXXXXXXXXXXXXXXXXX+X~.q 0.i.u.h.w.f L @X|.XXXXXXXXXXXXXXXXXXXXXXXXXXXXXXXXXXXXXX",
"XXXXXXXXXXXXXXXXXXXXXXXXXXXXXXXXXX|.|.+XC Y d.y.u.p.h. .1 ).XXXXXX|.XXXXXXXXXXXXXXXXXXXXXXXXXXXXXXXX",
"XXXXXXXXXXXXXXXXXXXXXXXXXXXXXX|.XX|.OX^.1 9.i.u.u.u.j.p.Y B OXXXXX X XXXXXXXXXXXXXXXXXXXXXXXXXXXXXXX",
"XXXXXXXXXXXXXXXXXXXXXXXXXXXXXXXXXXXX@XH g d.>.=.-.2.h.j.9.1 E.OX|. X XXXXXXXXXXXXXXXXXXXXXXXXXXXXXXX",
"XXXXXXXXXXXXXXXXXXXXXXXXXXXXXXXXXXXX).1 9.i.#.O.O.=.u.k.p.Q x XXXXXXXX XXXXXXXXXXXXXXXXXXXXXXXXXXXXX",
"XXXXXXXXXXXXXXXXXXXXXXXXXXXX|.XX X@XK f h.2.@.....#.2.h.g.w.6 P.OX|.XXXXXXXXXXXXXXXXXXXXXXXXXXXXXXXX",
"XXXXXXXXXXXXXXXXXXXXXXXXXXXXXX|.XX'.w 7.i.2.=.+.+.-.u.u.k.p.] r |.XXXXXXXXXXXXXXXXXXXXXXXXXXXXXXXXXX",
"XX.XXXXXXX|..XXXXX.XXXXXXXXXXX|.#XP.s a.u.u.y.<.<.u.u.y.j.g.w.e 4.@XXXXXXXXXXXXXXXXX XXXXXXXXXXXXXXX",
"XXXXXXXXXXXX@XXX|..XXXXXXXXX|.|.@XW.e q.i.u.u.u.u.u.u.u.a.k.u.| 3 ].XXXXXX XXX X|.|.XXXX|.XXXXXXXXXX",
"XXXX.XXXXX`.`.XX@X+XXXXXXXXXXXXXXXXXx [ s.y.u.u.u.u.u.u.u.z.g.w.f K OX|.XXXXXX+X#XXX|.XXXXXXXXXXXXXX",
"XXXXXXXX|.3 # A R.!.XXXX|.XXXX|. XOXm ' s.u.a.i.u.u.u.i.i.a.k.w.7.< /.+X|.|.XX~.R.5.{.XXXXXXXXXXXXXX",
"XXXXXXXX}.# + @ X A +X|.XXXXXXXX$X/.< 7.s.1.*.2.2.u.i.>.:.2.k.t.w.U m OX X|.@X/ . $ |.|.|.XXXXXXXXXX",
"XXXXXXXX.Xi   X # E.XX|..XXXXX~.5.3 ! d.$.6 3.n.a.u.R p (.c.a.c.w.0.: T.OX|.XX).- O }. XXXXXXXXXXXXX",
"XXXX.XXXXX].4.A * W.#X.X|.+XK.& d } a.s.0 = }.oXz.&.@ L %X_.2.b.w.w.~ z  X X@X].q A  XXXXXXXXXXXXXXX",
"XXXXXXXXXXXX#X#XJ.& I.+X#X|.r } l.s.y.%.s H * ` s.&.N m # [ 2.h.c.,.w.5 K.$XQ.1 J #XXXXXXXXXXXXXXXXX",
"XXXX.XXXXX X|.|.@XP.< i J.4.7 h.y.y.u.,.Q q E *.u.y. .e 5 %.y.i.v.w.,.~ 3 V ; 5. XXX|.XXXXXXXXXXXXXX",
"XXXXXX.X|.XXXXXX.X@X[.6.z # | s.y.i.u.i.s.%.i.d.s.s.s.*.y.s.y.y.h.k.$.7 + i '.oXXXXXXXXX|.XXXXXXXXXX",
"XXXXXXXXXXXXXXXX.X|.XX%XP.e h.y.u.u.u.u.,.R 9 U R R 0 9 | i.u.u.u.b.w.0.d P.#X|.XXXXXX XXXXXXXXXXXXX",
"XXXXXXXXXXXXXX.XXX.X.X Xi ] s.y.u.u.u.s.`   X o + + +   5 i.y.u.u.h.k.w.s P.%XXX|.XX XXXXXXXXXXXXXXX",
"XXXXXXXXXXXXXX.XXX|.@XL.6 t.u.u.u.u.y.i.%.- > ^ ^ ^ I @ Q i.u.u.u.a.c.p.! t K.T.OX|.XXXXXXXXXXXXXXXX",
"XXXXXXXXXXXXXXXXXXXXXXz _ s.u.u.u.u.u.y.2.%.W T P P T | 2.i.u.u.u.y.z.k.w.! - ; ^.OX|.XXXXXXXXXXXXXX",
"XXXXXXXXXXXX.XXX|.+XP.6 g.u.u.u.u.u.u.u.y.i.i.r.e.1.y.s.u.u.u.u.u.u.y.=.1.h.j.g m @X|.|.XXXXXXXXXXXX",
"XXXXXXXXXXXXXX XXXXXz _ d.u.u.u.u.u.u.u.u.u.u.y.<.2.y.y.u.u.u.u.y.a.=.X.+.>.w.0.: R.@X|.XXXXXXXXXXXX",
"XXXXXXXXXXXXXX|.+XY.e t.i.u.u.u.u.a.y.u.a.y.u.2.O.@.u.u.u.u.u.u.u.a.#...X.#.w.y.~ z XXXX|.XXXXXXXXXX",
"XXXXXXXXXXXX X|.#XH Y d.r.y.i.y.a.<.#.#.1.a.u.u.:.<.u.u.u.u.u.u.u.a.=...X.+.>.w.9.q |.XXXXXXXXXXXXXX",
"XXXXXXXXXXXXXX|.+XY.q q.i.y.u.a.y.@.X.X.#.u.u.u.u.i.u.u.u.u.u.u.u.p.-.O...O.:.a.[ i  XXX|.XXXXXXXXXX",
"XXXXXXXXXXXXXXXX.X@XM W s.y.u.u.u.+.o.o.@.p.u.u.u.u.u.u.u.u.u.u.u.u.p.#.O.+.:.j.d ( @X|.XXXXXXXXXXXX",
"XXXXXXXXXXXX|.|.|.#XG.f a.r.y.y.a.-.+.+.>.a.r.u.u.u.r.u.y.y.y.u.y.u.u.a.1.:.k.8.w [.XXXXXXXXXXXXXXXX",
"XXXXXXXXXXXXXXXX|.@X4.Y x.d.d.d.d.l.l.l.l.s.d.d.d.d.d.d.d.s.d.d.d.d.d.d.l.l.n.g A @X|.XXXXXXXXXXXXXX",
"XXXXXXXXXXXXXXXX|.#XL 5 ] ) _ _ _ _ ' ' _ { _ _ _ _ ) _ ] { _ _ _ _ _ _ _ ' g < ~.XXXXXXXXXXXXXXXXXX",
"XXXXXXXXXXXXXXXX.XXX`.K B B B C B B B C z o x C B B B C = % B B B B B B B B H ~.+XXXXX.XXXXXXXXXXXXX",
"XXXXXXXXXXXXXXXXXXXXXX+X@X+X@X@X@X@X@X$XT.# ~.$X+X@X+X#XM i #X@XXX@X+X+X+X#X+X+X|.XXXX|.XXXXXXXXXXXX",
"XXXXXXXXXXXXXX|.XXXXXX|..X.X.X.X X X|.XXY.# W.+X.X.XXXXXM i XXXXXXXX.X.X.X.X|..XXX|.XXXXXXXXXXXXXXXX",
"XXXXXXXXXXXXXXXXXXXXXXXX.XXX.X.X XXXXXOX5.+ !.@X|..X|.+XM 1 ].XXXXXX.X.X.X.XXXXXXXXXXXXXXXXXXXXXXXXX",
"XXXX.XXXXXXXXXXXXXXXXXXXXXXXXX.X X X|.C 2 $ V |..X|.+XE.= 2 < T.@X|..X.X.XXXXXXXXXXXXXXXXXXXXXXXXXXX",
"XXXXXXXXXXXXXXXXXXXXXXXXXXXX.XXXXXXX'.3 B.V.$ I.@X XXXa c F.c L +X|.XXXX|.XXXXXXXXXXXXXXXXXXXXXXXXXX",
"XXXXXXXXXXXXXXXXXXXXXXXXXXXX.XXX|.OX|.w 4 k + r [.@XH.O 2 n $ H.$X|.XXXXXXXXXXXXXXXXXXXXXXXXXXXXXXXX",
"XXXXXXXXXXXXXXXXXXXXXXXXXXXXXX|.oX'.p 4 D j c 4 U.#Xb j j n c 3 G.+XXXXXXXXXXXXXXXXXXXXXXXXXXXXXXXXX",
"XXXXXXXXXXXXXXXXXXXXXXXX|.XX|.OX`.q k C.S.F.m.$ Y.@Xv h A.D.S.M.% 4.XXXX|.XXXXXXXXXXXXXXXXXXXXXXXXXX",
"XXXXXXXXXXXXXXXXXXXXXXXXXXXXXX|.a n S.Z.A.M.2 # !.#XZ + S C.Z.S.B.% U.+X|.XXXXXXXXXXXXXXXXXXXXXXXXXX",
"XXXXXXXXXXXXXXXXXXXXXXXXXX|.+XT.4 Z.S.C.m.u w b }.@XP.; y c B.A.F.G b XXXX|.XXXXXXXXXXXXXXXXXXXXXXXX",
"XXXXXXXXXXXXXXXXXXXXXXXXXXXX+XY.4 N.m.n i y i '.XX|.OX5.< a l F N.F a XXXXXXXXXXXXXXXXXXXXXXXXXXXXXX",
"XXXXXXXXXXXXXXXXXXXXXXXXXXXXXX{.r X = a r b [.OXXXXXXXOXJ.w a y # X J.@X|.|.XXXXXXXXXXXXXXXXXXXXXXXX",
"XXXXXXXXXXXXXXXXXX.XXXXX.XXX|.OX~.A J J J.XXOX|.XXXXXX|.+X^.L L Z 5.|.XXXXXXXXXXXXXXXXXXXXXXXXXXXXXX",
"XXXXXXXXXXXXXXXXXXXXXXXXXXXXXX.X+X+XOX+X+XXX|.XX.XXXXX|.XX+X#XXXOX@XXXXXXX|.XXXXXXXXXXXXXXXXXXXXXXXX"
};
