/* XPM */
static char *_a0ba3d88a1e4b0689f0dd5cf052584ayfSsCT8QHizPCMYa[] = {
/* columns rows colors chars-per-pixel */
"50 50 173 2 ",
"   c #1B1100",
".  c #211600",
"X  c #241900",
"o  c #291F06",
"O  c #2B2106",
"+  c #2E240B",
"@  c #30260D",
"#  c #34290D",
"$  c #3A2E0E",
"%  c #2C2413",
"&  c #362C13",
"*  c #392E13",
"=  c #362E1A",
"-  c #382F18",
";  c #3D3214",
":  c #3C331B",
">  c #3D3522",
",  c #433612",
"<  c #4A3B13",
"1  c #44391E",
"2  c #443B24",
"3  c #453D2B",
"4  c #514217",
"5  c #554519",
"6  c #5D4B1B",
"7  c #614F19",
"8  c #65521D",
"9  c #4C432C",
"0  c #474031",
"q  c #4C4534",
"w  c #544C35",
"e  c #534C3B",
"r  c #584F38",
"t  c #5B533F",
"y  c #655221",
"u  c #695621",
"i  c #756127",
"p  c #7A6529",
"a  c #554F42",
"s  c #565043",
"d  c #5C5543",
"f  c #5D574A",
"g  c #5E584C",
"h  c #605945",
"j  c #645C49",
"k  c #635E53",
"l  c #6A6453",
"z  c #6A6557",
"x  c #6E685A",
"c  c #716955",
"v  c #79715A",
"b  c #767163",
"n  c #7B7669",
"m  c #7E7B72",
"M  c #836C2C",
"N  c #8C7325",
"B  c #8B722D",
"V  c #977C29",
"C  c #997D29",
"Z  c #8B7432",
"A  c #927A35",
"S  c #977D36",
"D  c #827B68",
"F  c #827D72",
"G  c #9E8339",
"H  c #A1842C",
"J  c #A78A3B",
"K  c #AD903B",
"L  c #B19230",
"P  c #B79737",
"I  c #CA9F16",
"U  c #CDA216",
"Y  c #CCA119",
"T  c #D1A613",
"R  c #D5AA13",
"E  c #D8AE13",
"W  c #D8AE19",
"Q  c #DAB016",
"!  c #DEB41B",
"~  c #E1B61E",
"^  c #E1B81F",
"/  c #C9A537",
"(  c #DAAE35",
")  c #D2AC39",
"_  c #D6B03A",
"`  c #DBB53C",
"'  c #DFB83D",
"]  c #E1B720",
"[  c #E3BA24",
"{  c #E5BC2B",
"}  c #E6B93A",
"|  c #E3BA3D",
" . c #ECC235",
".. c #EDC43E",
"X. c #F0C63C",
"o. c #F2C83F",
"O. c #B39543",
"+. c #BA9B45",
"@. c #88806C",
"#. c #8A8475",
"$. c #8A857A",
"%. c #8D887C",
"&. c #C4A445",
"*. c #CCAA47",
"=. c #D0AF4B",
"-. c #D5B24B",
";. c #DAB54A",
":. c #D9B54C",
">. c #DDB950",
",. c #E5BA43",
"<. c #EABE42",
"1. c #E8BE4B",
"2. c #E5BF51",
"3. c #EDC342",
"4. c #EDC34B",
"5. c #F0C642",
"6. c #F3C943",
"7. c #F9CE44",
"8. c #F3C74C",
"9. c #F3CA4C",
"0. c #FDD246",
"q. c #FED44C",
"w. c #FFD84E",
"e. c #E7C254",
"r. c #EDC552",
"t. c #F1C754",
"y. c #F5CC53",
"u. c #F3CB5C",
"i. c #FCD352",
"p. c #FFD951",
"a. c #F7D05C",
"s. c #F8D05F",
"d. c #FFDB5B",
"f. c #F4CC62",
"g. c #FAD266",
"h. c #FAD369",
"j. c #FFDE72",
"k. c #8D8A82",
"l. c #928E83",
"z. c #9B9587",
"x. c #99958B",
"c. c #9E9A92",
"v. c #A29E94",
"b. c #A5A198",
"n. c #AAA79E",
"m. c #AAA7A0",
"M. c #ADABA4",
"N. c #B1AFA8",
"B. c #B5B2AC",
"V. c #B9B6AE",
"C. c #B8B6B1",
"Z. c #BDBBB5",
"A. c #BEBCB8",
"S. c #C1BFBA",
"D. c #C4C2BD",
"F. c #C6C5C2",
"G. c #C8C6C2",
"H. c #CBCAC6",
"J. c #CCCBC9",
"K. c #D1CFCD",
"L. c #D3D1CE",
"P. c #D7D7D6",
"I. c #D8D7D7",
"U. c #D9D8D7",
"Y. c #D9D9D9",
"T. c #E0DFDE",
"R. c #E0E0DE",
"E. c #DFDFE0",
"W. c #DFE0E1",
"Q. c #E2E2E3",
"!. c #E6E7E9",
"~. c #E8E9EB",
"^. c #EEEFF0",
/* pixels */
"Y.Y.Y.Y.Y.Y.Y.Y.Y.Y.Y.Y.Y.Y.Y.Y.Y.Y.Y.P.Y.I.I.E.K.U.Q.I.Y.Y.Y.Y.Y.Y.Y.Y.Y.Y.Y.Y.Y.Y.Y.Y.Y.Y.Y.Y.P.Y.",
"Y.Y.Y.Y.Y.Y.Y.I.Y.Y.Y.Y.Y.Y.Y.Y.Y.Y.Y.Y.I.U.W.k.> q b.W.I.I.Y.I.Y.Y.Y.Y.P.Y.Y.Y.Y.Y.Y.P.Y.Y.Y.Y.Y.Y.",
"Y.Y.Y.Y.Y.Y.Y.Y.Y.Y.Y.Y.Y.Y.Y.Y.Y.Y.P.Y.U.Q.b.# O.G O x.W.P.Y.I.Y.Y.Y.Y.Y.Y.Y.Y.Y.Y.Y.Y.Y.Y.Y.Y.Y.Y.",
"Y.Y.Y.Y.I.Y.Y.Y.Y.Y.P.Y.Y.P.Y.Y.Y.Y.P.Y.Y.Y.q p d.i.G = D.E.P.Y.P.Y.Y.Y.Y.Y.Y.Y.Y.Y.Y.Y.Y.Y.Y.Y.Y.Y.",
"Y.Y.Y.Y.Y.Y.Y.Y.Y.Y.Y.Y.Y.Y.Y.Y.Y.P.Y.P.W.m.& -.7.<.y.u k W.P.I.P.Y.Y.Y.Y.Y.Y.Y.Y.Y.Y.Y.Y.Y.Y.Y.Y.Y.",
"Y.I.Y.Y.Y.Y.I.Y.Y.Y.Y.Y.Y.Y.Y.Y.Y.Y.Y.P.W.f i i...9.5.&.& m.W.P.Y.Y.Y.Y.Y.Y.Y.Y.Y.Y.Y.Y.Y.Y.P.Y.Y.Y.",
"Y.Y.Y.Y.Y.Y.Y.Y.Y.Y.Y.Y.Y.Y.Y.Y.Y.Y.P.W.N.& =.0.6.6.r.8.i q Y.I.Y.Y.Y.Y.Y.Y.Y.Y.Y.Y.Y.Y.Y.Y.Y.Y.Y.Y.",
"Y.Y.Y.I.Y.Y.Y.Y.Y.Y.Y.P.Y.Y.Y.Y.P.Y.P.E.g y i.5.6.o.y.8.:.$ z.!.P.Y.Y.Y.Y.Y.I.Y.Y.Y.P.Y.Y.Y.Y.Y.Y.Y.",
"Y.Y.Y.Y.Y.Y.Y.Y.Y.Y.Y.Y.Y.Y.Y.Y.I.I.E.C.& &.0.5.6.6.6.t.8.A 2 P.Y.I.Y.I.Y.Y.Y.Y.I.Y.Y.Y.I.Y.Y.Y.Y.Y.",
"I.Y.Y.Y.Y.Y.Y.Y.Y.Y.Y.Y.Y.Y.Y.P.I.I.Q.x y i.o. . .6.6.y.4.>., $.Q.I.I.Y.Y.Y.Y.Y.Y.Y.Y.Y.Y.Y.Y.Y.Y.Y.",
"Y.I.Y.Y.Y.Y.Y.Y.Y.Y.Y.Y.Y.Y.Y.Y.I.E.S.& &.7.] U W  .6.9.u.4.G : H.Y.I.I.I.Y.Y.Y.Y.Y.Y.Y.Y.Y.Y.Y.Y.Y.",
"Y.Y.Y.Y.Y.Y.Y.Y.P.Y.Y.Y.Y.Y.P.P.I.Q.x 6 y.5.~ I T  .7.6.g.4.4.5 m Q.I.I.Y.Y.Y.Y.Y.Y.Y.Y.Y.Y.Y.Y.Y.P.",
"Y.Y.Y.Y.Y.Y.Y.Y.Y.Y.Y.Y.Y.Y.Y.P.E.D.= O.0.5. .~ [ 6.6.6.9.u.3.O.& Z.W.P.Y.I.Y.Y.Y.Y.Y.Y.Y.Y.Y.Y.Y.Y.",
"Y.Y.Y.Y.I.Y.Y.Y.P.Y.Y.Y.Y.Y.Y.P.Q.m 5 y.6.6.6.6.6.6.6.6.o.s.1.4.6 k E.U.Y.Y.Y.I.Y.I.Y.I.Y.I.Y.Y.Y.Y.",
"Y.Y.I.I.Y.Y.P.Y.P.I.Y.Y.Y.Y.Y.Y.Y.q J w.5.6.6.6.6.6.6.6.6.9.u.<.*.= N.E.P.Y.I.Y.I.I.I.P.Y.Y.I.Y.Y.Y.",
"I.Y.Y.Y.Y.Y.W.W.W.E.I.Y.P.Y.P.Y.Y.s B w.5.6.6.6.6.6.6.6.6.6.g.1.t.p s E.Y.I.Y.I.E.E.W.W.I.I.Y.Y.P.Y.",
"Y.Y.I.Y.E.U.x.$.C.J.Y.Y.Y.Y.I.I.Q.x.; 4.6.6.6.6.6.6.6.6.6.o.i.f.} =.$ c.Q.I.Y.E.D.S.l.v.Y.T.Y.I.Y.Y.",
"I.I.Y.G.D.x X #.b x W.Y.Y.I.I.I.E.A.: *.0.6.6.6.6.7.6.6.6.6.6.g.,.8.B 3 P.Y.Y.Y.s $.l.X F G.K.Y.P.Y.",
"Y.Y.P.9 @ O @ q 0 d Y.I.I.Y.I.P.W.B.& >.6.6.o.6.6.6.6.6.6.6.3.y.u.} 2., k.Q.Y.J.3 q q @ o @ h Y.Y.Y.",
"Y.Y.I.#.w 1 + .   l.W.P.Y.Y.Y.!.E.g y i.o.6.6.6.6.3.6.6.6.6.6.9.h.,.<.J > J.E.E.D   X @ 2 r x.Y.Y.P.",
"Y.Y.Y.W.R.D O D b.U.Y.U.U.Y.A.x.e ; >.` ) 0.0.) ' 3./ 6.0.| ) 6.s.u.} 1.< n Q.Y.K.v.v o z.R.T.I.Y.Y.",
"I.Y.I.Y.S.: z.~.Q.Y.U.U.W.b.* 4 i -.0...C C V C ..6.L N H N _ 7.9.g.| <.O.= S.E.Y.Q.!.D 2 K.U.I.Y.P.",
"Y.Y.Y.W.b w Y.P.P.I.U.I.Y.0 A i.q.7.3.7.3.P P o.7.6.7.) L _ 7.6.6.s.r.} t.8 z Q.I.P.I.L.1 %.!.I.P.Y.",
"Y.Y.Y.!.x f !.U.P.P.U.!.x.$ e.6.6.5.6.6.6.0.` | ..3..._ 6.0.6.6.5.9.h.,.} *.& N.T.P.Y.T.9 F !.I.Y.Y.",
"Y.Y.P.W.n.+ c.W.W.Q.W.L.0 M q.3.6.6.6.6.6.o.P i 7 7 8 H 3.6.6.6.6.6.g.u.( ) u s Q.W.E.#.% C.E.P.Y.Y.",
"Y.Y.Y.P.E.$.* e l l d 2 ; >.7.6.6.6.6.6.5.o.0.5.' ` 3.7.6.6.6.6.6.6.y.g./ , * + g l 9 : c.W.P.Y.Y.Y.",
"Y.P.Y.P.U.E.A.#.c c @.= Z p...6.6.6.6.6.6.6.6.6.7.7.6.6.6.6.6.6.6.6.6.g.4.( p : c c %.G.W.Y.Y.P.P.Y.",
"Y.Y.Y.Y.U.U.E.!.Q.^.B.; -.6.6.7.6.6.6.6.6.6.6.6.6.6.6.6.6.6.6.6.6.6.o.a.f.8.K 9 R.^.~.Y.U.U.Y.P.Y.Y.",
"Y.Y.Y.I.U.Y.P.P.U.U.e i i.5.6.6.6.6.7.6.6.6.6.6.5. .!  .6.6.6.6.6.6.6.6.h.4.;.; %.D.D.Y.Y.Y.Y.Y.Y.Y.",
"Y.Y.Y.Y.U.Y.P.P.E.M.& =.0.6.6.6.6.6.6.6.6.6.6.6.6.Q U R  .6.6.6.6.7.6.o.a.g.4.J : - 9 K.Y.Y.Y.Y.Y.Y.",
"Y.Y.Y.Y.Y.I.Y.P.E.g i i...6.6.6.6.6.6.6.6.6.6.6.6.! U E X.6.6.6.6.6.6.o.y.r.3.u.:.+., b W.Y.Y.Y.Y.Y.",
"Y.Y.Y.Y.I.I.P.W.B.& =.0.6.6.6.6.6.6.6.6.6.6.6.6.6.o. . .6.6.6.6.6.6.o.9.X.E E  .4.7.O.& A.Y.P.Y.P.Y.",
"Y.Y.Y.Y.Y.Y.P.W.f y y.6.6.6.6.6.6.6.6.6.6.6.6.7.6.6.6.6.6.6.6.6.6.6.6.y.[ U Y E ..;.4.u l Q.I.I.Y.Y.",
"Y.Y.Y.Y.Y.P.E.C.= &.0.6.6.6.6.5.9.9.6.9.9.o.6.6.6.6.6.6.6.6.6.6.6.7.6.9.! U Y Y ! 6.<.*.& M.W.I.Y.Y.",
"Y.Y.Y.Y.Y.P.W.x.< a.o.6.6.7.6.9.6.! E ! ..9.6.6.6.6.6.6.6.6.6.6.6.6.6.9.! T Y Y E ..;.3.5 m ~.P.P.Y.",
"Y.Y.Y.Y.Y.Y.W.B.= P 0.5.6.6.6.9.[ U Y U ! 9.6.6.6.6.6.6.6.6.6.7.6.6.6.9. .U Y Y R  ...-., c.W.P.Y.Y.",
"Y.Y.Y.Y.Y.Y.P.W.c 5 y.o.6.6.6.9.! U U Y Q 5.6.6.9.6.6.7.6.6.6.6.6.6.6.6.9.! T U R  .4.G 0 P.I.I.Y.Y.",
"Y.Y.Y.Y.P.Y.Y.W.C.; -.7.6.6.6.9. .R U U [ y.6.6.6.6.6.6.6.6.6.6.6.6.6.6.9.9. .W ^ 4.r.4 $.!.I.I.P.Y.",
"Y.Y.Y.Y.Y.P.Y.Y.L.: &.7.3.5.5.5.r.{ ! [ 8.6...5.6.5.5.5.3.6.3.6.3.5.5.5...6.9.9.t.j.+.> F.E.I.I.Y.Y.",
"Y.Y.Y.Y.Y.Y.P.W.B.: e.p.w.p.w.w.i.d.d.d.p.w.w.w.w.p.w.p.p.p.p.w.w.w.w.p.p.w.w.w.d.j.5 z W.Y.I.Y.Y.Y.",
"Y.Y.Y.Y.Y.Y.P.W.M.$ p B B B B B B S A B B B B B B B B B B B B Z A A B B B B B B Z 8 & Z.W.Y.I.I.Y.Y.",
"Y.Y.Y.Y.Y.Y.Y.P.Y.%.s s t s e s q   % s a s s s s s s e s e s q   % s s a a a s a z B.W.U.I.I.Y.Y.Y.",
"Y.Y.Y.Y.Y.Y.Y.Y.Y.W.R.R.R.R.W.Y.t 9 D.R.Y.Y.E.R.R.Y.E.R.R.Y.E.Y.z.$ b.!.Y.E.Y.E.E.W.E.P.Y.Y.Y.Y.Y.Y.",
"Y.Y.Y.Y.Y.Y.Y.Y.U.P.P.U.P.P.W.v.; D.E.U.U.P.Y.Y.I.U.Y.Y.U.U.U.Y.!.#.2 L.Y.U.Y.P.P.P.P.Y.Y.Y.Y.Y.Y.Y.",
"P.Y.Y.Y.Y.P.Y.P.Y.Y.P.Y.P.P.W.%.w Q.Y.E.W.Q.P.H.Y.I.P.H.E.W.W.Y.!.V.# F.Y.Y.Y.Y.Y.P.Y.P.Y.Y.Y.Y.Y.Y.",
"Y.Y.Y.Y.Y.Y.Y.Y.Y.Y.Y.Y.U.P.W.C.& #.G.D.M.#.w 9 G.~.l.& x x.V.D.C.r d Y.P.Y.Y.Y.Y.Y.Y.Y.Y.Y.Y.Y.Y.Y.",
"Y.Y.Y.Y.Y.Y.Y.Y.Y.Y.Y.Y.Y.Y.P.E.x.; : : : & O @ B.!.x X + : : : * e G.E.P.Y.Y.Y.Y.Y.Y.Y.Y.Y.Y.Y.P.Y.",
"Y.Y.Y.Y.Y.Y.Y.Y.Y.Y.Y.Y.P.Y.P.P.R.J.M.n.H.#.  @ B.~.b   # A.S.n.C.Y.E.U.Y.P.Y.Y.Y.Y.Y.Y.Y.Y.Y.Y.Y.Y.",
"Y.Y.Y.Y.Y.Y.Y.Y.Y.Y.Y.Y.Y.P.Y.P.P.Y.W.W.W.C.s #.U.E.S.j b Y.E.W.E.U.P.Y.Y.P.Y.Y.Y.Y.Y.Y.Y.Y.Y.Y.Y.Y.",
"Y.Y.Y.Y.P.Y.Y.Y.Y.Y.Y.Y.Y.Y.Y.Y.Y.Y.P.P.Y.E.Y.W.Y.Y.E.Y.E.Y.U.P.P.U.Y.Y.Y.Y.Y.Y.Y.Y.Y.Y.Y.Y.Y.Y.Y.Y."
};
