/* XPM */
static char *d734cccd6597461ad15e9049eb49ace2ZvdvOvBSMBk8dviJ[] = {
/* columns rows colors chars-per-pixel */
"100 40 169 2 ",
"   c #4A5154",
".  c #71695F",
"X  c #5C7770",
"o  c #6C777A",
"O  c #935E0F",
"+  c #B86A00",
"@  c #B9720A",
"#  c #B77919",
"$  c #A97A29",
"%  c #B77E2B",
"&  c #C57500",
"*  c #D27C00",
"=  c #C37C37",
"-  c #924152",
";  c #886A48",
":  c #AC7D46",
">  c #89757A",
",  c #BC8027",
"<  c #AC8139",
"1  c #BAB120",
"2  c #BCAC3C",
"3  c #C3A211",
"4  c #C68321",
"5  c #E8DA08",
"6  c #D1C324",
"7  c #BB8E47",
"8  c #A58E65",
"9  c #BF9F6E",
"0  c #A0AE71",
"q  c #BAA079",
"w  c #C99A53",
"e  c #C5BE46",
"r  c #D4AE6F",
"t  c #C6A77B",
"y  c #A77E8D",
"u  c #6B8588",
"i  c #6C898E",
"p  c #748C8F",
"a  c #7B8889",
"s  c #6E8D91",
"d  c #728E92",
"f  c #7B8D91",
"g  c #759296",
"h  c #7B9194",
"j  c #79969C",
"k  c #6D96EA",
"l  c #7097E9",
"z  c #749CEC",
"x  c #799FEC",
"c  c #7CA2EE",
"v  c #7DA3F1",
"b  c #8C938F",
"n  c #819395",
"m  c #8B9594",
"M  c #849599",
"N  c #849A9D",
"B  c #8A9A9D",
"V  c #BC9681",
"C  c #A38592",
"Z  c #98A789",
"A  c #AFA58F",
"S  c #B8A383",
"D  c #B8A695",
"F  c #8DA2A3",
"G  c #92A3A5",
"H  c #9BA4A6",
"J  c #96ABAA",
"K  c #9BA9AA",
"L  c #A4ACAD",
"P  c #A7ADB0",
"I  c #A4B4B5",
"U  c #AAB3B4",
"Y  c #A9BDBB",
"T  c #B6B6B6",
"R  c #B5BDBF",
"E  c #BCBEBE",
"W  c #D38F9F",
"Q  c #F7859F",
"!  c #C8B191",
"~  c #E695A3",
"^  c #C6BAA6",
"/  c #D0AEB4",
"(  c #B6C0BF",
")  c #CBC6A0",
"_  c #D8C4A6",
"`  c #D7CBB6",
"'  c #E8E5B6",
"]  c #BABFC0",
"[  c #82A5ED",
"{  c #86A9EF",
"}  c #8CABEE",
"|  c #90AEEE",
" . c #94B1EE",
".. c #9BB5EE",
"X. c #9EB8EF",
"o. c #81A7F2",
"O. c #84A9F3",
"+. c #8CADF0",
"@. c #90AFF0",
"#. c #94B2F1",
"$. c #99B6F1",
"%. c #9DB9F2",
"&. c #A2BBEF",
"*. c #A4BDF1",
"=. c #A8BFF1",
"-. c #E0BFC7",
";. c #AFC2C0",
":. c #B9C4C4",
">. c #BACDCB",
",. c #BDD2D0",
"<. c #ABC2F1",
"1. c #B1C6F2",
"2. c #B6C9F3",
"3. c #BBCDF3",
"4. c #BFD0F4",
"5. c #C2C4C5",
"6. c #C4CBCB",
"7. c #CACBCC",
"8. c #D1CECA",
"9. c #DCD5C9",
"0. c #CDCFD1",
"q. c #C9D4D4",
"w. c #D2D4D4",
"e. c #D5D8D8",
"r. c #DCDCDC",
"t. c #E4DBD7",
"y. c #CDE1DE",
"u. c #EDECCB",
"i. c #E7E4DC",
"p. c #DFDFE2",
"a. c #C2D3F5",
"s. c #C4D4F5",
"d. c #C8D7F6",
"f. c #C9D7F6",
"g. c #CCDAF6",
"h. c #D2DEF7",
"j. c #D3DEF8",
"k. c #CFE3E1",
"l. c #DEE1E1",
"z. c #D4E0F7",
"x. c #D6E1F8",
"c. c #DAE4F9",
"v. c #DCE5F9",
"b. c #DDE7F9",
"n. c #DFE8F9",
"m. c #E4E4E4",
"M. c #E7E7E9",
"N. c #ECECEC",
"B. c #F2EFEF",
"V. c #F3F2ED",
"C. c #EAEDF6",
"Z. c #E2EAFA",
"A. c #E4EBFA",
"S. c #E6EDFB",
"D. c #E9EEFB",
"F. c #E9EFFB",
"G. c #EDF2FB",
"H. c #ECF1FC",
"J. c #EEF2FC",
"K. c #F4F4F4",
"L. c #FBF9F5",
"P. c #F2F5FC",
"I. c #F3F6FD",
"U. c #F4F7FD",
"Y. c #F6F8FD",
"T. c #F9FAFE",
"R. c #FBFCFE",
"E. c #FEFDFE",
"W. c white",
/* pixels */
"W.W.W.W.W.W.W.W.W.W.W.W.R.R.R.R.R.Y.U.H.S.c.f.2.<.<.<.*.<.*.<.=.1.s.j.j.g.a.1.<.<.<.<.<.<.<.<.2.s.g.f.a.3.g.b.G.H.H.H.H.c.g.4.3.f.g.s.2.<.=.*.=.<.<.<.<.<.3.s.Z.G.I.Y.R.R.R.W.W.E.E.W.W.W.W.W.W.W.W.W.W.",
"W.W.W.W.W.W.W.W.W.W.W.W.R.W.R.R.Y.U.H.H.b.3.+.v v c v v v v v v v +.1.3.&.[ x v v v v v v v v v $.2.+.v v <.c.A.H.H.G.b.j.$.v v $.1.| x v v v v v v v v v v O.g.F.H.Y.T.R.R.W.R.E.W.W.W.W.W.W.W.W.W.W.W.",
"W.W.W.W.W.W.W.W.W.R.W.R.W.R.R.T.Y.U.H.Z.g.#.v O.O.O.O.O.O.O.O.} O.v } ..v o.O.O.O.O.O.O.o.O.O.O.c } v O.O.%.g.b.A.F.A.b.s.#.v v { } x O.O.O.O.O.O.O.O.O.o.o.O.4.A.H.Y.T.R.R.R.W.E.E.E.W.W.W.W.W.W.W.W.W.",
"W.W.W.W.W.W.W.W.W.W.W.W.R.R.T.T.Y.H.H.b.2.o.O.o.z z v O.O.z z z o.O.x [ v O.v z z v c z c z c O.O.c c v v $.a.c.Z.b.n.c.4.#.v v x x O.O.z z x v v z z v c c O.f.S.H.U.Y.R.R.R.W.W.E.W.W.W.W.W.W.W.W.W.W.",
"W.W.W.W.W.W.W.W.W.E.E.W.R.R.R.T.U.P.F.c.<.c O.v [ [ z o.v l [ x O.O.z x o.O.z [ ..&.&.&.X.} z v v c z v o.#.3.c.b.b.c.j.3.+.v v z c O.v l { |  . ...X.X.&.<.3.z.S.H.I.Y.T.R.W.R.T.W.E.W.W.W.W.W.W.W.W.W.",
"W.W.W.W.W.W.W.W.E.E.W.E.R.R.R.Y.U.H.S.c.<.c O.c | $.c o.o.c  .} o.O.l z v O.c $.2.a.s.a.4.<.c O.O.c l O.o.#.a.z.c.b.x.h.2.+.O.v l x O.v l } ..%...*.&.&.<.1.s.x.S.H.I.Y.Y.W.R.W.W.W.E.W.W.W.W.W.W.W.W.W.",
"W.W.W.W.W.W.W.W.W.W.W.T.R.R.R.Y.U.P.S.j.<.v O.O...&.c o.v c ..} o.O.z l o.O.x *.a.f.g.g.s.1.[ v O.x l o.o.@.3.g.x.x.z.g.1.+.O.v l c O.o.x c [ [ [ O.{ O.} @.$.f.b.G.I.Y.R.R.W.R.R.W.R.W.W.W.W.W.W.W.W.W.",
"W.W.W.W.W.W.W.W.W.E.T.W.R.R.T.Y.U.H.S.c.<.c O.O.....c o.o.[ ..| o.O.z l o.O.z *.a.g.g.g.s.1.[ v O.x l O.o.@.1.s.j.h.j.s.<.+.O.v l c o.o.+.O.O.O.O.O.O.O.o.o.o.a.b.H.I.Y.T.R.R.W.W.R.W.W.W.W.W.W.W.W.W.W.",
"W.W.W.W.W.W.W.W.W.E.E.W.R.E.R.Y.U.H.S.j.<.v O.[ ..&.c o.v [ ..| o.O.z z v O.c *.4.g.g.g.s.1.[ O.O.c l o.O.c ..4.s.j.s.3.+.v O.v z c O.O.o.c [ v v [ v o.v v o.s.n.H.I.Y.T.R.W.R.W.W.R.W.W.W.W.W.W.W.W.W.",
"W.W.W.W.W.W.W.W.W.W.E.W.R.R.R.Y.T.H.S.c.*.v O.O...&.c o.v [ &.| v O.z l O.O.z &.4.s.f.f.s.<.[ v O.[ [ v O.o.c  .2.3.1.#.c O.O.v [ c O.v k x c [ [ [ { { } #.*.f.b.G.I.Y.U.W.R.R.W.W.R.W.W.W.W.W.W.W.W.W.",
"W.W.W.W.W.W.W.W.R.E.E.R.E.R.T.Y.I.H.F.c.<.c O.O.&.&.c O.o.[ &. .[ O.z l v O.c  .1.3.4.4.2.<.v o.v { X.} v O.O.v #.$.[ v O.O.v }  .[ O.v z  .&.&.&.=.=.<.1.2.g.j.S.H.I.Y.T.R.R.R.E.W.W.T.W.W.W.W.W.W.W.W.",
"W.W.W.W.W.W.W.W.W.E.W.E.E.R.R.Y.T.H.F.c.<.v O.O.&.<.o.o.o.[ &. .o.{ x c v O.z x [ { } +.{ c l O.O.+.1.1.} v O.O.v c v O.O.c  .1.<.+.o.o.k x [ [ [ [ [ { }  .*.j.S.H.I.Y.T.R.W.W.E.W.E.E.R.W.R.W.W.W.W.W.",
"W.W.W.W.W.W.W.W.W.E.E.W.E.R.R.T.Y.U.F.b.1.v O.O.&.1.{ o.v +.<...O.O.c c v O.O.v o.o.v o.o.v o.O.v  .a.s.4...c O.O.O.O.v c *.a.s.3.O.v O.o.o.v v o.o.v o.o.v O.s.b.H.I.R.R.R.R.W.W.E.W.W.W.T.W.R.W.W.W.W.",
"W.W.W.W.W.W.W.W.W.W.E.W.R.E.R.R.Y.U.G.A.3.v v O.1.3.{ v v #.2.*.v v c ..[ v v O.o.o.o.v o.o.v v o.1.h.x.h.s.*.c v O.v O.1.s.h.j.g.*.c v o.o.o.O.O.o.o.o.o.v o.s.F.C.w.M.R.R.R.W.E.W.K.6.W.W.R.W.E.W.E.E.",
"W.W.W.W.W.W.W.W.W.E.E.W.R.E.R.R.U.U.I.F.g.*.%.*.s.g.<.$.$.<.f.3.%.%.%.3.2.$.@.#.#.#.#.$.$.$.#.#.2.g.b.b.b.c.g.2.$.#.$.4.h.x.b.b.x.g.<.#.$.#.#.#.#.$.$.#...$.<.h.G.I.0.0.K.I.W.R.E.W.r.h m.W.R.W.E.E.W.E.",
"W.W.W.W.W.W.W.W.W.W.E.E.E.R.R.R.W.U.U.H.S.Z.x.c.b.c.c.j.h.x.c.x.x.g.c.j.j.j.f.s.s.s.s.s.s.s.f.z.c.b.A.S.F.S.b.c.z.z.x.b.b.S.S.S.A.b.j.g.s.a.a.a.a.s.s.s.g.g.c.S.H.G.0.:.0.0.R.W.K.:.M   H W.W.W.E.W.E.W.",
"W.W.W.W.W.W.W.W.W.E.W.E.W.R.R.R.R.R.Y.U.G.G.S.F.G.S.S.S.S.S.A.S.Z.Z.Z.Z.Z.Z.b.b.b.b.b.b.b.Z.Z.A.S.F.G.H.F.F.G.F.Z.A.S.S.F.F.G.F.G.F.S.Z.b.b.c.b.b.c.b.S.S.S.F.G.U.N.6.w.r.N.W.W.q.Z b u u P Y U 7.W.E.E.",
"W.W.W.W.W.W.W.W.W.E.W.E.E.E.E.E.R.R.T.Y.Y.Y.P.P.G.G.G.G.G.G.G.G.H.F.G.G.G.G.G.G.G.F.G.G.G.G.G.G.G.I.I.H.P.P.P.P.I.I.I.I.I.I.I.I.G.G.G.G.F.G.G.G.H.H.H.H.G.P.P.U.U.R.p.e.0.K.r.:.0 S 0 j j n y y 8.W.W.R.",
"W.W.W.W.W.W.W.W.W.W.R.W.E.R.E.R.R.R.R.R.T.Y.Y.Y.U.U.U.P.P.P.U.P.U.I.I.I.G.P.G.P.G.H.U.G.P.P.P.P.I.I.I.U.U.U.U.I.I.U.Y.Y.U.Y.I.U.Y.U.P.P.P.G.U.G.G.I.I.I.U.Y.Y.Y.R.R.W.R n N.5.o N Z X j d C Q -.W.T.W.W.",
"W.W.W.W.W.W.W.W.W.E.E.W.E.E.E.R.R.R.R.R.W.T.Y.Y.R.Y.Y.Y.U.Y.U.T.U.U.U.U.U.U.U.P.U.T.P.U.Y.P.Y.Y.Y.Y.Y.T.T.T.T.T.U.Y.Y.Y.Y.T.Y.T.Y.Y.Y.Y.Y.U.U.U.U.U.U.U.Y.Y.R.R.R.R.W.q.i 6.T.U P   b N s C W N.W.W.W.W.",
"W.W.W.W.W.W.W.W.W.W.W.E.W.E.E.W.E.R.R.R.T.R.R.R.R.R.Y.Y.T.T.T.T.T.R.Y.Y.T.T.T.T.U.U.T.U.Y.R.Y.T.W.T.R.T.T.T.T.T.R.T.T.R.R.T.T.T.R.R.T.T.T.Y.T.Y.T.U.Y.R.R.R.R.R.R.R.W.w.s N R R > - 7.f p m m.W.E.W.E.W.",
"W.W.W.W.W.W.W.W.W.W.E.W.E.W.W.E.E.E.E.E.R.R.W.R.W.R.R.W.W.R.T.R.T.R.R.R.T.T.T.T.W.T.T.W.R.R.R.R.W.R.R.R.W.T.W.T.R.R.R.R.R.R.R.R.R.R.R.R.R.R.R.E.T.W.R.R.T.R.R.R.R.R.W.N.G i s s o b a 0.Y.e.W.W.E.E.E.W.",
"W.W.W.W.W.W.W.W.W.W.W.E.W.E.E.E.E.E.E.E.W.E.R.W.E.R.W.R.R.R.W.R.W.T.W.T.R.W.W.R.R.R.T.W.W.R.R.R.R.R.W.R.W.T.W.T.R.W.R.W.W.R.R.W.E.E.R.E.R.R.W.T.T.T.W.R.R.T.W.R.W.R.W.W.W.6.B N B s g K N.W.W.W.W.E.W.W.",
"W.W.W.W.W.W.W.W.W.W.W.W.W.W.E.W.W.E.E.E.R.T.W.W.E.R.E.R.E.E.R.W.R.W.W.W.R.W.R.R.W.W.T.W.R.E.E.W.R.W.W.W.W.W.W.W.W.W.W.W.R.W.W.R.R.E.E.R.E.E.T.E.W.W.R.W.W.R.R.W.W.W.W.W.W.W.e.;.k.N i i h 5.T.W.E.W.W.W.",
"W.W.W.W.W.W.W.W.W.W.W.W.W.E.W.E.E.W.W.W.E.E.E.W.E.E.E.E.E.E.W.E.W.W.R.W.W.R.W.W.W.T.W.W.W.W.W.E.E.W.E.E.E.T.W.T.T.W.W.W.R.R.R.R.W.W.R.W.W.W.W.W.W.W.W.W.W.W.T.W.R.W.W.W.T.W.0.>.y.F N U g i U W.E.E.W.W.",
"W.W.W.W.W.W.W.W.W.W.W.W.W.W.W.E.W.E.E.E.W.W.E.E.W.W.W.W.W.W.E.W.W.W.W.W.W.W.W.W.W.W.W.E.E.E.E.W.W.E.W.W.E.W.W.W.W.W.W.W.W.W.W.W.W.W.W.W.W.R.E.T.W.W.R.W.W.L.W.R.W.W.W.W.W.W.w.>.y.J G B.B g 6.W.E.E.E.E.",
"W.W.W.W.W.W.W.W.W.W.W.W.W.W.W.W.W.W.E.W.E.E.R.W.E.E.E.E.E.E.W.E.W.R.W.W.W.T.W.W.W.W.W.T.W.E.W.R.E.W.E.W.W.W.W.W.W.W.W.T.W.W.W.W.W.R.W.R.W.R.W.W.W.T.W.W.S 9 t.V t.W.W.W.R.W.l.>.k.Y d K h ( W.W.T.W.W.W.",
"W.W.W.W.W.W.W.W.W.W.W.W.W.W.W.W.W.W.W.W.W.W.W.W.W.W.W.W.W.W.W.W.W.W.W.W.W.W.W.W.W.W.W.W.W.W.W.W.W.W.W.W.W.W.W.W.W.W.W.W.W.W.W.W.W.W.W.W.W.W.R.W.W.W.N.q O # : ~ / R.W.W.W.W.K.( y.6.p R r.7.7.N.W.B.i.N.",
"W.W.W.W.W.W.W.W.W.W.W.W.W.W.W.W.W.W.W.W.W.W.W.W.W.W.W.W.W.W.W.W.W.W.W.W.W.W.W.W.W.W.W.W.W.W.W.W.W.W.W.W.W.W.W.W.W.W.W.W.W.W.W.W.W.W.W.W.W.W.W.W.W.R.) % w * = ~ / T.W.R.W.W.W.w.,.k.F F r.5.] N.6.7.r.m.",
"W.W.W.W.W.W.W.W.W.W.W.W.W.W.W.W.W.W.W.W.W.W.W.W.W.W.W.W.W.W.W.W.W.W.W.W.W.W.W.W.W.W.W.W.W.W.W.W.W.W.W.W.W.W.W.W.W.W.W.W.W.W.W.W.W.W.W.W.W.W.R.T.R.K.A 8 $ & = W 8.W.W.R.W.R.W.m.,.k.,.g p 5.N.L h m.W.W.",
"W.W.W.W.W.W.W.W.W.W.W.W.W.W.W.W.W.W.W.W.W.W.W.W.W.W.W.W.W.W.W.W.W.W.W.W.W.W.W.W.W.W.W.W.W.W.W.W.W.W.W.W.W.W.W.W.W.W.W.W.W.W.W.W.W.W.W.W.W.W.W.W.R.K.D . ; $ ! t.R.W.R.W.W.W.W.M.>.,.y.( g p u p i.W.W.T.",
"W.W.W.W.W.W.W.W.W.W.W.W.W.W.W.W.W.W.W.W.W.W.W.W.W.W.W.W.W.W.W.W.W.W.W.W.W.W.W.W.W.W.W.W.W.W.W.W.W.W.W.W.W.W.W.W.W.W.W.W.W.W.W.W.W.W.W.W.W.W.W.R.u.' ) . : ^ T.i.N.W.R.W.W.W.W.K Y k.y.q.M p n m.W.W.W.W.",
"W.W.W.W.W.W.W.W.W.W.W.W.W.W.W.W.W.W.W.W.W.W.W.W.W.W.W.W.W.W.W.W.W.W.W.W.W.W.W.W.W.W.W.W.W.W.W.W.W.W.W.W.W.W.W.W.W.W.W.W.W.W.W.W.W.W.W.W.W.W.W.V.6 5 1 $ + _ R.^ W.W.R.W.R.V.K s h ;.,.J d g L W.W.W.W.W.",
"W.W.W.W.W.W.W.W.W.W.W.W.W.W.W.W.W.W.W.W.W.W.W.W.W.W.W.W.W.W.W.W.W.W.W.W.W.W.W.W.W.W.W.W.W.W.W.W.W.W.W.W.W.W.W.W.W.W.W.W.W.W.W.W.W.W.W.W.W.T.W.K.2 5 3 % @ w D 9.W.W.W.W.W.m.d i H E K H B j i I W.R.R.R.",
"W.W.W.W.W.W.W.W.W.W.W.W.W.W.W.W.W.W.W.W.W.W.W.W.W.W.W.W.W.W.W.W.W.W.W.W.W.W.W.W.W.W.W.W.W.W.W.W.W.W.W.W.W.W.W.W.W.W.W.W.W.W.W.W.W.W.W.W.W.W.T.W.u.e < r _ & 7 W.W.R.W.W.K.w.7.B :.W.W.W.:.u h e.W.R.R.W.",
"W.W.W.W.W.W.W.W.W.W.W.W.W.W.W.W.W.W.W.W.W.W.W.W.W.W.W.W.W.W.W.W.W.W.W.W.W.W.W.W.W.W.W.W.W.W.W.W.W.W.W.W.W.W.W.W.W.W.W.W.W.W.W.W.W.W.W.W.W.W.E.E.E.E.t.< w 4 4 i.W.W.R.t.T m.W.K.8.N.W.N.P H 6.L.W.W.W.W.",
"W.W.W.W.W.W.W.W.W.W.W.W.W.W.W.W.W.W.W.W.W.W.W.W.W.W.W.W.W.W.W.W.W.W.W.W.W.W.W.W.W.W.W.W.W.W.W.W.W.W.W.W.W.W.W.W.W.W.W.W.W.W.W.W.W.W.W.W.W.W.W.W.L.W.9.+ ! t @ 9.W.R.W.m.T w.r.w.m.W.W.r.r.W.W.8.5.U.T.W.",
"W.W.W.W.W.W.W.W.W.W.W.W.W.W.W.W.W.W.W.W.W.W.W.W.W.W.W.W.W.W.W.W.W.W.W.W.W.W.W.W.W.W.W.W.W.W.W.W.W.W.W.W.W.W.W.W.W.W.W.W.W.W.W.W.W.W.W.W.W.W.R.W.E.W.` , ` _ % ` W.R.W.W.L.m.L.W.W.W.W.W.t.w.m.5.` U.W.R.",
"W.W.W.W.W.W.W.W.W.W.W.W.W.W.W.W.W.W.W.W.W.W.W.W.W.W.W.W.W.W.W.W.W.W.W.W.W.W.W.W.W.W.W.W.W.W.W.W.W.W.W.W.W.W.W.W.W.W.W.W.W.W.W.W.W.W.W.W.W.W.W.W.E.W.E.L.W.R.K.W.W.R.W.W.W.W.T.W.R.W.W.T.W.T.K.K.W.W.W.W.",
"W.W.W.W.W.W.W.W.W.W.W.W.W.W.W.W.W.W.W.W.W.W.W.W.W.W.W.W.W.W.W.W.W.W.W.W.W.W.W.W.W.W.W.W.W.W.W.W.W.W.W.W.W.W.W.W.W.W.W.W.W.W.W.W.W.W.W.W.W.W.W.W.W.E.E.E.W.W.W.W.R.W.W.W.R.W.W.T.W.W.W.W.W.W.W.W.T.W.W.W."
};
