/* XPM */
static char *_7d2c978ebea4a0b83cfd9c1fd77bfe6QBwsv6BnTjzil3wG[] = {
/* columns rows colors chars-per-pixel */
"50 50 166 2 ",
"   c #070402",
".  c #0B0501",
"X  c #0F0802",
"o  c #070708",
"O  c #0A0708",
"+  c #070B0F",
"@  c #0B0C0D",
"#  c #1C0700",
"$  c #140B04",
"%  c #1B0D04",
"&  c #120F0D",
"*  c #1D1107",
"=  c #12100F",
"-  c #1A120C",
";  c #0C0E11",
":  c #100F10",
">  c #0F1012",
",  c #141110",
"<  c #1B1411",
"1  c #1F1813",
"2  c #13141C",
"3  c #1C1A1D",
"4  c #210D00",
"5  c #241204",
"6  c #291506",
"7  c #24150A",
"8  c #291709",
"9  c #27180D",
"0  c #2B190C",
"q  c #331502",
"w  c #321C0E",
"e  c #3B1E0C",
"r  c #211711",
"t  c #231913",
"y  c #2C1C12",
"u  c #221C1D",
"i  c #311E13",
"p  c #3C1F12",
"a  c #2F2015",
"s  c #342115",
"d  c #3B2316",
"f  c #352419",
"g  c #3C2519",
"h  c #3E291A",
"j  c #2B2422",
"k  c #342823",
"l  c #3B2C24",
"z  c #422512",
"x  c #432816",
"c  c #42271A",
"v  c #442A1C",
"b  c #492C1E",
"n  c #502F1F",
"m  c #47301F",
"M  c #4B301F",
"N  c #452E21",
"B  c #4B2E21",
"V  c #443124",
"C  c #4E3322",
"Z  c #42332B",
"A  c #483729",
"S  c #4D3A2C",
"D  c #513524",
"F  c #543926",
"G  c #553628",
"H  c #543B2A",
"J  c #5D3D2D",
"K  c #4F3C30",
"L  c #513D30",
"P  c #5F3E30",
"I  c #603E2F",
"U  c #603F30",
"Y  c #5D412D",
"T  c #4E4039",
"R  c #564234",
"E  c #5D4432",
"W  c #53453C",
"Q  c #59453A",
"!  c #5A4A3C",
"~  c #61442F",
"^  c #634431",
"/  c #654933",
"(  c #6B4D36",
")  c #624B38",
"_  c #6D4F38",
"`  c #724F3D",
"'  c #6F5037",
"]  c #6F5139",
"[  c #72533B",
"{  c #77583F",
"}  c #574B44",
"|  c #5E4D42",
" . c #5E524C",
".. c #635346",
"X. c #62534A",
"o. c #6A5849",
"O. c #7B5641",
"+. c #7C5C42",
"@. c #615550",
"#. c #665B55",
"$. c #6C5D52",
"%. c #675D58",
"&. c #695E59",
"*. c #7F6045",
"=. c #6D625C",
"-. c #766657",
";. c #72655A",
":. c #6F6560",
">. c #746A64",
",. c #7B6F65",
"<. c #7C7167",
"1. c #7E7673",
"2. c #826146",
"3. c #866449",
"4. c #88664A",
"5. c #8B694D",
"6. c #916E51",
"7. c #837568",
"8. c #83786F",
"9. c #847B75",
"0. c #877E77",
"q. c #897F78",
"w. c #87807D",
"e. c #8B827C",
"r. c #8B8381",
"t. c #928A83",
"y. c #928C8A",
"u. c #96908D",
"i. c #9C958F",
"p. c #9D9793",
"a. c #A39E9B",
"s. c #A6A09B",
"d. c #A9A49F",
"f. c #AAA6A5",
"g. c #AFAAA6",
"h. c #AEAAA9",
"j. c #B4B1AE",
"k. c #B9B6B3",
"l. c #BAB8B7",
"z. c #BDBBBA",
"x. c #C0BEBD",
"c. c #C2C0BF",
"v. c #C4C3C2",
"b. c #CCCBCA",
"n. c #CDCCCC",
"m. c #D1D0CE",
"M. c #D5D5D5",
"N. c #D6D5D5",
"B. c #D6D6D6",
"V. c #D8D7D7",
"C. c #D8D8D7",
"Z. c #D6D7D8",
"A. c #D7D8D8",
"S. c #D9D9D9",
"D. c #DADBDB",
"F. c #DDDEDE",
"G. c #DFDFE0",
"H. c #DFE0E0",
"J. c #E1E2E3",
"K. c #E2E3E4",
"L. c #E3E5E6",
"P. c #E4E5E5",
"I. c #E5E6E7",
"U. c #E6E7E8",
"Y. c #EBEDEE",
"T. c #EFF1F2",
/* pixels */
"S.S.S.S.B.S.v.h.l.z.x.l.Q O.O.G U U U n N b.J.G.T.y.p O./ U J G U P U G X.J.G.G.S.G.S.S.S.B.S.A.S.S.",
"S.S.S.S.B.I.1.# 0 0 y 0 h O.^ P U U U G f } @.&.>.} c ` U U U U U U U n } f.j.z.x.v.n.n.B.S.S.S.S.S.",
"S.S.S.B.B.U.9.# w 0 0 8 h ` P P U U U G d 4 4 4 # 5 B ( U U U U U U U n 0 9 0 i i y i i u.I.B.S.S.S.",
"S.S.S.S.B.U.r.4 7 * * % f ^ P ^ U U U P d 7 7 7 9 9 v ^ U U U U U U U D 0 9 6 0 6 0 0 4 y.U.M.B.S.S.",
"S.S.S.S.B.I.e.4 *   .   i U U ~ P J U U p X . .   # B U J J U I I P U D 7 . X X . $ 0 6 a.K.B.S.S.S.",
"S.S.S.S.B.K.u.5 5 . O ; i U G G U U U G p & @ ; @ : B I J I U J U J U B 9 O @ + O X 0 5 f.K.V.V.S.S.",
"B.S.S.B.B.K.a.8 - . @ ; r U v D U U U G i : ; : ; < B J G J U U U I U N r ; : > O $ 6 0 j.G.Z.V.S.S.",
"S.S.B.B.B.F.a.8 4 . O ; r b c B G U U G p 2 ; ; + < B J G J U I J U I b r ; ; ; O X 0 9 k.G.B.V.S.S.",
"S.S.S.I.I.Y.c.0 * . o ; 7 v v c c B C m d = ; > ; < b F b J I J P J J b r ; , ; o $ 0 0 z.F.C.C.S.D.",
"B.S.b.0.e.e.9.s 0 * = > 1 x v h c c h v d > + > + < v v c G U U U ~ J v r ; ; ;   $ 0 0 c.F.C.B.S.V.",
"V.F.k.w z x x C m m v x h h v v b N m v g t 1 < ; < c c c c B n C D C b < @ ; ; o % 8 s b.S.B.N.V.S.",
"V.F.v...V m V m F M F F Y ~ ( ] [ [ [ ] ' / ~ R J H F F C C N c h h g h t < , @   $ 7 f n.G.I.J.S.B.",
"S.V.F.v.S h h M M F / ( [ [ [ [ +.2.2.3.4.4.5.3.4.4.3.3.3.+.+.+.+.[ [ ] ' / E Y Y F A Y -.7.e.i.B.S.",
"C.B.F.x.b C D D C F F F F F F H Y ( ] [ { ] O.+.+.+.+.+.2.3.3.3.3.*.*.*.*.*.+.{ [ ' Y Y D M z Y B.D.",
"C.S.S.m.! s v D D C C M M C D J k Z ] ] ] ] ] ] [ ( ] ( ( ` H E ' ' ' ' ( ' ' ' ' ' Y Y E ~ C S B.S.",
"S.C.S.n.S C C C M D F Y Y ( [ / 2 3 ( [ ] O.] ] [ ] [ ] { E 2 j [ [ ] [ [ ] [ ] ] [ ] ] ~ F H ;.B.M.",
"S.C.S.m.H M C J ~ ( ] ] [ ( _ ( S H ( / ^ ^ / ~ ~ ~ / Y / Y u l / ) ^ ^ ~ ~ ~ Y Y J F D M v m <.S.A.",
"S.C.S.B.| M F F Y H F F D D D D F F D D D C D C C D C C C C C C D C D C C C M m M C C C F F b ..S.D.",
"C.S.C.F.=.e b C M C C C C C C C C C M D D D D D D D C C D C C D C C D C D F D F D D F M b M z $.G.N.",
"S.C.C.J.p.o.;.V d d s f f x v c h x h x v f f f d f v v h v h v h v v c g f g f f g g H ....Q 9.G.N.",
"S.S.S.S.S.F.D.T 5 $ . @ , g c c v c c N p < + : ; < c c v x x v c c b i : ; : ; . 7 % 9.K.B.B.A.A.D.",
"S.C.S.A.V.C.D.} % % . @ : d b c G C c b g < ; : ; < J J J H J J G G b p & ; ; @ . 9 % w.I.B.S.S.N.D.",
"S.S.C.S.S.B.F. .% * . ; , N v B ^ G c c c < + ; + r J U U P P P U I b f ; ; ; @ . 9 5 u.K.B.B.C.S.A.",
"S.S.S.S.A.A.G.X.4 - . @ : B B J U G c B g < ; : ; 1 J U P J P J I I b i : ; : @ . 6 6 a.J.A.C.C.S.A.",
"S.S.S.S.S.B.J.=.4 - . @ @ B I J U J c c h < ; , ; < J U U U J U U J b p ; ; ; @ . 7 0 j.G.C.V.V.S.S.",
"S.S.S.S.B.B.I.=.% 7 . @ @ N U P U J B B c , ; ; ; t J U P J J U ^ J b i ; ; ; O X 6 y x.F.N.V.M.N.S.",
"S.S.S.S.C.M.U.>.# 7 . @ @ v ^ P J J c c c < ; ; + 1 J P U U U U J B v s ; ; ; @ X 6 s m.G.F.I.I.G.N.",
"S.S.S.S.A.B.U.9.4 7 . @ > N ^ P U I N c c - ; , ; 1 U U U G D B v v v y ; ; ; o . 5 s c.b.k.d.e.c.G.",
"S.S.S.C.A.B.U.0.4 7 . @ ; h J G G B N c c < ; ; + < C C c c c c h g x s 1 t a s h C F ! / E ~ F x.G.",
"S.S.V.S.B.B.J.r.% 7 . O ; y c x c c c c d - @ , < y h h N b C D Y E / / ] { { *.2.2.2.{ { [ [ o.M.D.",
"S.S.S.S.H.H.Y.y.5 5 . @ , i h d d h B G Y R Y / ( [ +.*.2.3.3.4.5.6.6.4.3.3.+.{ ' ' ( ~ J J b $.N.N.",
"S.V.C.F.h.9.,.W d h h v b N M F Y / ` O.+.*.3.3.3.4.3.2.3.*.+.O.[ { ] ' ( ' ( Y F F M m C G e 9.U.M.",
"S.V.S.B.S q b M F C D D F Y ( ' [ ] ] [ ] _ _ ] ( ] ( ] ( ( ] ] ] ] ] ] ] ] [ [ [ ] ~ H M g F j.G.A.",
"S.S.S.S.d.;.m C D C F ~ ( [ [ [ [ [ ] / ^ ] ] [ ] [ ] ] [ [ [ [ ] ] [ ] ] ] ] / ~ Y H F D C m g.G.N.",
"S.C.S.S.t.! m C C Y ( ] ( / ^ ~ Y k a Y ] ] ] ] ] [ ] ] { R a R [ ] ] ] / Y F F C C C C D F g i.P.N.",
"S.A.B.J.8.d F C C F C M D D C M H 3 2 ) [ ] [ ] ] ] ] ] o.l + l [ ] ] ] ] ] ] ] ] ] ~ C D F x p.P.N.",
"S.S.B.H.g.A d v C C D D M D Y / [ / Y ] ] ] ] [ [ ] ] ] [ ] E ' [ [ ] ( ( / ~ Y Y F D F m D d s.P.N.",
"S.S.B.I.e.d C M D D M F Y ( [ [ ] [ [ ] [ [ [ ' ] ] ' / / / ~ Y J H F F D C C C b F M M x m R j.G.N.",
"S.S.B.K.e.x F D M D ~ ( [ [ ' [ ] ] ] ] / ~ Y J F C D D C C C C M M C C D D M m v m V A R ! w.C.N.S.",
"S.S.B.I.t.b F F J ( ( ( / / ^ ~ Y F D C C M D b C b m v v m v h x h h a t t 1 * 7 5 q.m.b.B.B.C.S.S.",
"S.S.B.I.e.e b x D D D m m v h h c c c v c i r r r t c c c c c c c c v < + ; +   * 5 p.I.A.D.A.A.S.S.",
"S.B.B.I.a...,.>.d w 9 - < t h x c c c c v r + ; ; < c B B c c n b c c < ; > ; . * 6 s.G.A.A.S.A.S.N.",
"S.S.S.C.B.S.K.B.f 6 $   ; < v v c B G c c t : : ; < n U c c G G c c h < ; ; > . * 0 g.G.A.A.A.S.S.S.",
"S.S.S.C.C.C.Z.n.l 6 $ . O - D b c G U b v r @ @ o < J J B G U G B b v < o @ o . 5 0 j.G.A.S.S.S.S.S.",
"S.S.C.S.S.B.S.B.l 6 % . . % G F c U I c c 9 . . . 7 U J G U I U D c c % . . . . 5 y z.F.C.A.S.S.S.S.",
"S.S.S.S.S.A.S.B.Z 6 7 % % 7 G J G U J c c y 5 7 % y J P U P J U H c p 9 7 7 8 9 0 s v.F.C.C.S.S.S.S.",
"C.S.S.S.S.S.S.Z.T 5 w 0 0 0 G U J I I c B i 6 6 5 y P P U P U U G c g 4 4 4 4 # # y n.D.C.A.S.S.S.S.",
"S.S.S.S.S.Z.S.A.Q 5 0 0 9 y G U I U J b c f l l Z N J U U U P U G N g } %.#.%.:.:.9.C.S.S.S.S.S.S.D.",
"S.S.S.S.S.S.C.S.k.f.h.h.l.s.G U P E J v p  .m.n.G.q.n ^ G J U P c B N v.J.J.J.J.P.P.A.A.S.S.S.S.S.S.",
"S.S.S.S.S.S.S.S.F.J.G.F.J.v.G J J J J B p | V.V.U.e.n U K G G L L w Z n.V.M.M.M.M.M.A.A.V.S.S.S.S.S."
};
