/* XPM */
static char *_5493d6b18a04b87b0303280dae11484pkN5b2bGsPS1hh9y[] = {
/* columns rows colors chars-per-pixel */
"50 50 155 2 ",
"   c #252B22",
".  c #292B2C",
"X  c #382C2D",
"o  c #2C372A",
"O  c #363B37",
"+  c #3C3A34",
"@  c #3A3E3B",
"#  c #473233",
"$  c #4A3A3B",
"%  c #34482E",
"&  c #3D4435",
"*  c #3E433C",
"=  c #434443",
"-  c #434A45",
";  c #454748",
":  c #464949",
">  c #4A4C4B",
",  c #4C524C",
"<  c #545643",
"1  c #59544E",
"2  c #4F5251",
"3  c #535555",
"4  c #545A55",
"5  c #545758",
"6  c #565C5A",
"7  c #5B5D5D",
"8  c #764C4E",
"9  c #605D45",
"0  c #635D57",
"q  c #6B5E57",
"w  c #5C625C",
"e  c #696E4E",
"r  c #6B625A",
"t  c #77665C",
"y  c #78675E",
"u  c #5C5E61",
"i  c #5D6362",
"p  c #636564",
"a  c #666A65",
"s  c #696B66",
"d  c #626669",
"f  c #666B6B",
"g  c #6B6C6C",
"h  c #786A63",
"j  c #6B706D",
"k  c #7D746C",
"l  c #676D70",
"z  c #6A6E71",
"x  c #6D7273",
"c  c #737573",
"v  c #767975",
"b  c #7B7D76",
"n  c #717579",
"m  c #757B7B",
"M  c #7B7C7B",
"N  c #8B5154",
"B  c #87756D",
"V  c #8A7A72",
"C  c #807F7F",
"Z  c #967C71",
"A  c #CB444D",
"S  c #788857",
"D  c #7E817E",
"F  c #85807A",
"G  c #A29E69",
"H  c #A4867D",
"J  c #A7897F",
"K  c #A5AB71",
"L  c #757E80",
"P  c #787E81",
"I  c #7C8284",
"U  c #7F8589",
"Y  c #828483",
"T  c #868A86",
"R  c #888B87",
"E  c #828689",
"W  c #838A8C",
"Q  c #8B8C8B",
"!  c #8E918E",
"~  c #90928F",
"^  c #878E91",
"/  c #888F92",
"(  c #8B9294",
")  c #8E9599",
"_  c #939494",
"`  c #969996",
"'  c #91969A",
"]  c #93999D",
"[  c #9C9C9B",
"{  c #B18183",
"}  c #B68F85",
"|  c #BB8588",
" . c #AD938B",
".. c #B4958C",
"X. c #BA958A",
"o. c #9EA197",
"O. c #9EA09D",
"+. c #959DA1",
"@. c #989FA3",
"#. c #97A0A4",
"$. c #9AA2A6",
"%. c #9DA5AA",
"&. c #A3A3A3",
"*. c #A5A8A3",
"=. c #A8A8A6",
"-. c #A0A7AC",
";. c #A1A9AD",
":. c #ACACAC",
">. c #AFB1AF",
",. c #A5ADB2",
"<. c #B0AFB0",
"1. c #AAB3B5",
"2. c #B3B3B3",
"3. c #B5B8B7",
"4. c #B6B6B8",
"5. c #B9B7B9",
"6. c #B5BAB9",
"7. c #BCBCBB",
"8. c #C19C93",
"9. c #CEA499",
"0. c #E3AFA3",
"q. c #EDB8AC",
"w. c #F3BBAF",
"e. c #BFC0BE",
"r. c #D0CB87",
"t. c #C0C1BF",
"y. c #FBC1B4",
"u. c #FEC6BB",
"i. c #FFCABD",
"p. c #C3C4C3",
"a. c #C7C8C7",
"s. c #C8C8C7",
"d. c #CCCCCC",
"f. c #D0D1CF",
"g. c #CECED0",
"h. c #D5D5D6",
"j. c #D7D8D7",
"k. c #D6D6D8",
"l. c #D7D8DA",
"z. c #D9D9D9",
"x. c #DFDFE0",
"c. c #E0DFE0",
"v. c #E1E1E1",
"b. c #E2E2E2",
"n. c #E3E2E3",
"m. c #E5E5E5",
"M. c #E7E8E7",
"N. c #EAEAEA",
"B. c #EFEEEE",
"V. c #F2F2F2",
"C. c #F4F4F4",
"Z. c #F6F6F6",
"A. c #FBFBFB",
"S. c #FEFEFE",
"D. c white",
/* pixels */
"z.z.z.z.z.z.z.z.z.z.z.z.j.z.j.j.z.j.z.z.z.z.z.z.z.z.z.j.z.z.z.z.z.z.z.z.z.z.z.z.z.z.z.z.z.z.z.z.z.z.",
"z.z.z.z.z.j.z.j.j.z.j.z.z.j.j.c.c.z.j.z.z.z.j.j.j.j.z.z.z.z.z.z.z.z.j.j.j.z.z.z.z.z.j.z.z.z.z.z.z.z.",
"z.z.z.j.j.z.j.j.z.z.z.z.j.z.j.2.&.7.c.c.z.z.j.v.v.z.j.z.z.z.z.h.j.z.v.v.z.z.z.z.z.j.j.j.z.z.z.z.z.z.",
"z.z.z.j.z.j.z.c.v.z.j.k.j.z.d.,   3 :.s.z.z.z.1.2.z.z.z.z.z.j.v.z.a.=.*.t.z.z.z.j.j.z.j.z.z.z.j.z.z.",
"z.z.z.z.j.z.h.<.:.a.z.z.j.j.j.( q k i x D p.a.w o w [ z.z.c.d.O.E i r + Y x.j.j.z.c.j.z.z.z.z.z.z.z.",
"z.z.z.j.z.h.Q Q ` v R h.z.j.v.z.F 8...M x p w - - - , Y s.s.g g x  ...c f.x.j.j.h._ ! ~ h.z.j.z.z.z.",
"z.z.j.j.v.:.` D.D.m.D R m.h.p.j.O.X.u.X.Q ( 4 * i W / m i w I Q 8.i.Z o.k.t.f.M._ Q N.R Y v.j.j.z.h.",
"z.z.j.j.v.7.j _ :.B.B.I v r - c o.J i.} y ( x I $.$.%.%.f f Q 9.y.w.V ( 4 * m O.Y C.V._ p d.z.j.z.z.",
"z.z.z.z.j.*.D [ 3.x.D.a.f I E U 4 t u.B x v @ p %.$.%.m . u r  .q.0.k x m m m w a.p.` s.e.R d.z.z.z.",
"j.z.z.c.2.F B.D.v.C.A.A.&.W %.;.) j H q E ] v < U %.$.: e L M 1 q.H w ^ %.%.%.! N.z.s.j.D._ [ v.h.z.",
"z.z.z.c.>.T m.p.t.C.C.j.3.O.I ' %.%.W s 7 %.o.G w ( m < r.` +.h H v $.%.%.,.( ` m.B.C.<.7.O.g t.z.h.",
"z.z.z.z.f.Y [ t.1.M R ! j.D.6.( ;.U / I W ) b S o w 4 % K m m a I %.$.$.$.U x a.f.:.` T T z.v :.v.h.",
"z.z.z.z.h.Y >.7.v [ 3.M *.t.Y m #.z i ] ;.%.j & @ ` D   e f ( ( M n U #.6 6 v d.A.` ~ s.O.Y F d.z.z.",
"z.z.h.z.j.2.! [ d.m.c.s.Q Q *.R j 6 4 ) / ] W =.&.- g 5.o.n ;.%.] > 2 p Q h.p.! R _ j.v.h.2.d.v.z.z.",
"z.z.z.j.z.c.z.z.z.j.j.z.c.j.b.z.t.Y 2 - f g 4 z.a.= F A.d.2 I ] I O v t.z.z.z.g.t.j.z.j.z.c.z.j.z.z.",
"z.z.z.z.j.j.j.z.z.z.z.z.j.j.j.j.z.z.t.D = Q > 4 3.( 6.1.- w U i 4 [ z.v.z.z.z.z.z.z.j.z.j.j.z.z.z.z.",
"z.z.z.h.z.z.h.z.z.z.h.z.z.h.z.z.z.z.h.R O c ` > X # $ X > 7.M , r a.j.j.z.z.k.z.z.z.z.z.j.z.z.z.z.z.",
"z.z.z.z.z.z.z.z.z.z.z.z.z.z.z.h.l.z.D j p i / T N A A 8 1.[ O T o.s a.z.z.j.z.z.j.z.z.z.z.z.z.z.z.z.",
"z.z.z.z.z.z.z.z.z.z.z.z.z.z.z.z.z.h.6.o.* I $.x Q { | o.m +.f * ` d.h.z.k.z.z.z.z.z.z.z.z.z.z.z.z.z.",
"z.z.z.z.z.z.z.z.z.z.z.z.z.z.z.z.j.z.v.*.c z ,.@.M ( ( Y +.,.u R R h.h.h.z.z.z.z.z.z.z.z.z.z.j.z.z.z.",
"z.z.z.z.z.z.z.z.z.z.z.z.z.z.z.z.z.z.j.v.1.7 -.) ' 5.:._ ) ,.6 &.m.h.z.z.z.h.z.z.z.j.j.z.z.z.z.z.z.z.",
"z.z.z.z.z.z.z.z.z.z.z.z.z.z.z.h.z.j.z.z.d.M %./ ' k.x.=.W ,.5 [ c.z.z.z.z.z.z.z.j.j.z.z.z.z.z.z.z.z.",
"z.z.z.z.z.z.z.z.z.z.z.z.z.z.z.z.j.j.z.z.s.c -.Y 4.g.g.7.P ,.3 +.m.h.h.z.z.z.z.z.z.z.z.z.z.z.j.z.z.z.",
"z.z.z.z.z.h.z.z.z.z.z.z.z.z.z.z.j.j.j.v.&.d ) / k.g.g.g.T %.5 [ v.h.z.z.z.z.z.z.z.z.z.z.z.z.z.z.h.z.",
"z.z.z.z.z.z.z.z.z.z.z.z.z.z.z.z.k.z.k.c.P P E 5.h.d.d.k.:./ u [ c.z.z.z.z.z.z.z.z.z.z.z.z.z.z.z.z.z.",
"z.z.z.z.z.z.z.z.z.z.z.z.z.z.k.z.z.k.z.d.u ) Q g.g.g.g.g.d.E u &.c.z.z.z.z.z.z.z.z.z.z.z.z.z.z.z.z.z.",
"z.z.z.z.z.z.z.z.z.z.z.z.z.z.z.z.z.k.c.&.z / ' k.d.g.g.d.k.' d / c.h.z.z.z.z.h.z.z.z.z.z.z.z.z.h.z.z.",
"z.z.z.h.z.z.z.z.z.z.z.z.z.z.z.z.z.k.c.E C W :.k.d.g.g.d.k.&.L g h.z.h.z.z.z.z.z.z.z.z.z.z.z.z.z.z.z.",
"z.z.z.z.z.z.z.z.z.z.z.z.z.z.z.z.z.h.c._ W E 5.k.d.g.g.g.k.=./ u <.c.z.z.z.z.z.z.z.z.z.z.z.z.z.z.z.z.",
"z.z.z.z.z.z.z.z.z.z.z.k.z.z.z.z.z.z.h.c / E 4.g.d.d.g.d.k._ ) z Q M.h.z.z.z.z.z.z.z.h.z.z.z.z.z.z.z.",
"z.z.z.z.z.z.z.z.z.z.z.z.z.z.z.k.k.z.d.0 ) ' / h.g.g.d.g.h.C +.E z z.z.z.z.z.z.z.z.z.z.z.z.z.z.z.z.z.",
"z.z.z.z.h.z.z.z.z.z.z.z.z.z.z.z.k.c.d.u ' -.R -.k.g.k.k.+.U ,.' 3 s.z.h.z.z.z.z.z.z.z.z.z.z.z.z.z.z.",
"z.z.z.z.z.z.z.z.z.z.z.z.z.z.h.z.k.z.z.c / -.%.z z M g g n -.@.+.p d.z.z.z.z.z.z.z.z.z.z.z.h.z.z.z.z.",
"z.z.z.z.z.z.z.z.z.z.z.z.z.z.z.z.k.c.<.2 / -.@.W z z @ u @.%.%.+.p g.c.j.z.z.z.z.z.z.z.z.z.z.z.z.z.z.",
"z.z.z.z.z.h.z.z.z.z.z.z.z.z.z.h.z.g.p z P -.%.) u p <.p @.@.@.' 3 d.z.k.z.z.z.z.z.z.z.z.z.z.z.z.z.z.",
"z.z.z.z.z.z.z.z.z.z.z.z.z.h.z.z.c.C n +.p %.-.E g d.z.g ) %.,.U z z.j.j.z.z.z.z.z.z.z.z.z.z.z.z.z.z.",
"z.z.z.z.z.z.z.z.z.z.z.z.z.z.z.z.p.7 @.@.u ] ;.U C c.h.p / %.,.z [ c.h.z.z.z.z.h.z.z.z.z.z.z.z.z.z.z.",
"h.z.z.z.z.z.z.z.z.z.z.z.z.h.z.c.M 3 / ' ; / ,.] u h.z.d ( -.%.u p.c.z.z.z.z.z.z.z.z.h.z.z.z.z.z.z.z.",
"z.z.z.z.z.z.z.z.z.z.z.z.h.z.z.g.z p.n 7 7 l ] E 3 2.c.d +.1.U C c.k.z.z.z.z.z.z.z.z.z.z.z.z.z.z.z.z.",
"z.z.z.z.z.z.z.z.z.z.z.z.z.h.c.5.R g.0 s.<.; _ =.M _ &.p E @.u 5.c.h.z.h.z.z.z.z.z.z.z.z.z.z.z.z.z.z.",
"z.z.z.z.z.z.z.z.z.z.z.h.z.z.c._ [ Y 5.N.[ &.V.D.7.M M _ [ 0 M c.h.z.h.z.z.z.z.z.z.z.z.z.z.z.z.z.z.z.",
"z.z.z.z.z.z.z.z.z.z.z.z.z.h.z._ g _ N.&.Q A.Z.D.<._ R 7.D.:.Y c.h.z.z.z.z.z.z.z.z.z.z.z.z.z.z.z.z.z.",
"z.z.z.z.z.z.h.z.z.z.z.z.z.z.c.C ; h.z.p d.D.C.D.C [ Q c.A.B.z p.c.h.z.z.z.z.z.z.z.z.z.z.z.z.z.z.z.h.",
"z.z.z.z.z.z.z.z.z.z.z.z.z.z.c.Y M g.C [ C.C.D.g.C 7.p Z.C.D.<.C c.z.h.z.z.z.z.z.z.z.z.z.z.z.h.z.z.z.",
"z.z.z.z.z.z.z.z.z.z.z.z.z.z.z.g.c.Q &.A.Z.C.D.&.[ k.u N.A.A.D.C :.c.z.z.z.z.z.z.z.z.z.z.z.z.z.z.z.z.",
"z.h.z.z.z.z.z.z.z.z.z.z.z.z.z.z.c.~ [ p.B.D.A.=.[ z.p c.Z.c.m.z.v s.c.h.z.z.z.z.z.z.z.z.z.z.z.z.z.z.",
"z.z.z.z.z.z.z.z.z.z.z.z.j.z.z.z.z.d.Y c c.:.N.h.[ g.g D.B.p.s.[ C s.z.z.z.z.z.z.z.z.z.z.z.z.z.z.z.z.",
"z.z.z.z.z.z.z.z.z.z.z.z.z.z.z.z.z.z.c.&._ p _ _ _ z.g g.h.n R C e.c.z.h.z.z.z.z.h.z.z.z.z.z.z.z.z.z.",
"z.z.z.z.z.z.z.z.h.z.z.z.z.z.h.z.z.z.z.c.z.z.O.O.h.c._ > r C <.c.z.z.z.j.z.z.z.z.z.z.z.z.z.z.z.z.z.z.",
"z.z.z.z.z.z.z.z.z.z.z.z.z.z.z.z.h.z.z.h.z.z.z.c.z.z.z.t.p.c.z.j.z.z.z.z.z.z.z.z.z.z.z.z.j.z.z.z.z.z."
};
