/* XPM */
static char *result[] = {
/* columns rows colors chars-per-pixel */
"50 50 107 2 ",
"   c #262626",
".  c #262828",
"X  c #372829",
"o  c #343637",
"O  c #552327",
"+  c #3F4042",
"@  c #414141",
"#  c #464A4B",
"$  c #4A4C4D",
"%  c #514344",
"&  c #465049",
"*  c #595442",
"=  c #565847",
"-  c #4D4F51",
";  c #4F5253",
":  c #535354",
">  c #5E5757",
",  c #535658",
"<  c #55595B",
"1  c #5B5D5E",
"2  c #735F5C",
"3  c #576447",
"4  c #666A4D",
"5  c #6D6C56",
"6  c #64655E",
"7  c #5A5E60",
"8  c #5E6264",
"9  c #626464",
"0  c #6D6E67",
"q  c #646769",
"w  c #65696B",
"e  c #6B6C6C",
"r  c #6B6F71",
"t  c #6D7274",
"y  c #6F7479",
"u  c #737474",
"i  c #727679",
"p  c #767A7B",
"a  c #7C7D7D",
"s  c #87736F",
"d  c #8E7671",
"f  c #8F7C78",
"g  c #7B807A",
"h  c #888462",
"j  c #979974",
"k  c #C3BD7E",
"l  c #777D80",
"z  c #797E82",
"x  c #B37E82",
"c  c #7D8285",
"v  c #7E8489",
"b  c #838484",
"n  c #818689",
"m  c #84898C",
"M  c #8B8B8C",
"N  c #959684",
"B  c #90908F",
"V  c #868D91",
"C  c #898F92",
"Z  c #8C9295",
"A  c #8E9599",
"S  c #939494",
"D  c #92979A",
"F  c #93999D",
"G  c #9B9B9B",
"H  c #BF988E",
"J  c #AB9594",
"K  c #959DA2",
"L  c #989FA5",
"P  c #9AA1A6",
"I  c #9EA5AA",
"U  c #9FA8AC",
"Y  c #A3A3A3",
"T  c #A4A7AA",
"R  c #A1A9AD",
"E  c #ABABAB",
"W  c #A5ADB2",
"Q  c #ADAFB0",
"!  c #ABB1B4",
"~  c #B4B4B4",
"^  c #B8B7B7",
"/  c #B7B7B8",
"(  c #BCBCBC",
")  c #CAA29A",
"_  c #C0BFBF",
"`  c #E4AEA2",
"'  c #F5BDB0",
"]  c #D9D08A",
"[  c #FFCABE",
"{  c #BEBFC0",
"}  c #C4C4C4",
"|  c #C8C7C7",
" . c #C6C6C8",
".. c #CCCCCC",
"X. c #D1D0CF",
"o. c #CECED0",
"O. c #CFD0D1",
"+. c #D5D6D6",
"@. c #D8D7D7",
"#. c #D6D6D8",
"$. c #D7D8D9",
"%. c #D9D9D9",
"&. c #E2E2E2",
"*. c #E8E7E7",
"=. c #ECECEC",
"-. c #F4F4F4",
";. c #FCFCFC",
/* pixels */
"%.%.%.%.%.%.%.%.%.%.%.%.%.%.%.%.%.$.%.%.%.%.%.@.%.%.%.%.%.%.%.%.%.%.%.%.%.%.%.%.%.%.%.%.%.%.%.%.$.%.",
"%.%.%.%.%.%.%.%.%.%.%.%.%.%.%.%.%.%.%.%.%.%.%.%.%.%.$.%.%.%.%.@.%.%.%.%.%.%.%.%.%.%.$.%.%.%.%.%.%.%.",
"%.%.%.%.@.%.%.%.%.%.%.%.%.%.%.%.%.%.%.%.%.%.%.%.%.%.%.%.%.%.%.%.%.%.%.%.%.%.%.%.%.%.%.%.%.%.%.%.%.%.",
"%.%.%.%.%.%.%.%.%.%.%.@.@.%.@.$.%.@.%.%.%.%.%.%.%.%.%.%.%.%.%.%.%.%.@.%.%.%.@.%.%.%.%.%.%.%.@.%.%.%.",
"%.%.%.@.%.%.%.%.%.%.%.@.%.@.%.%.$.%.@.%.%.%.%.%.%.@.@.@.@.%.@.$.%.%.%.%.%.%.%.%.%.%.$.%.%.%.%.%.%.%.",
"%.%.%.%.%.%.%.%.%.%.%.%.%.%.+.X.%.$.%.%.%.$.%.@.$.@.@.+.@.%.%.@.%.%.%.%.%.%.%.%.%.%.%.%.%.%.%.%.%.%.",
"%.%.%.%.%.%.%.%.%.%.%.@.@.&.a T &.+.$.%.@.%.%.+.%.&.&.&.&.$.$.%.%.%.%.%.%.%.%.%.%.%.%.%.%.%.%.%.%.%.",
"%.%.%.%.%.%.$.%.%.%.%.%.%.X.: S *.$.%.+.%.+.%.&.+.Q M p S %.%.@.%.@.%.@.%.@.@.@.%.@.%.%.%.%.%.%.%.%.",
"%.%.%.%.%.%.%.%.%.%.@.@.&.Y t c ..#.&.%.%.%.@.S 0 q > : E %.#.#.$.%.$.@.@.@.@.@.%.@.@.%.%.%.%.%.%.%.",
"%.%.%.%.%.%.%.%.$.%.$.@.&.m m K + O 9 m X.} p w j ) f o.*.%.&.*.@.@.%.&.&.&.&.%.$.%.$.%.%.%.%.%.%.%.",
"$.@.%.@.@.@.%.@.%.$.@.+.&.M v c < + , r a r b J ' ) G *.| _ E b a u t M G G P ..%.%.%.%.%.%.@.%.%.@.",
"@.%.$.@.%.@.$.@.$.$.&.%.%.S t t r F I R m V S ` [ H > n 9 r , r *.G q A c C : r %.@.@.%.%.%.%.%.%.%.",
"%.@.%.&.@.&.%.@.%.&.~ ^ *.| t i v U U v V L d 2 H s 8 m L C E ;.;.=.C F U ! t 1 %.%.%.%.%.%.%.$.%.%.",
"%.%...G S Y @.&.+.q @ 8 G S . t W U P + 8 P V < e V n n S E -.;.-.;.S Z U ! p g %.%.%.%.%.%.%.%.%.%.",
"@.%.M ~ -.B M } u , m P c , * 6 U P q 0 F I m u L m ( &.=.;.;.-.;.-.a A P c q | %.@.$.%.%.%.%.%.%.%.",
"@.&.G ..=.-.M 7 Z ! W U W P j 5 v g k N A W p V c +.-.S b #.;.;.-.B o ; 1 u _ &.@.%.%.%.%.%.%.%.%.%.",
"%.+.G 9 : S =.S A P c b D m & 4 8 3 ] 0 P P 8 Z Z S i 7 ~ -.&.-.X.1 E | ..&.%.%.%.$.%.%.%.@.%.%.%.%.",
"| b ( %.%._ -.-.a $ S q + 9 # = 8 3 h y D c m t R v i Y ;.*.e E -.b X.&.%.+.@.%.$.%.%.%.%.%.%.%.%.%.",
"E 9 -.&.&.;.;.| $.P ~ b v A g . 6 ..F < . ( R 8 v G X.Y =.M r Y -.t ..%.@.$.%.$.+.%.%.%.%.%.%.%.%.%.",
"%.b a | G g Y _ ;.*.G p ; $ Q N ..$.m . % O.e v v Z D g m b 1 e G G %.@.@.@.%.%.%.%.%.%.%.%.%.%.%.%.",
"&.} u M Y ^ r _ } a ~ +.( Y n u M g   O J n 8 ( Q m m U P R D < S &.@.@.%.@.@.%.%.%.%.%.%.%.%.%.%.%.",
"@.%.@.@.&.&.~ b M _ %.@.%.&.%.+.Y b X x 9 - v { #...G n P I I R w M &.@.%.%.$.@.%.%.%.%.%.%.%.%.%.%.",
"%.%.%.%.@.@.&.&.&.&.@.@.@.+.+.&.Y h I D B e x O...o.+.Q m A I P I e m &.%.@.%.@.%.%.%.%.%.%.%.%.%.%.",
"%.@.%.@.@.@.+.+.+.@.%.%.%.+.%.%.} M v T &.o.v Z +.o...@.| Z Z I P R t M &.%.@.@.%.+.%.%.%.%.%.%.%.%.",
"%.%.@.%.@.%.%.@.@.%.%.@.%.%.%.@.%.@.X.&.$.$.&.C b +.o...o.o.D Z U P R i M &.+.@.$.$.@.@.%.%.%.%.%.%.",
"%.%.%.%.%.%.%.%.%.%.%.%.%.%.%.%.%.$.$.@.$.$.$.&.a T #...o.o...Z D I P U 1 P =.&.%.$.+.@.%.@.@.%.%.%.",
"%.%.%.%.%.%.%.%.%.@.%.%.%.%.@.@.%.@.@.%.@.$.$.&./ a #.o.o.o.+. .M P P U Z 1 S E | &.&.+.@.%.@.%.%.%.",
"%.%.%.%.%.%.%.%.%.%.%.%.%.%.%.%.%.%.%.%.%.$.%.%.+.b  .o...o...+.! C U P R w , t q t ~ &.%.%.%.%.@.%.",
"%.%.%.%.%.%.%.%.%.%.%.%.%.%.%.$.%.%.%.%.%.$.$.$.%.t C %...o.o.o.| Z P P I A c ! I m w B %.%.@.%.$.$.",
"%.%.%.%.%.%.%.%.%.%.%.%.%.%.%.%.%.%.%.%.$.$.%.%.%.u r E $.o.....X.G F P P I y D I I U u m %.%.%.%.@.",
"%.@.%.%.%.%.%.%.%.%.%.%.%.%.%.%.%.%.%.%.$.$.#.$.#.x D i Y #.O.O.@.D K I P U m p R P P R g c %.@.%.@.",
"%.%.%.$.%.%.%.%.%.%.%.@.%.%.%.%.%.%.%.%.$.$.$.#.O.t K I l n W { T Z U P P P I , q P U P W q M &.@.%.",
"%.%.%.%.%.%.%.%.%.%.%.%.%.%.%.%.%.%.%.%.%.%.%.@.%.t C U T A v n p t V R P P R i t e D I I m - | %.@.",
"%.%.%.%.%.%.%.%.%.@.%.%.%.%.$.%.%.%.%.%.%.%.@.@.&.Y t ! R R U R F p M t R P I Z u E e P V P B u *.@.",
"%.%.%.%.%.%.%.%.%.%.%.%.%.%.%.%.%.%.%.%.%.%.%.$.%.$.g < t Z F F p | @.1 n U P R 1 / / e Z +.*.6 ..%.",
"%.%.%.%.$.%.%.%.%.%.%.%.%.%.%.%.%.%.%.%.@.%.@.%.%.%.O.S S M z p %.;.@.a u V U U m u *.E M | ;.b G &.",
"%.%.%.@.%.%.%.%.%.$.%.%.%.%.@.%.%.%.%.@.%.%.@.%.%.$.%.&.&.&.E S ;.;.%.b / e I P U 9 ~ *.( M E Y m &.",
"$.%.%.%.%.%.%.%.%.%.%.%.%.%.%.%.%.%.%.%.%.%.%.@.%.%.@.@.+.&.M / ;.;.%.b *.b c R R a u %.%.@.Q a 0 @.",
"%.%.%.%.%.%.%.%.%.%.%.%.%.%.%.%.%.%.%.%.%.%.%.%.$.%.%.%.%.@.g *.;.-.&.M %./ 9 P m S a ( %.@.*.} : _ ",
"%.%.%.%.%.%.%.%.%.%.%.%.%.%.%.%.%.%.$.%.%.%.%.%.%.%.@.@.%.G E %.&.%.=.b @.%.c b S *.^ G *.@.@.%.Y ( ",
"%.%.%.%.%.%.%.%.%.%.%.%.%.%.%.%.%.%.%.%.%.%.%.%.%.%.%.@.%.n { } ;.E M M &.%.M | ;.;.&.a @.%.%.%.&.$.",
"%.%.%.%.@.%.%.%.%.%.%.%.%.%.%.%.%.%.%.%.%.%.%.@.%.%.@.$.%. .v h T p G @.%.%.S %.;.-.;.b | %.%.%.@.$.",
"$.%.%.%.%.%.%.%.%.%.%.%.%.%.%.%.@.%.%.%.%.%.%.%.%.%.%.%.%.&.X._ T X.*.@.%.X.S -.;.-.;.Y Y &.$.%.@.$.",
"%.%.%.%.%.%.%.%.%.@.%.%.%.@.%.%.%.%.%.%.%.%.%.$.%.%.$.$.$.#.%.&.&.%.#.%.@.g | ;.-.;.;.=.M | %.%.$.%.",
"%.%.%.%.%.%.%.%.%.%.%.%.%.%.%.%.%.%.%.%.%.%.%.%.%.%.$.@.@.%.$.@.@.@.@.&./ b -.| ;.&.} ;.Y / &.@.%.%.",
"@.%.%.%.%.%.%.%.%.%.%.%.%.%.$.%.%.%.%.%.%.%.%.%.%.%.%.%.$.@.%.@.@.@.@.@.O.b S Y ;.Y e Y M X.%.$.%.%.",
"%.%.%.%.%.%.%.%.%.%.%.%.%.%.%.%.%.%.%.%.$.%.%.%.%.%.%.%.%.%.%.%.%.%.@.@.%.X.B : e b ../ X.%.%.%.%.%.",
"%.%.%.%.@.%.%.%.%.$.%.%.%.%.%.%.%.%.%.@.%.%.%.%.%.%.%.%.%.%.%.%.%.%.@.%.@.%.*.E a | &.&.%.$.%.@.%.%.",
"%.%.%.@.%.%.%.%.%.%.%.%.%.%.@.%.%.%.%.%.%.%.%.%.%.@.%.%.%.%.%.%.%.%.@.@.%.%.@.&.*.%.%.$.@.%.@.$.%.%.",
"%.%.%.%.%.%.%.%.%.%.%.%.%.$.%.%.%.%.%.%.%.%.%.%.%.%.%.%.%.%.%.%.%.%.%.%.%.@.@.@.@.@.%.%.%.%.%.%.%.%."
};
