/* XPM */
static char *ebdd3093206b4500d6b154415a0dcd0bQCSwy7Qu9e8g3SVU[] = {
/* columns rows colors chars-per-pixel */
"50 50 136 2 ",
"   c #262626",
".  c #262828",
"X  c #372829",
"o  c #343637",
"O  c #552327",
"+  c #3F4042",
"@  c #414141",
"#  c #464A4B",
"$  c #4A4C4D",
"%  c #514344",
"&  c #465049",
"*  c #595442",
"=  c #565847",
"-  c #4D4F51",
";  c #4F5253",
":  c #535354",
">  c #5E5757",
",  c #535658",
"<  c #55595B",
"1  c #5B5D5E",
"2  c #735F5C",
"3  c #576447",
"4  c #666A4D",
"5  c #6D6C56",
"6  c #64655E",
"7  c #5A5E60",
"8  c #5E6264",
"9  c #626464",
"0  c #6D6E67",
"q  c #646769",
"w  c #65696B",
"e  c #6B6C6C",
"r  c #6B6F71",
"t  c #6D7274",
"y  c #6F7479",
"u  c #737474",
"i  c #727679",
"p  c #767A7B",
"a  c #7C7D7D",
"s  c #87736F",
"d  c #8E7671",
"f  c #8F7C78",
"g  c #7B807A",
"h  c #888462",
"j  c #979974",
"k  c #C3BD7E",
"l  c #777D80",
"z  c #797E82",
"x  c #B37E82",
"c  c #7D8285",
"v  c #7E8489",
"b  c #838484",
"n  c #8F8483",
"m  c #818689",
"M  c #84898C",
"N  c #8B8B8C",
"B  c #959684",
"V  c #90908F",
"C  c #868D91",
"Z  c #898F92",
"A  c #8C9295",
"S  c #8E9599",
"D  c #939494",
"F  c #92979A",
"G  c #93999D",
"H  c #9B9B9B",
"J  c #BF988E",
"K  c #AB9594",
"L  c #959DA2",
"P  c #989FA5",
"I  c #9AA1A6",
"U  c #9EA5AA",
"Y  c #9FA8AC",
"T  c #A3A3A3",
"R  c #A4A7AA",
"E  c #A1A9AD",
"W  c #ABABAB",
"Q  c #A5ADB2",
"!  c #ADAFB0",
"~  c #ABB1B4",
"^  c #B4B4B4",
"/  c #B8B7B7",
"(  c #B7B7B8",
")  c #BCBCBC",
"_  c #C1978E",
"`  c #CAA29A",
"'  c #D6A49A",
"]  c #C0BFBF",
"[  c #E4AEA2",
"{  c #F5BDB0",
"}  c #D9D08A",
"|  c #FFCABE",
" . c #BEBFC0",
".. c #C4C4C4",
"X. c #C8C7C7",
"o. c #C6C6C8",
"O. c #CCCCCC",
"+. c #D1D0CF",
"@. c #CECED0",
"#. c #CFD0D1",
"$. c #D5D5D5",
"%. c #D6D5D4",
"&. c #D7D7D7",
"*. c #D8D7D7",
"=. c #D6D6D8",
"-. c #D7D8D9",
";. c #D8D8D8",
":. c #D8D8D9",
">. c #D8D9D9",
",. c #D9D9D9",
"<. c #DADADA",
"1. c gray86",
"2. c gainsboro",
"3. c #DDDDDD",
"4. c gray87",
"5. c #DFDFDE",
"6. c gray88",
"7. c #E0E1E1",
"8. c #E2E1E1",
"9. c #E2E2E2",
"0. c #E4E4E4",
"q. c gray90",
"w. c #E8E7E7",
"e. c gray92",
"r. c #ECECEC",
"t. c #EEEEED",
"y. c #F1F1F1",
"u. c gray95",
"i. c #F4F4F4",
"p. c gray96",
"a. c #F7F6F6",
"s. c #F9F8F9",
"d. c gray98",
"f. c #FBFBFB",
"g. c #FDFDFD",
"h. c #FEFDFD",
/* pixels */
",.,.,.,.,.,.,.,.,.,.,.,.,.,.,.,.,.,.,.,.,.,.,.,.,.,.,.,.,.,.,.,.,.,.,.,.,.,.,.,.,.,.,.,.,.,.,.,.,.,.",
",.,.,.,.,.,.,.,.,.,.,.,.,.,.,.,.,.,.,.,.,.,.,.,.,.,.,.,.,.,.,.,.,.,.,.,.,.,.,.,.,.,.,.,.,.,.,.,.,.,.",
",.,.,.,.,.,.,.,.,.,.,.,.,.,.,.,.,.,.,.,.,.,.,.,.,.,.,.,.,.,.,.,.,.,.,.;.,.,.,.,.,.,.,.,.,.,.,.,.,.,.",
",.,.,.,.,.,.,.,.,.,.,.,.,.,.,.,.,.,.,.,.,.,.,.&.,.,.,.,.,.,.,.,.;.,.&.&.,.;.;.,.,.,.,.,.,.,.,.,.,.,.",
",.,.,.,.,.,.,.,.,.,.,.,.,.,.,.,.,.,.,.&.,.,.&.,.,.,.&.,.,.,.,.&.,.,.,.&.,.,.,.,.,.,.,.,.,.,.,.,.,.,.",
",.,.,.,.,.,.,.,.,.,.,.,.,.,.,.,.,.,.&.,.,.&.&.*.&.&.,.,.,.,.,.,.,.,.&.%.,.&.,.,.,.,.,.,.,.,.,.,.,.,.",
",.,.,.,.,.,.,.,.,.,.,.,.,.,.,.,.,.,.,.,.&.6.q.6.6.,.*.,.,.,.&.,.*.6.R a 6.&.,.&.,.,.,.,.,.,.,.,.,.,.",
",.,.,.,.,.,.,.,.,.,.&.,.,.,.,.,.&.,.&.,.,.D a M W &.6.,.&.&.,.&.;.0.D : &.,.*.,.,.,.,.,.,.,.,.,.,.,.",
",.,.,.,.,.,.,.&.,.,.,.&.,.&.&.,.;.;.%.%.2.W : > q e D &.2.,.2.2.@.o.b t W 2.*.,.;.;.;.;.,.,.,.,.,.,.",
",.,.,.,.,.,.,.,.,.&.,.6.6.6.,.2.;.;.0.6.2.w.O.f ` n w p ..+.N q + - P M M 2.*.,.;.;.2.2.,.,.,.,.,.,.",
",.,.,.,.,.,.,.,.,.2.O.T H T Z r u h b W ] X.e.H ' { K b r p e , # ; v v N 2.;.;.;.;.;.;.;.*.;.,.;.;.",
",.,.,.,.,.,.,.&.,.2.e ; C m A q L e.u , r w b < _ | [ D M M R E A w t r D 2.2.6.;.;.;.;.*.,.*.,.,.;.",
",.,.,.,.,.,.,.,.,.,.1 t Q E L N e.h.f.R A L M 8 s J 2 d L C M U E Z i t ..0./ / 6.;.$.;.6.,.2.6.;.,.",
",.,.,.,.,.,.,.&.,.-.a p Q R Z A f.p.f.p.W A M m C e < C I q # S U E y . D H 9 + 0 *.6.;.R D H X.,.;.",
",.,.,.,.,.,.,.,.*.,.O.q c I S a y.h.p.d.h.t.1.) M I y M Y G 0 9 P Y 9 * < b P N < u ..V V y.^ N 2.*.",
",.,.,.,.,.,.,.,.,.&.2...u 1 : o V d.d.h.,.b D y.&.c A p E S B k a z 5 j P Q E Q Q Z 7 M d.r.X.H 6.,.",
",.,.,.,.,.,.,.;.;.;.,.2.2.O.X.R 8 O.y.6.y.^ 1 u G A A 8 I I 0 } 3 6 4 & M F v c P A F t.F , 9 F ,.,.",
",.,.,.,.,.,.,.,.;.;.;.;.,.2.6.-.x e.Q w 0.h.T u v E t M c F y h 4 7 = # 9 + 0 D $ a y.y. .2.2.] b X.",
",.,.,.,.,.,.,.,.,.;.;.,.,.;.,.O.r y.Y t V e.T +.H v 1 W ) . , D O.7   f S v b ^ T =...f.d.2.0.p.9 W ",
",.,.,.,.,.,.,.,.,.,.;.;.;.;.,.2.H H w 1 m M c G A c c e &.% . N ,.O.A W $ ; p H q.h...T h H X.a h 1.",
",.,.,.,.,.,.,.,.,.,.,.;.,.,.,.,.0.V < F Y I U v M ! ) 9 v K O   a M u b T ) ;.^ a ..) u ^ T N u o.6.",
",.,.,.,.,.,.,.,.,.,.;.;.,.,.,.2.N w Y U U I v H @.-.( b $ 9 x X b T &.*.6.2.;.2.) N b ^ q.6.&.,.-.-.",
",.,.,.,.,.,.,.,.,.,.;.,.,.,.2.N e U I U F m ^ $.@.O.&.b e V D T b T 2.*.;.=.;.;.2.q.0.2.;.*.;.,.-.-.",
",.,.,.,.,.,.,.,.;.;.,.;.,.2.N y E U U A A o.&.O.@.&.D N +.0.R g N ..2.,.*.,.,.,.,.&.&.&.,.;.;.;.-.-.",
",.,.,.,.,.;.;.;.,.;.&.&.2.N i Q P U A F @.@.O.@.$.b N 6.2.=.2.&.=.2.,.,.,.,.;.;.,.,.=.,.,.-.,.,.-.1.",
",.,.,.;.;.,.;.;.,.2.2.t.T 1 U I U L Z @.@.O.@.-.R l 7.,.=.,.&.,.;.;.,.;.,.,.,.,.,.,.,.,.,.,.,.,.2.-.",
",.,.;.;.,.,.;.2.2.o.W D 1 S U I P Z ..@.@.@.O.-.f ( 7.-.,.*.=.,.,.,.;.=.,.,.,.,.,.,.,.,.,.,.,.,.-.,.",
",.;.;.,.,.,.6.^ u q t , q Q I U Z ! &.O.@.@.#.o.l &.-.-.,.,.,.,.,.,.,.,.,.,.,.,.,.,.,.,.,.,.,.,.-.,.",
";.;.;.;.,.2.V w M U Q c A U P P Z o.#.@.O.O.,.Z u 2.,.&.&.,.,.,.,.,.,.,.,.,.,.,.,.,.,.,.,.,.,.,.,.,.",
";.;.;.2.2.b u U U U F i U I U L H @.@.O.O.-.W t u &.,.,.,.,.,.,.,.,.,.,.,.,.,.,.,.,.,.,.,.,.,.,.,.,.",
";.;.;.2.m p Q I I Q p M E I U L H $.#.&.-.T p G a -.,.&.,.,.,.,.,.,.,.,.,.,.,.,.,.,.,.,.,.,.2.,.,.,.",
";.;.6.M w Q I U P q < U I I P Y A R  .R v a Y G i &.,.,.,.,.,.,.,.,.,.,.,.,.,.,.,.,.,.,.,.,.=.,.=.2.",
";.2.O.$ M Y U F t 0 i E I I E C t p m v A U U Z y ,.-.;.,.,.,.,.,.,.,.,.,.,.,.,.,.,.,.,.,.,.,.,.,.,.",
"*.6.u D T M I w W u A U I U u M p G E E E E ~ y T 5.;.;.,.,.,.,.,.,.,.,.,.,.,.,.,.,.,.,.,.,.,.,.,.,.",
",.+.9 0.+.D e / ^ 7 E I U M 1 ,.O.p G G S t 1 a &.1.;.;.,.,.,.,.,.,.,.,.,.,.,.,.,.,.,.,.,.,.,.,.,.,.",
"6.K b h.O.M W q.u M E E M u a =.h.,.u a N D D O.,.;.,.;.,.,.,.,.,.,.,.,.,.,.,.,.,.,.,.,.,.,.,.,.,.,.",
"6.C T W N ) q.^ 9 U P Y w / b 2.g.g.D W 7.7.q.2.;.,.;.;.,.,.,.,.,.,.,.,.,.,.,.,.,.,.,.,.,.,.,.,.,.,.",
",.e a W ,.5.2.u z E Q z b q.h 2.g.h.) N 7.=.=.-.,.;.;.,.,.,.,.,.,.,.,.,.,.,.,.,.,.,.,.,.,.,.,.,.,.,.",
" .: ..0.-.2.) g F M P 9 ( 2.C q.p.d.q.g =.-.-.-.,.;.,.,.,.,.,.,.,.,.,.,.,.,.,.,.,.,.,.,.,.,.,.,.,.,.",
") T 5.&.&.6.H / w.D b z 2.=.m y.,.6.2.! L 2.-.-.,.,.,.,.,.,.,.,.,.,.,.,.,.,.,.,.,.,.,.,.,.,.,.,.,.,.",
"2.2.*.,.;.&.b 6.h.d.O.M ,.2.N D W d... .x =.-.-.,.,.,.,.,.,.,.,.,.,.,.,.,.,.,.,.,.,.,.,.,.,.,.,.,.,.",
",.*.,.,.2.X.b d.d.h.2.V 2.,.&.H p R h m  .=.-.-.,.,.,.,.,.,.,.,.,.,.,.,.,.,.,.,.,.,.,.,.,.,.,.,.,.,.",
",.*.,.*.6.T T g.p.d.p.V O.1.&.0.O.W ) &.6.-.-.-.,.,.,.,.,.,.,.,.,.,.,.,.,.,.,.,.,.,.,.,.,.,.,.,.,.,.",
",.,.,.2.X.M e.g.d.p.h.o.f &.;.&.2.6.2.,.=.-.-.-.,.,.,.,.,.,.,.,.,.,.,.,.,.,.,.,.,.,.,.,.,.,.,.,.,.,.",
",.,.,.2.) T f...0.h.X.p.c ( 6.&.&.&.,.,.,.&.,.,.,.,.,.,.,.,.,.,.,.,.,.,.,.,.,.,.,.,.,.,.,.,.,.,.,.,.",
",.,.,.,.&.N T e T h.T H m O.,.;.,.&.&.,.,.,.,.,.,.,.,.,.,.,.,.,.,.,.,.,.,.,.,.,.,.,.,.,.,.,.,.,.,.,.",
",.,.,.,.2.O./ O.b 0 : N O.,.,.,.,.,.,.,.,.,.,.,.,.,.,.,.,.,.,.,.,.,.,.,.,.,.,.,.,.,.,.,.,.,.,.,.,.,.",
",.,.,.,.,.2.2.6.o.a W q.2.;.,.;.,.,.,.,.,.,.,.,.,.,.,.,.,.,.,.,.,.,.,.,.,.,.,.,.,.,.,.,.,.,.,.,.,.,.",
",.,.;.;.,.;.;.*.2.e.2.;.&.,.,.&.,.,.,.,.,.,.,.,.,.,.,.,.,.,.,.,.,.,.,.,.,.,.,.,.,.,.,.,.,.,.,.,.,.,.",
",.,.,.,.,.;.;.,.*.&.,.,.,.*.&.,.,.,.,.,.,.,.,.,.,.,.,.,.,.,.,.,.,.,.,.,.,.,.,.,.,.,.,.,.,.,.,.,.,.,."
};
