/* XPM */
static char *result[] = {
/* columns rows colors chars-per-pixel */
"50 50 68 1 ",
"  c #2F2F30",
". c #353637",
"X c #3A3B3B",
"o c #434546",
"O c #474A4B",
"+ c #494B4C",
"@ c #4D4F50",
"# c #4E5153",
"$ c #525455",
"% c #555758",
"& c #56585A",
"* c #5C5C5D",
"= c #5D5F60",
"- c #5E6162",
"; c #626465",
": c #646769",
"> c #65696B",
", c #6A6C6C",
"< c #6B6F71",
"1 c #6D7174",
"2 c #747475",
"3 c #717679",
"4 c #75797B",
"5 c #7B7C7C",
"6 c #777D81",
"7 c #797E81",
"8 c #7D8386",
"9 c #7F8589",
"0 c #848484",
"q c #818689",
"w c #848A8D",
"e c #8B8B8B",
"r c #878D91",
"t c #888F92",
"y c #8B9195",
"u c #8E9599",
"i c #949494",
"p c #90969B",
"a c #929A9E",
"s c #9B9B9B",
"d c #969DA1",
"f c #989FA3",
"g c #9AA2A6",
"h c #9DA5AA",
"j c #9FA8AC",
"k c #A4A4A4",
"l c #A8A7A7",
"z c #A8A8A7",
"x c #A0A7AC",
"c c #A1A9AE",
"v c #ACACAC",
"b c #A4ACB1",
"n c #B3B3B3",
"m c #BCBCBC",
"M c #C0BFBF",
"N c #BFC0BF",
"B c #C4C3C3",
"V c #C8C7C7",
"C c #C8C8C7",
"Z c #CBCBCB",
"A c #D0CFCF",
"S c #D6D6D6",
"D c #D9D9D9",
"F c #E0DFDF",
"G c #E2E2E2",
"H c #E9E9E9",
"J c #F4F4F4",
"K c #FCFCFC",
/* pixels */
"DDDDDDDDDDDDDDDDDDDDDDDDDDDDDDDDDDDDDDDDDDDDDDDDDD",
"DDDDDDDDDDDDDDDDDDSDDDDDDDDDDDDDDDDDDDDDDDDDDSDDDD",
"DDDDDDDDDDDDDDDDDDDDDDDDDDDDDDDDDDDDDDDDDDDDDDDDDD",
"DDDDDDDDDDDDDDDDDDDDDDDDDDDDDDSDDDDDDDDDDDSDDDDDDD",
"DDDDDDDDDDDDDDDDDDDDDDDDDDDDDDDDDDDDDDDDDDDDDDDDDD",
"DDDDDDDDDDDDDDDDDDDDDDDDDDDDDDDDDDDDDDDDDDDDDDDDDD",
"DDDDDDDDDDDDDSDDSDSDDDDDSDDDSDDDDSDDSDDDDDDDDDDDDD",
"DDDDSDDSSDDDDDDDDFDDDDDSSDSDDDDSDDDFDDSDDDDDDDDDDD",
"DDDSDDDDDDDDDDDAMMmSFDDDSDDDFDSDDDZmBDDDDDDDSDDSDD",
"DDDDDDFDFFDSDDFz@;+eBDDDFSn5aSFDnw: *DDDDDDDDDDDDD",
"DDDDDDl22nFDDDDZ2ga8;eAFk*X.X*z0:9w,MDDDSDFZDDDDDD",
"DDDSGs5Bv4eADFGD,ujcj14i->4$22&qjbteFGFDFZi4eSDDDS",
"DDDSGkeGJKiiDi;50ygghb91ghhy21gcghq0Z0eBNemJekGSDD",
"DDDSGn*smHM>,%#;o8cggghxhggjgghggc852oo;;VJCe5ZDDS",
"DDSGk4JKG45uahcb1#acggggggggghgghg+O8jguyweDJmiGSD",
"DDSGkZSMB>cjhgggct>9dhgghggggggaa,>ajggzcu5Zmk0DDD",
"DDSGs2lGJ5gjcbxggcg1$9hjggggghc3-wchggxjhhqBJKkZDS",
"DDDFm,JHg->1:2whcggjw1>rhhghhg33axggxg7taa5mse0ADD",
"DDDSDs450vBNie>&3gcgjcu,7ahfd18hhgjc825=::;eezADDD",
"DDDDDDkVHFFDHGDm0@8cggjg:yj9-rjggca:4ZGSSASFHGDSDD",
"DDSDDDFDDSDDSSDFGm21jgggtgjr4jggcw*iFDSDDDDDSSDDDD",
"DDDDDSDDDDDSDDSDSFF5-jgghghddggj3=MGDDDDDDSDDDDDDD",
"DDDDDDDDDDDDDDSDDSDF71cggggghhj30DDSDDDDDDDDDDDDDD",
"DDDDDDDDDDDDDDDDSDSFS;9hggggfjq0FDDSSSDDDSDDDDDDDD",
"DDDDDDDDDDDDDDDDDDDDF2-cgghghu&mFDHGHDDDDSDDDDDDDD",
"DDDDDDDDDDDDDDDDDDSDD48chggjhg>fGmieemDDSDDSDDDDDD",
"DDDDDDDSDDDDDDDDSDDDm>gdw78wacp42:svvisDGDDDDDDDDD",
"DDDDDDDDDDDDDDDSSDSGe<baudduydw,;nKJAn,*mDDSDDDDDD",
"DDDDDDDDDDDDDDDDDSDD1yhhhdyr849awee2eee5vFDDDDDSDD",
"DDDDDDDDDDDDDDSDSGS2,hhd849qtfhc9%iCFGGGFDDDDDDDDD",
"DDDDDDDDDDDDDDDSGn2>qhgdughjhgxu,&vGSDSSDDSDDDDDDD",
"DDDDDDDDDDDDSDSFm$qhdhghgggghcw1fp$zFSDSDDSDDDDDDD",
"DDSDDDDDDDDDDDDS1qcgggghhhjhd81ahcy;VFDDDDDDDDDDDD",
"DDDDDDDDDDDSDSGe>cggxxhtqyw719hchgc60DDSDDDDDDDDDD",
"DDDDDDDDDDSDDSF,8jghwwgarqqygchwwhhdOvFDDDDDDSDDDD",
"DDDDDDDDDDDDDDH2;xgg;,;;<131,,@>ugc5XvFDDDDDDDDDDD",
"DDDDDDDSDDDDDA5,4axa,CVmi705sv=ajhf+vDDDDSDDDDDDDD",
"DDDDDDDDDDSDD0sFSqhc1vGDFGFFHz>xhh742BDDDDDDDDDDDD",
"DDDDDDDDDDDSFelJKn4p72SDDSSDS25qu7kJm5vFSDDDDDDDDS",
"DDDDDDDDDDDDDAeeDJMak5nFDDDDkiHv1kKKHeeGSDDDDDDDDD",
"DDDDDDDDDDDDSDFn2MKJKS0DDDDD4AKJHKDi0sVDDSDDDDDDDD",
"DDDDDDDDDDDSDDDDCeiBZikDSSDD0BKHAi5nSDDDDDDDDDDDDD",
"DDSDDDDDDDDDSDDDDFne0sDDDDSFn-5*1zZFDDSDDSDDDDDDDD",
"DDDDDDDDDDDDDDDDDDFDDDDDDSDDSmvnZGDDDDDDDDDDDDDDDD",
"DDDDDDDDDDDDDDDDDSDDDDSDDDDDDFFFDSDDSDDDDDDDDDDDDD",
"DDDDDDDDDDSDDDDDDDSDSDDDDSSDDSSSDDDDDDDDDDDSDDDDDD",
"DDDDDDDDDDDDDDDDDDDDDDDDDDDDDDDDDDDDDDDDDDDDDDDDDD",
"DDDDDDDDDDDDDDDDDDDDDDDDDDDDDDDDDDDDDDDDDDDDDDDDDD",
"DDDDDDDDDDDDDDDDDDDDDDDDDDDDDSDDDDDDDDSDDDDDDDDDDD",
"DDDDDDDSDDDDDDDDDDDDDDDDDDDDDDDDDDDDDDDDDDDDDDDDDD"
};
