/* XPM */
static char *_0f378555adf4ae8a3f7186c9d985672Lue4Ex9rGGSFESIo[] = {
/* columns rows colors chars-per-pixel */
"50 50 205 2 ",
"   c #38250C",
".  c #741E13",
"X  c #663015",
"o  c #6E3326",
"O  c #5A4221",
"+  c #514230",
"@  c #7A5A29",
"#  c #765B30",
"$  c #56514F",
"%  c #695C4F",
"&  c #7B6748",
"*  c #79736E",
"=  c #6E7078",
"-  c #CC2E39",
";  c #875B17",
":  c #8D621D",
">  c #9A6919",
",  c #A66A09",
"<  c #BA790D",
"1  c #A5711D",
"2  c #AB7419",
"3  c #B47816",
"4  c #B97A13",
"5  c #B07719",
"6  c #B67C1C",
"7  c #BA7D1C",
"8  c #825D26",
"9  c #86622B",
"0  c #966922",
"q  c #9C702B",
"w  c #876736",
"e  c #8D6D3A",
"r  c #9B7338",
"t  c #A27223",
"y  c #AA7622",
"u  c #AE7925",
"i  c #A3742D",
"p  c #A7782C",
"a  c #AB7B2C",
"s  c #B47D22",
"d  c #B27F2B",
"f  c #A27536",
"g  c #AC7E34",
"h  c #A37B3A",
"j  c #B07F31",
"k  c #934847",
"l  c #896843",
"z  c #997644",
"x  c #876B53",
"c  c #86745B",
"v  c #977E57",
"b  c #A67D46",
"n  c #90786A",
"m  c #AB7D68",
"M  c #D3484A",
"N  c #C96A63",
"B  c #BD811D",
"V  c #BC8222",
"C  c #B4822F",
"Z  c #BB842C",
"A  c #AC813C",
"S  c #B38232",
"D  c #B1853D",
"F  c #C48215",
"G  c #CA8615",
"H  c #CD8815",
"J  c #C3841B",
"K  c #C9871B",
"L  c #CD8A1B",
"P  c #D88E13",
"I  c #D28E1C",
"U  c #D6911E",
"Y  c #DA931D",
"T  c #E2981D",
"R  c #C38622",
"E  c #C78922",
"W  c #CE8D22",
"Q  c #C28829",
"!  c #D18E22",
"~  c #D49123",
"^  c #D99423",
"/  c #D39329",
"(  c #9D835B",
")  c #A58047",
"_  c #AA8346",
"`  c #A4824C",
"'  c #B48A45",
"]  c #B98B42",
"[  c #B58B48",
"{  c #B58D4C",
"}  c #A48554",
"|  c #AE8C56",
" . c #A1865B",
".. c #AC8759",
"X. c #B8855D",
"o. c #BC9557",
"O. c #9A8462",
"+. c #95846A",
"@. c #968976",
"#. c #968B7C",
"$. c #9B8E7C",
"%. c #9D907E",
"&. c #A58B63",
"*. c #AD946B",
"=. c #B69767",
"-. c #A08D71",
";. c #B88979",
":. c #A29076",
">. c #AD9674",
",. c #A49179",
"<. c #B49D7B",
"1. c #BBA27C",
"2. c #C29143",
"3. c #C59953",
"4. c #C1946F",
"5. c #D2A766",
"6. c #C6A778",
"7. c #86878E",
"8. c #9D938A",
"9. c #9C9594",
"0. c #AA8E87",
"q. c #A39683",
"w. c #AB9C84",
"e. c #A5968B",
"r. c #A69B94",
"t. c #BCA380",
"y. c #B3A38C",
"u. c #ACA295",
"i. c #A7A19A",
"p. c #BBAB94",
"a. c #B1A799",
"s. c #B3A99B",
"d. c #A4A3A3",
"f. c #AAA8A5",
"g. c #ADABAB",
"h. c #B2ACA5",
"j. c #B1AEAC",
"k. c #BCB3A5",
"l. c #B4B0AD",
"z. c #B5B4B4",
"x. c #BBB6B0",
"c. c #BCB9B5",
"v. c #B5B7B9",
"b. c #BDBCBC",
"n. c #C28E82",
"m. c #C59488",
"M. c #DD9F92",
"N. c #CFA488",
"B. c #DBB780",
"V. c #DDA293",
"C. c #C6B49B",
"Z. c #E5BD82",
"A. c #E3A598",
"S. c #F0AC9E",
"D. c #C4BBA7",
"F. c #C2BDB6",
"G. c #E7A9A0",
"H. c #EBADA4",
"J. c #F6B3A5",
"K. c #F8B4A6",
"L. c #FBB7AA",
"P. c #FEBAAC",
"I. c #F9B7B0",
"U. c #FFBDB1",
"Y. c #EDC385",
"T. c #EBC48D",
"R. c #F0C78C",
"E. c #FCCE8E",
"W. c #FED08F",
"Q. c #F5CC90",
"!. c #FED292",
"~. c #FFD996",
"^. c #FED698",
"/. c #D9C7AC",
"(. c #C4C2BE",
"). c #D1C6B5",
"_. c #E3C2AC",
"`. c #E5D4B9",
"'. c #BDBEC1",
"]. c #BFC2C8",
"[. c #C4C4C4",
"{. c #C3C5CA",
"}. c #C6C9CC",
"|. c #CCCCCD",
" X c #D3D1CD",
".X c #C7CDD7",
"XX c #CBCDD2",
"oX c #CED1D5",
"OX c #CFD3DA",
"+X c #D5D6D6",
"@X c #D8D7D7",
"#X c #D9D8D7",
"$X c #D3D5DA",
"%X c #D6D9DD",
"&X c #D9D9D9",
"*X c #F1DEC4",
"=X c #E0DEDC",
"-X c #FFFBDA",
";X c #D5DBE6",
":X c #DBDEE1",
">X c #DEE0E3",
",X c #E1E2E3",
"<X c #E3E6EA",
"1X c gray92",
"2X c #FEFFFF",
/* pixels */
"&X&X@X&X&X@X&X&X@X&X&X&X&X&X$X&X&X&X#X&X&X&X,X>X,X#X&X&X&X#X&X&X#X&X:Xi.O.c.:X#X&X&X&X&X&X&X&X&X&X&X",
"&X&X&X&X&X&X@X&X&X@X&X&X&X@X&X&X&X#X&X&X&X%Xh.8.j.OX&X#X&X&X+X&X&X].g.p P A b.=X#X&X&X&X&X&X&X&X&X&X",
"&X@X&X&X@X&X&X&X&X&X&X#X&X&X@X&X#X#X&X@X:X$.; 1 2 ` j.;X&X#X&X:Xu.i.+.2 s 3 ( %X&X#X&X#X&X&X&X&X&X&X",
"&X&X&X&X&X&X&X&X&X&X&X&X&X&X&X&X&X&X@X>Xg.l V.M.X.3 7 :.$X:X'.O.# c 9 t y V i z.&X#X$X&X&X&X&X&X&X&X",
"&X&X&X&X&X&X&X&X&X&X&X&X&X&X&X&X&X&X#X&X9.A.U.L.I.m.s H ..+.j 5 t f y V 6 V 2 8.<X#X&X&X&X&X&X&X&X&X",
"&X%X&X&X&X&X&X&X&X&X&X&X&X&X&X&X&X@X&X+Xe.J.J.J.J.U.m s I 5 J ^ s y R B E V : * }.#X&X&X#X&X&X&X%X&X",
"&X&X&X&X&X&X&X&X&X&X&X&X&X&X&X&X&X#X&XoX0.K.K.K.K.K.H.r I ! W V 1 1 1 V ^ ~ L q c v.+X&X$X&X&X&X&X&X",
"&X&X&X&X&X&X&X&X&X&X&X&X&X&X&X&X&X$X&XoXe.K.K.K.K.J.L...J ! ~ V B i @ B ~ L ~ G : c &X&X#X&X&X&X&X&X",
"&X&X&X&X&X&X&X&X&X&X&X&X&X&X&X&X&X@X&X+X9.J.K.K.K.J.I.4.s ~ ! ! B k.&X] H ~ K @.v 5 c.>X+X#X&X&X&X&X",
"&X&X&X&X&X&X&X&X=X&X&X&X&X&X&X&X@X&X&X:Xr.A.L.J.J.L.U.n.7 ~ ! ~ B ).2X#XZ U B &X#X2 s.>X#X&X&X&X&X&X",
"&X&X&X&X&X&X&X&X&X&X&X&X&X&X&X&X&X&X@X>Xv.;.U.J.H.n.M.b K ! ! ! G 6.2X2X6.H V =X2Xg y.>X+X&X#X&X&X&X",
"&X&X&X&X&X&X&X&X&X&X&X&X&X&X&X&X@X&X@X@X+X9.S.K.L.n.z u ! ! ! ! I S 1X&Xy.I K i.<X| k.:X&X&X&X#X&X&X",
"&X&X&X&X&X&X&X&X&X&X:X&X&X&X&X&X&X&X&X+X=X'.m.U.J.L.S.f I ! ~ ~ ~ F /.= + / / O 7.*.[.>X#XoX@X#X#X&X",
"&X&X&X&X&X&X&X&X&X&X&X&X&X&X&X&X&X&X&X&X&X%Xr.M.I.J.G.f I E R B E F o.=   ~ T ; % _ [.}.b.[.+X@X&X&X",
"&X&X&X&X&X&X&X&X&X&X&X&X&X&X&X&X&X&X&X&X&X&X$X0.A.P.H.r I E B s s V u w.C.o.# & $.r w f.oX@X&X&X&X&X",
"&X&X&X&X&X&X&X&X&X&X&X&X&X&X&X&X&X&X@X&X&X+X&X+X9.n.L.m J ^ ! B 2 2 1 w.-X*X* $ `.| < +.'.c.z.].@X#X",
"&X&X&X&X&X&X&X&X&X&X&X&X&X&X#X&X&X&X+X&X+X&X@X&X%Xd.0.n 8 ~ L q t.| X n `.`.p.D.<.~ F q.>X+X|.[.}.&X",
"&X&X&X&X&X&X&X&X&X&X&X&X&X&X&X&X&X&X&X&X&X@X&X&X&X&X}.[.d.0 T Z *X`.o X o o ,.*X{ < +.OX&X&X&X=X#X%X",
"&X&X&X&X&X&X&X&X&X&X&X&X&X&X#X&X&X&X&X&X&X&X%X&X&X&X&X=X:Xj.b > >.-XN - . x -X).z w.OX&X+X&X&X&X#X&X",
"&X&X&X%X&X&X&X&X&X&X&X&X&X&X$X&X+X&X&X&X&X&X&X@X&X&X&X&X:Xg.e 2 9 D._.M k D.N.# g.,X#X&X&X&X#X&X&X&X",
"&X&X&X&X&X&X&X&X&X&X&X&X&X&X&X&X&X&X&X&X&X&X&X&X&X&X&X%Xe.y I ^ I 0 *.D.p.' 4 J ( .X&X&X&X&X#X&X&X&X",
"&X&X&X&X&X&X&X&X&X&X&X&X&X#X&X&X&X&X+X&X&X&X@X&X#X#X:Xe.7 U ! ! W U J g d I E ^ F $.&X#X&X&X&X&X&X&X",
"&X&X&X&X&X&X&X&X&X&X&X&X&X&X#X&X&X&X&X&X&X&X+X&X#X:Xi.7 ~ ! ! I W ! E 7 Y E @ s Y s j.>X#X&X&X&X&X&X",
"&X&X&X&X&X&X&X&X&X&X&X&X&X&X&X&X&X&X&X&X&X&X&X&X&Xb.d I ! ! ! ! I I 3.6.4 ] 1.5 ^ L z }.&X&X&X&X&X&X",
"&X&X&X&X&X&X&X&X$X&X&X&X&X#X&X#X&X&X&X&X&X#X#X#X$X..L ! ~ U K 1 L V B.^.{ Z.T.u ~ ! F :.:X#X&X&X&X#X",
"&X&X&X&X&X&X&X&X&X#X#X&X&X&X&X&X#X&X&X&X#X#X&X<Xq.F ~ ^ K A e R I 3.^.!.^.~.T.q U W U C z.,X#X&X&X&X",
"&X&X&X&X&X&X&X#X&X&X#X&X&X&X&X&X&X&X#X&X=X:X{.r.Z ^ L 7 &.d.C Y Q Z.!.W.E.!.R.c V U ! U b ].>X&X&X&X",
"&X&X&X&X&X&X&X&X&X&X&X&X&X@X&X$X&X&X&X|.z.#.g J ~ L _ h..X| I L { ^.!.!.W.!.Y.l.l.S L ^ K _ u.}.oX&X",
"&X&X#X$X&X#X&X&X&X&X$X&X&X#X&X&X#X@X:X#.1 7 L ~ U d ].OX( J ^ u 6.~.!.!.!.~.Y.f.<Xb.` R W U B h h s.",
"&X&X&X&X&X&X@X&X&X&X&X#X&X&X&X&X&X@X&Xb.z 4 L R I Q j.( G ~ J o.~.W.!.!.!.~.6.f.=X&X$X&.L ~ U 7 : r.",
"&X#X@X&X&X&X&X&X&X&X&X&X&X&X&X&X#X#X>X:X@.D *.h. .J 9 s ^ I S T.!.!.W.!.!.~.6.l.>X&XXX{ G ' D d t $.",
"&X&X&X&X&X&X&X&X&X&X&X&X#X&X&X&X&X+XF.a.f.{.;X<X$X#.> ~ ~ B =.~.W.!.W.W.W.~.<.{.=X&Xb.e >.XX}.F.c. X",
"&X&X&X&X&X&X&X&X&X&X&X&X&X&X&X@Xf.:. .} r z 1.D.[.$.K ~ U S Q.!.!.!.!.!.W.E.%.$X&X&X&XOX%X&X&X>X&X&X",
"&X&X&X&X&X&X&X&X&X&X&X&X&X&X&XoX(.+X&X%X|.w.z p p : W W L D !.!.!.E.W.Q.^.6.d.=X#X&X#X&X&X&X#X#X@X&X",
"&X&X&X&X&X&X&X&X&X&X&X&X&X&X#X&X&X&X&X&X&X>XoXc.s.r U W U S R.!.E.!.W.~.B.& [.&X#X&X#X&X&X&X&X&X&X&X",
"&X&X&X&X&X&X&X&X&X&X&X&X&X&X&X&X#X$X&X@X&X#X%X,X}.a U W ~ K =.^.^.~.~.6.i V x.:X#X&X&X&X&X&X&X&X&X&X",
"&X&X&X&X&X&X&X&X&X&X&X&X#X&X&X&X&X&X&X#X#X&X&X&Xg.V ^ W W W L 2.5.5.{ s L E u.:X@X&X&X&X&X&X&X&X&X&X",
"&X&X&X&X&X&X&X&X&X&X&X&X&X&X&X&X&X&X&X&X&X&X#X>Xr.B ~ W ~ U V e > I L U ^ K *.:X@X@X&X#X&X&X&X&X&X&X",
"&X&X&X&X&X&X&X$X&X&X&X&X&X&X&X&X&X#X&X&X&X@X#X:X*.G W ~ H f h.oXu.a ^ ! W I _ @X&X&X&X&X&X&X&X&X&X&X",
"&X&X&X@X&X&X&X&X&X&X&X&X#X&X&X&X#X$X&X&X#X&X>XoX[ U ~ J ( ].>X&X&Xc.) L ! ! s z.>X@X@X&X#X&X&X&X&X&X",
"&X&X&X&X&X#X$X&X&X@X&X&X#X&X@X&X#X&X&X&X:XXXk.&.E U R -.OX&X+X#X@X>X].b E ~ L } [.%X&X&X&X&X&X&X&X&X",
"&X&X&X&X@X&X#X&X&X&X&X&X&X&X&X&X&X&X&XoXw.] V K ~ L O.;X&X@X&X&X#X&X>Xb.Z ~ ~ L C =.[.&X&X&X&X&X&X&X",
"&X&X$X#X&X&X&X&X@X&X$X#X&X&X&X&X&X#XOX( 3 B ~ ~ U 4 w.:X&X&X&X&X&X#X#X+X) F G L 2 , w .X&X#X&X&X&X&X",
"&X#X&X&X&X&X&X&X&X&X&X&X&X#X&X$X#X%XoXx ; 6 7 u ` y.oX&X&X&X&X&X&X&X#X&Xb.y.*.} ` @.a.oX&X&X&X&X&X&X",
"&X&X&X&X&X&X&X&X&X@X#X&X&X&X&X&X&X@X&XOXf.#.r.v.oX:X&X&X&X&X#X&X&X&X&X&X&X>X;X$XOX:X:X&X&X&X&X&X&X&X",
"&X&X&X&X&X&X&X&X&X&X&X&X#X&X&X&X&X&X&X&X>X>X>X:X&X#X&X&X$X&X&X&X&X&X@X&X@X@X#X&X&X@X#X@X&X&X&X#X&X&X",
"&X&X&X&X&X&X&X&X&X&X&X&X&X#X&X#X&X&X&X&X#X#X@X@X@X&X&X@X&X&X&X&X&X&X&X+X&X@X@X&X&X&X&X&X&X&X&X&X&X#X",
"&X&X&X&X&X&X&X&X&X&X&X&X&X&X$X&X&X@X&X&X&X&X@X&X&X&X&X&X&X&X&X&X&X&X&X&X&X&X&X&X#X&X#X&X&X#X&X&X&X#X",
"&X&X&X&X&X&X&X&X&X&X&X&X&X&X&X&X&X&X@X&X&X#X&X#X&X#X&X&X&X&X&X&X&X&X&X&X&X&X&X&X&X&X&X&X&X&X&X&X&X&X",
"&X&X&X&X&X&X&X&X&X&X&X&X&X&X&X&X&X&X&X&X$X&X&X&X&X&X&X&X&X&X&X&X&X&X&X&X&X&X&X&X&X&X&X&X&X&X&X&X$X&X"
};
