/* XPM */
static char *_4ae1c5484944e4bf2c0fccf40dafa29QZVs2MrUu459RH6T[] = {
/* columns rows colors chars-per-pixel */
"50 50 198 2 ",
"   c #120F0D",
".  c #0C1311",
"X  c #310000",
"o  c #503504",
"O  c #704E0E",
"+  c #704F11",
"@  c #77582D",
"#  c #7D612B",
"$  c #7F6739",
"%  c #3F4144",
"&  c #766E5E",
"*  c #7B705B",
"=  c #78746C",
"-  c #8D0A0D",
";  c #E62E31",
":  c #845C12",
">  c #845D14",
",  c #8E620D",
"<  c #92650E",
"1  c #9A6A0D",
"2  c #8D6214",
"3  c #8E6619",
"4  c #936612",
"5  c #966914",
"6  c #9B6C14",
"7  c #976B18",
"8  c #9D7019",
"9  c #A26D0A",
"0  c #A8720B",
"q  c #B97D0B",
"w  c #A57313",
"e  c #AA7614",
"r  c #AD7916",
"t  c #A27218",
"y  c #AC791A",
"u  c #B37D15",
"i  c #B97F12",
"p  c #B37E19",
"a  c #8B6A2A",
"s  c #946D24",
"d  c #916D28",
"f  c #9D7427",
"g  c #896634",
"h  c #9C6C34",
"j  c #8D713A",
"k  c #977532",
"l  c #9C7B3B",
"z  c #A57824",
"x  c #A37D35",
"c  c #B17E33",
"v  c #846D41",
"b  c #946A4A",
"n  c #8B7344",
"m  c #8D774F",
"M  c #977946",
"N  c #9B7D43",
"B  c #84755A",
"V  c #AE7D4C",
"C  c #866D6A",
"Z  c #897D66",
"A  c #BD8109",
"S  c #BC8214",
"D  c #BC8319",
"F  c #BA8725",
"G  c #BA8629",
"H  c #AA843A",
"J  c #AB883B",
"K  c #B38739",
"L  c #BD943E",
"P  c #C6850C",
"I  c #C9860B",
"U  c #D28C09",
"Y  c #C28615",
"T  c #C58916",
"R  c #CB8C13",
"E  c #C1871A",
"W  c #C58A1A",
"Q  c #CA8D1A",
"!  c #D18E11",
"~  c #CF9013",
"^  c #CE911C",
"/  c #D39213",
"(  c #D99615",
")  c #DD9816",
"_  c #D4941C",
"`  c #D9971C",
"'  c #DB991D",
"]  c #E19D1C",
"[  c #C08B26",
"{  c #C69120",
"}  c #DB9A20",
"|  c #E29E20",
" . c #9B8355",
".. c #A48242",
"X. c #AB8848",
"o. c #A78E52",
"O. c #B4835B",
"+. c #B49A59",
"@. c #85866F",
"#. c #978565",
"$. c #95866A",
"%. c #9E9268",
"&. c #8D8474",
"*. c #8D8777",
"=. c #978D77",
"-. c #9A937C",
";. c #AB9569",
":. c #B8897B",
">. c #A99977",
",. c #B19E75",
"<. c #B7A067",
"1. c #BBA979",
"2. c #C08A5D",
"3. c #C79057",
"4. c #CAA452",
"5. c #CB936E",
"6. c #C7AB69",
"7. c #C3AB78",
"8. c #CDB478",
"9. c #E3C87E",
"0. c #8B8C8B",
"q. c #989489",
"w. c #9F998B",
"e. c #969594",
"r. c #9D9A93",
"t. c #9D9A95",
"y. c #A59B89",
"u. c #BD9289",
"i. c #AEA38E",
"p. c #B1A183",
"a. c #A6A094",
"s. c #A9A397",
"d. c #B7AC97",
"f. c #9FA4AE",
"g. c #A9A8A6",
"h. c #B2AFA9",
"j. c #BDB5A7",
"k. c #B4B2AF",
"l. c #ADAFB4",
"z. c #AFB0B1",
"x. c #B4B4B5",
"c. c #BAB7B1",
"v. c #B2B4B9",
"b. c #B5B8BC",
"n. c #BBBBBC",
"m. c #C89586",
"M. c #DCA08B",
"N. c #DCA49C",
"B. c #E3A89F",
"V. c #E7B39D",
"C. c #C0B7A7",
"Z. c #E9ACA5",
"A. c #EEB1AA",
"S. c #F5B4A5",
"D. c #FAB7A9",
"F. c #FEBBAC",
"G. c #F4B4B5",
"H. c #FEBCB2",
"J. c #E7CC85",
"K. c #E7D08E",
"L. c #F3D68B",
"P. c #FCDD8E",
"I. c #F7DA92",
"U. c #FFE394",
"Y. c #FFE799",
"T. c #FFE89C",
"R. c #CEC3A4",
"E. c #D3C7AC",
"W. c #C3C1BD",
"Q. c #D8D2B2",
"!. c #FFC3B4",
"~. c #FFC8B9",
"^. c #BBBEC4",
"/. c #BEC0C4",
"(. c #BDC2C9",
"). c #C3C4C5",
"_. c #C5C6C7",
"`. c #C6C9CE",
"'. c #CBCBCC",
"]. c #C7CCD7",
"[. c #CDCFD2",
"{. c #CFD1D7",
"}. c #CDD1DA",
"|. c #D6D6D6",
" X c #D8D7D6",
".X c #D8D8D7",
"XX c #D2D5DB",
"oX c #D7D9DC",
"OX c #D9D9D9",
"+X c #E0DFDE",
"@X c #EEE8C6",
"#X c #FEF1CD",
"$X c #FEFBDA",
"%X c #D7DCE5",
"&X c #DBDEE2",
"*X c #DFE0E3",
"=X c #DCE1EA",
"-X c #E1E2E3",
/* pixels */
"OXOXOXOXOXOXOXOXOXOXOXOXOXOXOXOXOXOXOXOX.X.XOXg.m $./.OXOXOXOXOXOXOXOXOXOXOXOXOXOXOXOXOXOXOXOXOXOXOX",
"OXOXOXOXOXOXOXOXOXOXOXOXOX.XOXOX|.OX.XOX.X+X).s ! R j ^.OXOXOXoXOXOXOXOXOXOXOXOXOXOXOXOXOXOXOXOXOXOX",
"OXOXOXOXOXOXOXOXOXOXOXOX.XOX-XOXOXOXOX.X.X-Xt.E ' W /  .oXOXOXOXOXOXOXOXOXOXOXOXOXOXOXOXOXOXOXOXOXOX",
"OXOXOXOXOXOXOXOXOXOXOXOXoXXXx.^.&XOX|.oX'.x.h.w : r ` p c.OX.XOX XOXOXOXOXOXOXOXOXOXOXOXOXOXOXOXOXOX",
"OXOXOXOXOXOXOXOXOX|.|.OX'.n < f $.).*XOXt.g.* o 7 u y 0 #.=XoXOXOXOXOXOXOXOXOXOXOXOXOXOXOXOXOXOXOXOX",
"OXOXOXOXOXOXOXOXOX*XOX-X&.h 3.G P k x.'.& ..1 Q _ Q _ _ 2 B W.oX XOXOXOXOXOXOXOXOXOXOXOXOXOXOXOX XOX",
"OXOXOXOXOXOXOXOX.Xa._.`.C D.H.N.O.R G B 7 ( } 6 r ` _ ` E 0 H '.OXOX XOXOXOXOXOXOXOXOXOXOXOXOXOXOXOX",
"OXOXOXOXOXOX'.).`., p.b.:.!.S.F.H.O.~ Y D } D 5 p W ( _ _ y D C.&X XOXOXOXOXOXOXOXOXOXOXOXOXOXOXOXOX",
"OXOXOXOX.X-Xy.3 r.K o.f.m.F.D.D.D.A.c ` _ ` W y u u Q ` Q D i d.&XOXOXOX XOXOXOXOXOXOXOXOXOXOXOXOXOX",
"OXOXOXOXOXOX`.X.y F F 0.u.!.D.D.D.H.2.R ` ` ` E E W p ' Q D p t.OX_.'. XOXOXOXOXOXOXOXOXOXOXOXOXOXOX",
"OXOXOXOXOXOX|.y.D ' Q g C !.D.F.D.H.5.I _ _ ` ^ D ` y _ } 9 O 0.b.). X X XOXOXOXOXOXOXOXOXOXOXOXOXOX",
"OXOXOXOX.XOXg.3 y D y ~ @ Z.S.:.S.Z.K / ` ` ` W w , 9 P i l <.j g b.).c.x.'.OXOXOXOXOXOXOXOXOXOXOXOX",
"OXOXOXOXOXOXOX).v..., t e :.~.:.b g p ` E D E r 7 a  .8.$.% q.1.4 c.OX{.{.OXOXOXOXOXOXOXOXOXOXOX|.OX",
"OXOXOXOXOXOXOXoX*X`.&.1 / g Z.~.B.N.V ! _ _ Q Y + &.$X$X#X-.d.c N }.oXOXOXOXOXOXOXOXOXOXOXOXOXOXOXOX",
"OXOXOXOXOXOXOX.X|.+XXXn u 1 b m.g M.m.u _ D y y # . @.R.=.-.1.s n.+XOX X XOXOXOXOXOXOXOXOXOXOX XOXOX",
"OXOXOXOXOX.X.X.XOX|.+Xl.@ S T y q 5.G.@ S ^ u p.@X@ X     @X>.h.+X XOXOX XOXOXOXOXOXOXOXOX XOXOXOXOX",
"OXOXOXOXOXOXOXOX X X+Xn.# e ^ ] p b 5.x < | ) 6.$XV.; - *.E.z.+X|..XOXOXOXOXoXOXOXOXOXOXOXOX XOXOXOX",
"OXOXOXOXOXOXOX|.OXOX{.n P ' } _ _ e 6 i 5 O w : $ %.b m.Q.x.+X.XOXOXOXOXOXOXOXOXOXOXOXOXOXOXoXOXOXOX",
"OXOXOXOXOXOXOXOXOXOXOXy.%.X.I ) ` ` W p E u p D P P { o.y.&XOXOXOXOXOXOXOX.X.XOXOXOXOXOXOXOXOXOXOXOX",
"OXOXOXOXOXOXOXOXOXOXOXoXoX`.=.l E ] } ' ` ` ' ' } } _ P M XX XOXOXOX.XOXOX.X.XoXOXOXOXOX XOX XOXOXOX",
"|.OX|.OXOXOXOXOX XOXOX|..XOX-XXX=.w / ] ` ' ' ` ` ` _ ' E s.-X XOXOXOXOX.XOX.X.XOXOXoXOXOX X XoXOXOX",
"OXOX|.OX|.OXOX|.OXOXOXOXOXOX.XOX.Xe.n x z y u p W ^ _ _ ] G h.*XOX.X.XOX.X.XOXOXOXOX-X%X%X&XoX|.OX|.",
"OXOXOXOXOXOXOXOXOXOX|.OXOXOXOXOXOX-XXX(.y.<.6.6.J T ` ` D Y F y.XX+X.XOXoXOX|..X&XXXd.7.7.%.Z n.oXOX",
"|.OXOXOXOXOXOXOXOXOXOXOXOXOXOXOXOX|..X-Xc.J.Y.T.8.S ' 6 2 2 5 u  .z.&XOX.XOX|.&Xj.x x ;.,.y.k.OXOXOX",
"OXOXOXOXOXOXOXOXOXOXOXOXOXOXOXOXOX.XOX+Xx.7.U.L.I.L S 2 ' ' u 6 R y &.oXOXOX=Xs.7 >.oX%X%X-X&XOX XOX",
"OXOXOXOXOXOXOXOXOXOX&XOXOXOXOXOXOXOXOXOX{.>.P.L.P.9.d e ' _ ] e > | w t.-X%Xs.< >.%XOX XOX X X|.OXOX",
"OXOXOXOXOXOXOXOXOXOXOXOXOXOXOXOXOX.XOX.X*Xa.J.Y.I.Y.7.w ' _ _ ' D Q ( j (.i.e M ].OX|.OXOXOXOXOXOXOX",
"OXOXOXOXOXOXOXoXOXOXOXOXOXOXOXOXOXOXOXOXOXn.%.+.+.I.K.y ' _ _ ^ ` _ } + t A g b.+X XOXOXOXOXOXOXOX|.",
"OXOXOXOXOXOXOXOXOXOXOXOXOXOXOXOXOXOXOX.XOX-X= 6 5 k 4.f T ^ ^ D _ _ ' > v $.).+X XOXOXOXOXOX|.OXOXOX",
"OXOXOXOXOXOXOXOXOXOXOXOXOXOXOXOXOXOX.XOXOXOXn.+ A ) R ~ ~ _ ^ 8 _ _ ) g ].`._.OXOX XOXOXOXOXOXOXOXOX",
"OXOXOXOXOXOXOXOXOXOXOXOXOXOXOXOXOXOX.X.XOX|.*Xg.l 7 L K { R / 5 _ } !  .v.a f y.%XOX XOXOXOXOXOXOX|.",
"OXOXOXOXOXOXOXOXOXOXOXOXoXOXOXOXoXOX.X.XOXOX.XOX[.0.1.L.J.6.[ 2 _ ` p = H / ] Y  .).OXOXOXOXOXOXOXOX",
"OXOXOXOXOXOXOXOXOXOXOX+XOXOXOXOXOXOXOXOXOXOXOXOX+X-Xn.d.;.8.M 4 ' ` 7 + ' ` Q | U 7.%X.X.XOXOXOXOXOX",
"OXOXOXOXOXOXOXOXOXOXOXOXOXOXOXOXOXOXOXOXOXOXOXOXOX XOXOXg.d Y ` _ ( ` u ^ ` f z W E.&X XOXOXOXOXOXOX",
"OXOXOXOXOXOXOXOXOXOXOXOXOXOXOXOXOXOXOXOXOXOXOXOXOXOXOX.X-XW.H / } _ ` ^ ` W s.x.s.|.OXOXOXOXOXOXOXOX",
"OXOXOXOXOX&XOXOXOXOXOXOXOXOXOXOXOXOXOXOXOXOXOXOX.X.XOXOX|.&X/.N T } ` _ ] z ).-X&XOX.XOXOXOXOXOXOXOX",
"OXOXOXOXOXOXOXOXOXOXOXOXOXOXOXOXOXOXOXOXOXOXOXOXOXOXOX.XOX|.OX[.#.e R / q w.*X|.|.OXOXOXOXOXOXOXOXOX",
"+XOXOXOXOXOXOXOX+XOXOXOXOXOXOXOXOXOXOXOXOXOXOXOXOXOXOXOXOXOXOXOX%Xg.#.m q.|.OXOXOXOXOXOXOXOXOXOXOXOX",
"OXOXOXOXOXOXOXOXOXOXOXOXOXOXOXOXOXOXOXOXOXOXOXOXOXOXOXOX.X|.OXOX|.-XoXXXoXOX.XOX XOXOXOXOXOXOXOXOXOX",
"OXOXOXOXOXOXOXOXOXOXOXOXOXOXOXOXOXoXOXOXOXOXOXOXOXOXOXOXOXOXOXOXOX|.OXOX.X.XOX.X|.OXOXOXOXOXOXOXOXOX",
"OXOXOXOXOXOXOXOXOXOXOXOXOXOXOXOXOXOXOXOXOXOXOXOXOXOXOXOXOXOXOXOXOXOX|.OX XOXOXOXOXOXOXOXOXOXOXOXOXOX",
"OXOXOXOXOXOXOXOXOXOXOXOXOXOXOXOXOXOXOXOXoXOXOXOXOXOXOX|.OXOX|.OXOXOXOXOXOX|.XX|.OXOXOXOX|.OXOXOXOXOX",
"OXOXOXOXOXOXOXOXOXOXOXOXOXOXOXOXOXOXoX.XOXOXOXOXOXOXOXOXOXOXOXOXOXOX|.OXOXOXOXOXOXOX|.|.OXOXOXOXOXOX",
"OXOXOXOXOX+XOXOXOXOXOXOXOXOXOXOXOXOXOX.XOXOXOXOXOXOXOXOXOXOXOXOXOXOXOXOXOXOXOXOXOXOXOXOXOXOXOXOXOXOX",
"OXOXOXOXOXOXOXOXOXOXOXOXOXOXOXOXOX|.OXOXOXOXOXOXOXOXOXOXOXOXOX|.OXOXOX|.OXOX|.OXOX|.OXOX.XOXOXOXOXOX",
"OXOXOXOXOXOXOXOXOXOXOXOXOXOXoXOXOXOXOX.XOXOX|.OXOXOXOXOXOXOXOXOXOXOXOXOXOXOXOXOXOXOXOXOXOX.XOXOXOXOX",
"OXOXOXOXOXOXOXOXOXOXOXOXOXOXOXOXOXOXOXOX|.OXOXOXOXOXOXOXOXOXOXOXOXOXOXOXOXOXOXOXOXOXOXOX|.OXOXOXOXOX",
"OXOXOXOXOXOXOXOXOXOXOXOXOXOXOXOXOXOX.XOXOXOXOXOXOXOXOX|.OXOXOXOX.XOXOXOXOXOX|.OXOX|.OXOXOXOX|.OXOXOX",
"OXOXOXOXOXOXOXOXOXOXOXOXOXOXOXOXOXoXOXOXOX.XOXOXOXOXOXOXOXOXOXOXOXOXOXOXOXOXOXOXOXOXOXOX.XOXOXOXOXOX",
"OXOXOXOXOX+XOXOXOXOXOXOXOXOXOXOXOXOXOXOXOXOXOX XOXOXOXOXOXOXOXOXOXOXOXOXOXOXOXOXOXOXOXOXoX.XOXOX|.OX"
};
