/* XPM */
static char *_7aabe97488b4113a044a05782b0b1d6o4L2Agkf5ei3pjY6[] = {
/* columns rows colors chars-per-pixel */
"50 50 205 2 ",
"   c black",
".  c #190000",
"X  c #31392F",
"o  c #5C0104",
"O  c #5B3D06",
"+  c #6C4A0A",
"@  c #704D0B",
"#  c #79540D",
"$  c #6C4C10",
"%  c #775616",
"&  c #7D5914",
"*  c #5C4B2D",
"=  c #6F542F",
"-  c #6A5731",
";  c #7A6134",
":  c #5D584A",
">  c #645B47",
",  c #6F5E51",
"<  c #7B6B4B",
"1  c #786D55",
"2  c #7D7058",
"3  c #676166",
"4  c #7B7568",
"5  c #CD1B1D",
"6  c #E43134",
"7  c #8A5C06",
"8  c #825D15",
"9  c #8E6205",
"0  c #8E610E",
"q  c #99680A",
"w  c #8C6212",
"e  c #896218",
"r  c #916613",
"t  c #966913",
"y  c #9A6C14",
"u  c #986C1A",
"i  c #9F7016",
"p  c #A46D05",
"a  c #A7730D",
"s  c #B37906",
"d  c #A47215",
"f  c #AA7615",
"g  c #AD7916",
"h  c #A77519",
"j  c #AD7B1A",
"k  c #B27C15",
"l  c #B97F12",
"z  c #B37E19",
"x  c #855037",
"c  c #8A6827",
"v  c #85662A",
"b  c #926C2B",
"n  c #997227",
"m  c #9D762A",
"M  c #886B34",
"N  c #926830",
"B  c #8E723C",
"V  c #967332",
"C  c #9B7936",
"Z  c #A37A29",
"A  c #A97E2C",
"S  c #A57C38",
"D  c #856A45",
"F  c #8A744A",
"G  c #937742",
"H  c #8D6D57",
"J  c #966D58",
"K  c #887858",
"L  c #A57B44",
"P  c #B07F5B",
"I  c #887D67",
"U  c #B37A68",
"Y  c #BD810D",
"T  c #B78017",
"R  c #BC8214",
"E  c #B5801B",
"W  c #BC8319",
"Q  c #B28227",
"!  c #B2832A",
"~  c #A9843B",
"^  c #B68D3D",
"/  c #C5850E",
"(  c #CB8A0E",
")  c #C38612",
"_  c #C78813",
"`  c #CC8C14",
"'  c #C18719",
"]  c #C58A1A",
"[  c #CB8E1A",
"{  c #D18F13",
"}  c #CF901A",
"|  c #D59316",
" . c #DA9615",
".. c #D4941C",
"X. c #D8971B",
"o. c #DC991C",
"O. c #E19D1D",
"+. c #E4A01F",
"@. c #DA9A21",
"#. c #E09E20",
"$. c #E5A121",
"%. c #9F8045",
"&. c #9E8753",
"*. c #A7884B",
"=. c #B58F41",
"-. c #A48956",
";. c #B59355",
":. c #BFA059",
">. c #8C806A",
",. c #958464",
"<. c #95886F",
"1. c #9A8B6D",
"2. c #8C8576",
"3. c #998C73",
"4. c #958D7C",
"5. c #B8876B",
"6. c #A6926D",
"7. c #AA956D",
"8. c #AD8079",
"9. c #BD8A71",
"0. c #A59573",
"q. c #BFA465",
"w. c #AFA07B",
"e. c #B4A977",
"r. c #C48F7D",
"t. c #C4AB6D",
"y. c #D4B66B",
"u. c #CBB478",
"i. c #D2B774",
"p. c #8C8C8A",
"a. c #958D85",
"s. c #9C9484",
"d. c #9A958C",
"f. c #9F998D",
"g. c #989998",
"h. c #A48982",
"j. c #A49B89",
"k. c #A29B94",
"l. c #A5A29C",
"z. c #AAA599",
"x. c #B8AC90",
"c. c #BCB59D",
"v. c #9599A1",
"b. c #9EA0A1",
"n. c #A3A4A4",
"m. c #ADAAA3",
"M. c #B0AFAD",
"N. c #B7B5AF",
"B. c #AEAFB2",
"V. c #B5B5B4",
"C. c #BEB9B0",
"Z. c #BABBBC",
"A. c #C99588",
"S. c #D4B09A",
"D. c #E6A99A",
"F. c #C3B9A3",
"G. c #E9ADA9",
"H. c #EFB1AC",
"J. c #F4B3A4",
"K. c #FBB7A9",
"L. c #FDB9AB",
"P. c #FEBDB3",
"I. c #DAC280",
"U. c #ECD289",
"Y. c #F7D88D",
"T. c #EDD894",
"R. c #F5DB94",
"E. c #FFE293",
"W. c #FFE698",
"Q. c #CEC6AA",
"!. c #C3C2BE",
"~. c #D6D0B3",
"^. c #FFC3B5",
"/. c #FFC1BD",
"(. c #E5D7B4",
"). c #B7BCC6",
"_. c #B9BDC3",
"`. c #BDC0C7",
"'. c #BFC3CB",
"]. c #C4C5C5",
"[. c #C9C9C6",
"{. c #C2C5CA",
"}. c #CBCBCC",
"|. c #D0CFCE",
" X c #C7CCD4",
".X c #CACDD3",
"XX c #C8CEDA",
"oX c #CDD0D6",
"OX c #CDD1D8",
"+X c #D6D6D6",
"@X c #D8D7D6",
"#X c #D9D8D7",
"$X c #D3D6DA",
"%X c #D6D9DC",
"&X c #D9D9D9",
"*X c #F1EAC8",
"=X c #F9EBC8",
"-X c #E1E0DF",
";X c #FFFDD7",
":X c #D6DAE1",
">X c #DCDEE2",
",X c #DFE0E3",
"<X c #DBE0EA",
"1X c #E1E2E3",
"2X c #E2E5E8",
/* pixels */
"&X&X&X&X&X&X&X&X&X&X&X&X&X&X&X&X&X&X&X&X&X&X&X&X&X&X&X&X&X&X&X&X&X&X&X&X&X&X&X&X&X&X&X&X&X&X&X&X&X&X",
"&X&X&X&X&X&X&X&X&X&X&X&X&X&X&X&X&X&X&X&X&X&X&X&X&X&X&X&X&X&X&X&X&X&X&X&X&X&X&X&X&X&X&X&X&X&X&X&X&X&X",
"&X&X&X&X&X&X&X&X&X&X&X&X&X&X&X&X&X&X&X&X&X&X&X&X&X&X&X&X&X&X&X&X@X&X&X&X&X&X&X&X&X&X&X&X&X&X&X&X&X&X",
"&X&X&X&X&X&X&X&X&X&X&X&X&X&X&X&X&X&X&X&X&X&X&X&X&X&X&X&X+X+X+X&X&X&X&X&X&X&X&X&X&X&X&X&X&X&X&X&X&X&X",
"&X&X&X&X&X&X&X&X&X&X&X&X&X&X&X&X&X&X&X&X&X&X&X&X&X&X+X&X>X>X-X&X&X&X@X&X&X&X&X&X&X&X&X&X&X&X&X&X&X&X",
"&X&X&X&X&X&X&X&X&X&X&X&X&X&X&X&X&X&X&X&X&X&X&X&X&X+X-X'.4.K k.&X&X@X&X&X&X&X&X&X&X&X&X&X&X&X&X&X&X&X",
"&X&X&X&X&X&X&X&X&X&X&X&X&X&X&X&X&X&X&X&X&X&X&X&X+X-X_.M Y ` d m.>X+X&X&X&X+X&X&X&X&X&X&X@X&X&X&X&X&X",
"&X&X&X&X&X&X&X&X&X&X&X&X&X&X&X&X&X&X&X&X&X&X&X&X&XOXF / @.$._ 3.2X&X+X&X&X&X&X@X&X&X&X&X&X&X&X&X&X&X",
"&X&X&X&X&X&X&X&X&X&X&X&X&X&X&X&X&X&X&X&X&X@X@X@X1Xz.R O.f h l 7..X[.&X&X+X+X-X,XOX>X&X&X&X&X&X&X&X&X",
"&X&X&X&X&X&X&X&X&X&X&X&X&X&X&X&X&X&X&X@X&X&X@X-X>X&.R z k t O 1 OXp.+X@X@X>X).I ; I oX&X&X+X&X&X&X&X",
"&X&X&X&X&X&X&X&X&X&X&X&X&X&X&X&X&X&X&X&X&X@X&XoXg.8 z h f k y O 1.p.l.1X$Xs.m s l 9 1 :X+X#X&X&X&X&X",
"&X&X&X&X&X&X&X&X&X&X&X&X&X&X&X&X&X&X&X&X&X&X].B & W O.o.O.[ [ ..) V 2 .X,.R _ L A.D.; b.1X&X%X&X+X+X",
"&X&X&X&X&X&X&X&X&X&X&X&X&X&X&X&X&X&X&X@X&X:X7.Y k ........l 8 ] #.X.8 B ..' 9.H.L.^.D.4 2Xz.1.+X-X&X",
"&X&X&X&X&X&X&X&X&X>X&X&X&X&X&X&X&X&X&X@X&XoXS l j ....X.] f k k o.[ l o.] U P.L.K.K.L.a.XX*.d `.Z.!.",
"&X&X&X&X&X&X&X&X&X&X&X&X&X&X&X&X&X&X&X&X&X|.A { z ..X.[ g g d ] ....X.| L H.L.K.L.K.K.h.).! ^ g.r I ",
"&X&X&X&X&X&X&X&X&X&X&X&X&X&X&X&X+X@X].}.@X_.V [ z ..X.k [ W z X...X.X.l r.P.K.K.K.K.J.k.p.l Q z A V.",
"&X&X&X&X&X&X&X&X&X&X&X&X&X&X&X&X&X1X&XZ.].).* 9 z X.} f #.E [ X.....@.T A.L.J.L.L.L.G.3 S | o.j d.,X",
"&X+X&X&X&X&X&X&X&X&X&X&X&X&X&X].V.V.[.$X>.- A m E  .` g z d [ X.X.X.X._ -./.P.D.D.P.8.@ o.h .._ g 4.",
"&X&X&X&X&X&X&X&X&X&X&X&X&X&X&X[.Z.Z.}.n.# C F.4 > ~ ^ u + 7 d W ] [ } o.g P U J D.P.D ) E a z 3.1.N.",
"&X+X&X&X&X&X&X&X&X&X&X&X&X&X&X&X-X&X-X XB m ~.: : *X=XF.>.c k W W l [  .N J 5.J.^.A.u ' $ M f.>X,X-X",
"&X&X&X&X&X&X&X&X&X&X&X&X&X&X&X&X&X&X+X>Xk.a -.c.F.;X;X=X4 @ R R ..o.O.k r.P.A.P.G.= k X.v ).>X@X@X@X",
"+X&X&X&X&X&X&X&X&X&X&X&X&X&X&X+X&X&X&X&X&X6.S Q.: 1 2.X   K ^ d k z _ N G.5.0 -.L t ' % k.1X+X&X&X+X",
"&X&X&X&X&X&X&X&X&X&X&X&X&X&X&X&X&X&X&X+X&X:X2.(.Q.  . o x ;X~.! | @.0 H /.5.` W [ ] y I >X&X&X&X&X&X",
"&X&X+X&X&X&X&X&X&X&X&X&X&X&X&X&X&X&X&X&X%X&X&Xl.~., 5 6 S.;Xu...O.W % L ;.x T #.} ' t H $X&X&X&X&X&X",
"&X&X&X+X&X&X&X&X&X&X&X&X&X&X&X&X&X&X+X&X&X&X&X+Xz.(.U H e.K & f r $ g T a k ....@.#.| p 2.,X+X+X&X&X",
"&X+X&X&X&X&X$X&X&X&X&X&X&X&X&X&X&X&X&X&X&X&X&X&X}.4.;.] / / ] R g W T W [ ....o.| W %.F m.,X&X&X&X&X",
"&X&X&X&X&X&X+X&X+X&X&X@X&X&X&X&X&X&X&X+X+X&X&X&X[.c / o.X.@.X.X.o.@.o.o...X.} j C z.OX$X,X@X&X&X&X&X",
"&X&X+X&X+X&X+X&X&X&X&X&X&X&X&X&X&X&X&X&X&X&X@X,X0.{ @...@...........@.@.O.( C B.OX&X&X&X@X&X&X+X&X&X",
"&X&X&X&X>X&X&X&X&X@X+X&X&X&X&X&X&X&X+X&X#X#X2Xm.Q X...X...X.X.| | } ` ) t < `.,X&X@X&X@X+X&X&X&X&X&X",
"&X&X&X+XV.[.|.#X+X:X>X&X&X&X+X&X&X&X&X+X&X>Xl.Q O.o.....] j A m m V K 4.n.OX-X+X&X&X&X&X&X&X&X&X&X&X",
"&X&X&X&Xp.D G =.*.-.F.%X&X+X&X&X&X&X&X,X{.<.k k y f ..X.` ;.T.T.Y.x. X2X1X#X+X&X&X@X&X&X&X&X&X&X&X&X",
"&X&X&X&X1X|.].C.F.7.u -. X&X+X&X&X&X%Xd.C | y w l t w +.) i.E.Y.E.w.}.&X@X@X&X@X&X&X&X&X&X&X&X&X&X&X",
"&X&X&X&X+X&X>X>X>X,XV.Z B {.-X@X#XoX2 g ` t i o.o.o.& Y ^ R.Y.R.U.0.:X&X+X&X&X+X&X&X&X&X&X&X&X&X&X&X",
"&X+X&X+X&X&X@X+X+X+X1XM.q F {.-X-X2.s $.r y O.....O.w c U.Y.Y.E.i.n.,X@X&X&X&X&X&X&X&X&X&X&X&X&X&X&X",
"&X&X&X+X+X&X&X+X&X&X@X>X4.p *.V.`.; o.[ T o.....| O.r e.E.E.W.E.7.{.&X&X&X&X&X&X&X&X&X&X&X&X&X&X&X&X",
"&X+X&X&X+X&X&X&X&X&X#X&XXXK s ' c & O.} ..o.} ....o.n R.W.u.q.u.d.%X&X&X&X&X&X&X&X&X&X&X&X&X&X&X&X&X",
"&X&X&X&X&X&X&X&X+X&X&X&X&X.XI n % e #.....[ T o...) c i.&.e s * ].>X+X&X&X&X&X&X&X&X&X&X%X&X&X&X&X&X",
"&X+X&X&X&X&X&X+X&X&X&X&X&X1X<X Xv.u #...o.d E o.] W } } R E 7 >.,X#X&X&X@X&X&X&X&X&X&X&X&X&X&X&X&X&X",
"&X&X+X+X&X+X&X&X&X+X&X&X:Xz.K z.XXc o...O.r T o.X.) g ) | ( - _.-X@X#X#X&X&X&X&X&X&X&X&X&X&X&X&X&X&X",
"&X&X&X&X&X&X&X&X&X&X-X X1.k { i b.&.` ..o.w ` ` ! :.i.t.* 2.].>X+X#X#X#X&X&X&X&X&X&X&X&X&X&X&X&X&X&X",
"&X+X&X&X#X&X&X%X.X}.m.S ) #.@.X.! > f o.o.0 m y.R.Y.I.x.V.,X>X+X&X&X&X&X&X&X&X&X&X&X&X&X&X&X>X#X@X&X",
"&X&X&X&X&X@X,Xf.% v [ o.$.) [ ..o.0 i ..o.R % q.*.>.M.$X>X@X@X&X&X&X&X&X&X&X&X&X&X&X&X&X&X&X&X#X&X&X",
"&X&X&X+X@X+X,Xl.$ { g k a < Q O.W T o.....o.X.p >.oX,X#X+X#X&X&X&X@X&X&X&X&X&X&X&X&X&X&X&X&X&X&X&X&X",
"+X&X&X&X&X&X&X,Xg.,.m.k.n. X*.| ..........o.T j.>X>X+X&X&X#X+X&X&X&X&X&X&X&X&X&X&X&X&X&X&X&X&X&X&X&X",
"&X&X&X+X+X&X&X@X>X%X,X,X-X1Xh._ o.} ..o.o.f d.,X#X+X#X#X&X&X&X&X&X&X&X&X&X&X&X&X&X&X&X&X&X&X&X&X&X&X",
"&X&X&X&X&X&X&X&X#X#X@X+X+X&X'.V  .o.o./ b l.>X#X#X#X#X#X&X&X&X&X&X&X&X&X&X&X&X&X&X&X&X&X&X&X&X&X&X&X",
"&X&X&X&X&X&X@X&X#X&X@X&X&X@X-XB.B m V >.'.,X#X#X&X#X&X&X&X&X&X&X&X&X&X&X&X&X&X&X&X&X&X&X&X&X&X&X&X&X",
"&X&X&X&X&X&X&X&X&X&X&X&X#X&X@X-X XZ.'.>X-X+X%X&X&X&X&X&X&X&X&X&X&X&X&X&X&X&X&X&X&X&X&X&X&X&X&X&X&X%X",
"&X&X&X&X&X&X&X&X&X&X&X&X&X&X&X+X&X,X>X@X@X&X#X&X&X&X&X&X&X&X&X&X&X&X&X&X&X&X&X&X&X&X&X&X&X&X&X&X&X&X",
"&X&X&X&X&X&X&X&X&X&X&X&X&X+X&X&X&X@X@X&X#X#X@X&X&X&X&X&X&X&X&X&X&X&X&X&X&X&X&X&X&X&X&X&X&X&X&X&X&X&X"
};
