/* XPM */
static char *_e809597b4ca4b028dbe7cea47f01542QxVcw3pHL3k6MgUx[] = {
/* columns rows colors chars-per-pixel */
"50 50 208 2 ",
"   c #020403",
".  c #0E1310",
"X  c #230D0B",
"o  c #3B2803",
"O  c #3B372D",
"+  c #7D1415",
"@  c #593F0F",
"#  c #694708",
"$  c #6C4B0D",
"%  c #715012",
"&  c #775416",
"*  c #644B26",
"=  c #67532D",
"-  c #775B24",
";  c #6A5A3A",
":  c #765C35",
">  c #786337",
",  c #5C5A54",
"<  c #625C4C",
"1  c #6E6045",
"2  c #7A6949",
"3  c #776C58",
"4  c #7D7056",
"5  c #736A61",
"6  c #79756F",
"7  c #C62325",
"8  c #C5383A",
"9  c #855B0B",
"0  c #875C09",
"q  c #825C12",
"w  c #8E610B",
"e  c #99680B",
"r  c #8D6314",
"t  c #8E661B",
"y  c #926612",
"u  c #956915",
"i  c #9B6C14",
"p  c #936B1D",
"a  c #996C19",
"s  c #A06901",
"d  c #A26E0B",
"f  c #AB730B",
"g  c #B67A08",
"h  c #B97E0D",
"j  c #A06E12",
"k  c #A47314",
"l  c #A97615",
"z  c #AE7915",
"x  c #A3741C",
"c  c #A8771D",
"v  c #AE7B1B",
"b  c #B37C14",
"n  c #B97F11",
"m  c #B37E1A",
"M  c #876526",
"N  c #966C20",
"B  c #936E2B",
"V  c #96722B",
"C  c #9F7B2F",
"Z  c #896C35",
"A  c #8E7037",
"S  c #967537",
"D  c #A37623",
"F  c #A77A27",
"G  c #A37B36",
"H  c #866A4A",
"J  c #8B7548",
"K  c #947B4B",
"L  c #86775A",
"P  c #8A7A5B",
"I  c #927057",
"U  c #A77956",
"Y  c #857962",
"T  c #847D69",
"R  c #8A7F6A",
"E  c #907972",
"W  c #A67B6F",
"Q  c #CA574D",
"!  c #BF810C",
"~  c #BC8214",
"^  c #B78019",
"/  c #BD8419",
"(  c #AE832E",
")  c #B78526",
"_  c #A98438",
"`  c #B48537",
"'  c #CB8B0D",
"]  c #C28613",
"[  c #C68913",
"{  c #CB8C14",
"}  c #C18719",
"|  c #C58A1A",
" . c #CB8E1A",
".. c #D28F12",
"X. c #CE901B",
"o. c #D49215",
"O. c #DA9615",
"+. c #D5951C",
"@. c #D9971B",
"#. c #D7981F",
"$. c #DB991D",
"%. c #E29E1D",
"&. c #E8A11D",
"*. c #D79820",
"=. c #DC9B21",
"-. c #E29F21",
";. c #9B8149",
":. c #9A8457",
">. c #A88647",
",. c #B9954A",
"<. c #A48A56",
"1. c #B89B59",
"2. c #938467",
"3. c #8E8877",
"4. c #958A75",
"5. c #948B7B",
"6. c #A28F69",
"7. c #AC9566",
"8. c #B6877A",
"9. c #A79778",
"0. c #B9A36C",
"q. c #C68E4F",
"w. c #C3A45F",
"e. c #C28E7A",
"r. c #C9937B",
"t. c #C1A666",
"y. c #CCB577",
"u. c #DFC27B",
"i. c #E3C67E",
"p. c #8C8B8B",
"a. c #9B9283",
"s. c #98948C",
"d. c #9C9993",
"f. c #9A9B9B",
"g. c #BE8D80",
"h. c #A89E83",
"j. c #A59C8B",
"k. c #B89987",
"l. c #A29C92",
"z. c #B7AA89",
"x. c #A8A49B",
"c. c #B4AC98",
"v. c #BBB49A",
"b. c #BDB49C",
"n. c #9C9EA2",
"m. c #9CA0A8",
"M. c #A4A4A3",
"N. c #ADAAA5",
"B. c #AAABAB",
"V. c #AEAEAE",
"C. c #BCB5A8",
"Z. c #B4B4B4",
"A. c #B6B7B9",
"S. c #BABBBB",
"D. c #CF9788",
"F. c #D69E93",
"G. c #C2B59C",
"H. c #E5A89C",
"J. c #C0BFBD",
"K. c #EAADA7",
"L. c #EFB0AB",
"P. c #F1B2A7",
"I. c #FAB6A7",
"U. c #FBB7A9",
"Y. c #FEBAAC",
"T. c #FFBDB1",
"R. c #DDC683",
"E. c #E1CC8B",
"W. c #EED48B",
"Q. c #F7D98E",
"!. c #EDD591",
"~. c #FBDD92",
"^. c #FEE294",
"/. c #FFE69B",
"(. c #D1C7AA",
"). c #DDD2B2",
"_. c #FFC2BA",
"`. c #E4DAB8",
"'. c #E9E1BD",
"]. c #B7BAC0",
"[. c #BBBEC2",
"{. c #BFC3CA",
"}. c #C2C3C5",
"|. c #C8C7C4",
" X c #C3C5CB",
".X c #C7C9CD",
"XX c #CACACB",
"oX c #C4C9D4",
"OX c #CBCDD3",
"+X c #CED1D5",
"@X c #CED2DA",
"#X c #D6D6D6",
"$X c #D8D7D6",
"%X c #D9D8D7",
"&X c #D3D5DA",
"*X c #D6D9DD",
"=X c #D9D9D9",
"-X c #E0DFDD",
";X c #F1ECC9",
":X c #E1E0DF",
">X c #FFF7D3",
",X c #FFFBD4",
"<X c #D7DBE3",
"1X c #DCDEE2",
"2X c #DFE0E3",
"3X c #E2E2E3",
"4X c #E6E9EE",
"5X c #E7EAF0",
/* pixels */
"=X=X=X=X=X=X=X=X=X=X=X=X=X=X=X=X=X=X=X=X=X%X=X=X1X&Xd.P 3..X=X=X*X=X=X=X=X=X=X=X=X=X=X=X=X=X=X=X=X=X",
"=X=X=X=X=X=X=X=X=X=X=X=X=X=X=X=X=X=X=X=X%X=X#X=XXX4 k [ g P =X%X%X=X%X=X%X=X*X%X%X=X%X=X=X=X=X=X=X=X",
"=X=X=X=X=X=X=X=X=X=X=X=X=X=X=X=X=X=X=X=X=X%X#X*XR h %.=.%.B .X1X*X=X%X%X%X%X#X%X$X%X*X=X#X=X=X=X=X=X",
"=X=X=X=X=X=X=X=X=X=X=X=X=X=X=X=X=X=X#X=X=X#X1XZ.D $.m k $.c A.#X=X%X%X*X#X%X:X3X3X=X%X=X=X$X=X=X=X=X",
"=X=X=X=X=X=X=X=X=X=X=X=X=X=X=X=X=X=X=X=X=X#X1X9.{ @. .i $ r |.M.A.3X%X#X=X=XA.p.n.*X=X#X=X=X=X=X*X=X",
"=X=X=X=X=X=X=X=X=X=X=X=X=X=X=X=X=X%X=X=X=X3X{.M l u u k q o T A.6 #X%X:X[.E N f 0 Y #X=X=X$X$X=X$X=X",
"=X=X=X=X=X=X=X=X=X=X=X=X=X=X=X=X#X=X=X=X=Xs.; k +.X.+. .+.m 0 <.5 x.4XM.S ' | G q.& p.3X#X-X=X=X=X=X",
"=X=X=X=X=X=X=X=X=X=X=X=X=X=X=X=X=X=X#X1X5.g e X.@.+.+. .i  .%.O.y L j.c O.F W L.T.F.5 #X=X}.+X=X$X$X",
"=X=X=X=X=X=X=X=X=X=X=X=X=X=X=X=X#X#X-X{.( ~ v +.+.+.@.} k r @.@.| t n %.G F.T.Y.U.T.a.[.|.Z 3.1X3X=X",
"=X=X=X=X=X=X=X=X=X=X=X=X=X=X=X=X%X#X2XC.^ ^ z @.+.+. .u l l  .+.| +.-.F F.T.U.U.U.Y.8.].N.g K oX5.J.",
"=X=X=X=X=X=X=X=X=X=X=X=X=X=X=X=X=X=X*XG.v  .m @.+.+.k  .k / +.+.*.+.o.U T.U.U.U.U.T.g.Z.9.h R :.s 5.",
"=X=X=X=X=X=X=X=X=X=X=X=X=X=X=XXXS.#X%Xd.N X.z @.@.b / +.l +.+.+.+.%.n D.T.U.U.U.U.U.k.n.G { F [ U .X",
"=X=X=X=X=X=X=X=X=X=X=X=X=X1X-X=XXXA.XXm.@ y / @.+.i @. .m @.+.+.+.%.z D.Y.I.Y.Y.U.U.E 3 { *.$.B B.2X",
"=X=X=X=X=X=X=X=X=X=X#X=XXXZ.A.S.#XA.2 > ` N ~ $.{ l / i / @.+.@.@.*.] 8.T.T.P.F.T.K.* ] / v @.{ z d.",
"=X=X=X=X=X=X=X=X=X#X=X=XXXZ.Z.J.}.T e :.C.T ; ) ) a # 9 c n  . .X.+.+.D e.r.I F._.W y *.x ! G Y :.Z.",
"=X=X=X=X=X=X=X=X=X=X=X=X=X-X=X=X2Xx.e 1.).O , ).).v.6.B k / / / } +.+.B H U F.T.P.: ] q q S N.<X<X1X",
"=X=X=X=X=X=X=X=X=X=X=X=X#X#X#X#X=X XA l v.(.).,X>X>XC.* ~ | o.$.$.$.^ 8._.K.Y.T.E e -.n Y @X=X%X=X#X",
"=X=X=X=X=X=X=X=X=X=X#X=X=X=X=X=X%X:XZ.a 7.v.< v.(.2.. o C f z ^ / O.- K.8.M 8.D.% z d :  X-X%X%X#X=X",
"=X=X=X=X=X=X=X=X=X=X=X=X=X=X=X=X%X#X2Xx.J ,XT       X (.`.;.^ | / w W _.>.' x m +.+.t M.3X%X=X=X=X=X",
"=X=X=X=X=X=X=X=X=X=X=X=X=X=X=X#X=X%X%X3Xf.v.'.X + 7 Q '.,X1...%. .* 8.H.I ] %.+.m 0 1 OX=X*X=X=X%X=X",
"=X=X=X=X=X=X=X=X=X=X=X=X=X=X=X=X%X=X#X%X3XB.C.z.7 8 b.;X9.} $.~ $ ^ ) c & | +.+.*.X.y E =X=X%X#X=X=X",
"=X=X=X=X=X=X=X=X=X=X=X=X=X=X=X=X#X=X=X=X=X#XN.`.c.J _ M % e r # i ^ k l X.+.+.+.%. .' - [.-X#X%X=X=X",
"=X=X=X=X=X=X=X=X=X=X=X=X=X=X=X=X=X=X#X=X%X=X#X4 _ o.o.@.#.X.| +. ./ | +.#.#.$.O.z 9.a.N.=X=X*X=X=X=X",
"#X=X=X=X=X=X#X=X=X=X=X=X=X=X=X=X=X=X=X=X#X1XZ.a o.+.+.+.+.@.@.+.+.$.$.+.%.{ F K l.<X1X1X=X#X=X%X=X=X",
"=X=X=X#X=X=X#X=X=X=X=X=X=X=X=X=X#X%X%X%X%X*X:.o.+.+.+.+.+.+.@.+.+.#.$.-.! J ].@X:X=X=X#X#X=X=X=X=X=X",
"1X=X=X=X=X%X%X#X=X#X#X=X=X=X=X=X=X=X#X#X2Xj./ #.+.+.@.@.@.@.o.+.o.~ ~ r 3 {.:X%X#X%X=X#X=X*X=X=X=X=X",
"[.|.#X&X*X<X<X1X%X=X=X=X=X=X#X=X=X#X%X*Xs./ &.$.+.+.| ^ c C V V > 2.3.B.*X-X#X%X#X=X%X=X=X=X=X=X=X=X",
"Z.3 A >.,.>.9.(.1X=X%X=X#X=X=X#X=X2X{.2.| / w ^ #.+.o.F u.R.R.u.x.2X2X2X#X#X%X%X=X=X=X=X=X=X=X=X=X=X",
"1X#XC.x.j.9.G D h.=X=X%X=X=X&X2X+Xs.V { i % j & r $.[ ,.~.Q./.i.l.2X#X#X%X=X=X=X#X=X=X=X=X=X=X=X=X=X",
"#X=X3X3X3X1X&X9.e 2.&X=X#X#X-XZ.> / O.a i #.%.$.& { ) u.^.!.^.y.N.:X#X#X%X*X=X=X=X=X=X=X=X=X=X=X=X=X",
"%X%X%X#X%X%X=X<X9.e 3.@X=X=X{.> ' $.$ u %.+.X.$.i i w.^.Q.Q.~.0. X=X=X=X=X=X=X=X=X=X=X=X=X=X=X=X=X=X",
"#X%X=X%X%X=X=X=XOXJ d 2.OX5Xa.z -./ l $.+.#.+.%.k ;.~.Q.~.~.W.a.*X=X%X#X=X=X=X=X=X=X=X=X=X=X=X=X=X=X",
"*X%X*X%X%X%X=X%X:XA.M [ >.j.: { *. .+.+.+.+.+.@.x R.^.~.E./.y.d.-X#X=X#X=X=X=X=X=X=X=X=X=X=X=X=X=X=X",
"%X%X%X%X%X%X*X=X%X1Xl.M h g # X.@.+.+. . .@.+.@.V E.!.1._ ;.2.{.=X=X=X=X=X=X=X=X=X=X=X=X=X=X=X=X=X=X",
"*X%X*X%X*X=X*X%X%X%X1X[.3.L - X.+.+.@.m | @. .z p q.C # / 0 p.4X#X=X%X=X=X=X=X=X=X=X=X=X=X=X=X=X=X=X",
"=X=X%X=X%X%X%X%X#X=X1X.X*X<XP { @.+.+.i | @.|  .O.O.$.*.w = OX=X=X#X%X=X=X=X=X=X=X=X=X=X=X=X=X=X=X=X",
"=X%X%X%X%X*X%X%X1X<X5.B 2 &X4.] @.@.+.y X.@.+.[ a ^ / ~ - m.:X#X=X%X=X=X=X=X=X=X=X=X=X=X=X=X=X=X=X=X",
"%X%X%X%X=X=X=X1X[.K h %.h 2.f.m $.+. .y ..} _ w.R.y.= 6 J.-X%X=X=X=X=X=X=X=X=X=X=X=X=X=X=X=X=X=X=X=X",
"=X*X=X-X&X.X Xh.G ' =.+.$.{ > - +.+.+.9 ( u./.~.u.z.A.:X:X#X=X=X#X=X=X=X=X=X=X=X=X=X=X=X=X=X=X=X#X=X",
"=X%X=X+XH - B  .%.-.{ X.+.@.z q | +.$.i > t.K Y m.+X-X#X%X=X=X%X=X=X=X=X=X=X=X=X=X=X=X=X=X=X=X=X=X=X",
"*X%X=X+X2 0 O.b g l Z F %.+.c  .+.+.+.*.X.s Y OX3X=X#X#X=X&X%X%X=X=X=X=X=X=X=X=X=X=X=X=X=X=X=X*X=X#X",
"=X=X%X-XOX3 K l.a.d.{.K ..+.X.+.+.+.+.%.n h.1X=X$X=X=X=X=X=X=X=X=X=X=X=X=X=X=X=X=X=X=X=X=X=X=X=X=X=X",
"=X=X=X#X=X&X@X3X3X:X4Xd.n $.+.+.X.*.%.c a.<X=X$X=X#X=X=X=X=X=X=X=X=X=X=X=X=X=X=X=X=X=X=X=X=X=X#X=X=X",
"=X%X%X=X=X=X=X$X%X#X=XXXS O.=.$.%...t l.<X$X$X=X$X=X=X=X=X=X=X=X=X=X=X=X=X=X=X=X=X=X=X=X=X=X=X=X=X=X",
"=X#X=X%X=X%X%X=X%X%X%X:Xx.N n n x J V.3X=X#X=X=X=X=X=X=X=X=X=X=X=X=X=X=X=X=X=X=X=X=X=X=X=X=X=X=X*X=X",
"=X=X=X%X=X%X%X*X*X%X%X%X1XV.3.5.M.&X3X#X%X=X=X=X=X=X=X=X=X=X=X=X=X=X=X=X=X=X=X=X=X=X=X=X=X=X=X=X=X=X",
"=X=X=X=X=X=X=X*X%X%X=X=X=X=X3X1X3X=X#X=X%X%X#X=X=X=X=X=X=X=X=X=X=X=X=X=X=X=X=X=X=X=X=X=X=X=X=X=X=X=X",
"=X=X=X=X=X=X=X%X*X%X*X=X%X#X%X#X#X=X=X=X*X#X=X=X=X=X=X=X=X=X=X=X=X=X=X=X=X=X=X=X=X=X=X=X=X=X=X=X=X=X",
"=X=X=X=X=X=X=X=X=X=X%X=X=X#X=X=X#X=X=X=X=X=X=X=X=X=X=X=X=X=X=X=X=X=X=X=X=X=X=X=X=X=X=X=X=X=X=X=X=X=X",
"=X=X=X=X=X=X=X=X=X=X*X=X=X=X=X=X=X=X=X=X=X=X=X=X=X=X=X=X=X=X=X=X=X=X=X=X=X=X=X=X=X=X=X=X=X=X=X=X=X=X"
};
