/* XPM */
static char *_647956675984[] = {
/* columns rows colors chars-per-pixel */
"50 50 211 2 ",
"   c #37270A",
".  c #3D3320",
"X  c #49330A",
"o  c #563B08",
"O  c #594318",
"+  c #68490D",
"@  c #724D09",
"#  c #74510F",
"$  c #7D560C",
"%  c #644C1C",
"&  c #6E5017",
"*  c #765619",
"=  c #56482E",
"-  c #624F2B",
";  c #695327",
":  c #775C2A",
">  c #67583A",
",  c #7E6027",
"<  c #7D6539",
"1  c #3B3E48",
"2  c #5A5854",
"3  c #675C48",
"4  c #7B5C55",
"5  c #776747",
"6  c #6C6456",
"7  c #756B55",
"8  c #7F725B",
"9  c #686261",
"0  c #756967",
"q  c #7E7667",
"w  c #777574",
"e  c #885C0B",
"r  c #855D11",
"t  c #855E15",
"y  c #8C600F",
"u  c #9B6809",
"i  c #8C6212",
"p  c #8B641B",
"a  c #8F691E",
"s  c #916613",
"d  c #976912",
"f  c #9B6C14",
"g  c #976B1B",
"h  c #9E711B",
"j  c #A46E0B",
"k  c #AA730D",
"l  c #B47B0E",
"z  c #B97E0E",
"x  c #A27114",
"c  c #AA7614",
"v  c #AD7815",
"b  c #A8771A",
"n  c #B47D15",
"m  c #BA7F11",
"M  c #B27E1A",
"N  c #876528",
"B  c #8B6A2C",
"V  c #936C25",
"C  c #997229",
"Z  c #9A742C",
"A  c #8A6E38",
"S  c #926832",
"D  c #9C7737",
"F  c #A77B25",
"G  c #A47C38",
"H  c #816D47",
"J  c #89734A",
"K  c #997A49",
"L  c #936C5C",
"P  c #887655",
"I  c #957F54",
"U  c #AC7D4C",
"Y  c #AD7E5E",
"T  c #8A7B66",
"R  c #857C6A",
"E  c #92736D",
"W  c #877A74",
"Q  c #A87B68",
"!  c #BE810F",
"~  c #B78017",
"^  c #BD8315",
"/  c #B6821F",
"(  c #BB8319",
")  c #AD802A",
"_  c #B58428",
"`  c #AA8236",
"'  c #C4850E",
"]  c #CC8B0E",
"[  c #C38612",
"{  c #C68814",
"}  c #CB8C14",
"|  c #C18719",
" . c #C58A1A",
".. c #CA8E1B",
"X. c #D18F13",
"o. c #CE901B",
"O. c #D59214",
"+. c #DB9615",
"@. c #DD9817",
"#. c #D5951C",
"$. c #D9961A",
"%. c #DC9A1D",
"&. c #E19D1C",
"*. c #E5A01D",
"=. c #C28A20",
"-. c #D59720",
";. c #DC9B21",
":. c #E19D20",
">. c #9B8459",
",. c #AB8A49",
"<. c #AD9159",
"1. c #B29251",
"2. c #8E8167",
"3. c #968668",
"4. c #8B8479",
"5. c #988B73",
"6. c #958D7D",
"7. c #9C917C",
"8. c #BB896B",
"9. c #B69A62",
"0. c #B58578",
"q. c #A59777",
"w. c #B69E71",
"e. c #BAA56D",
"r. c #C18B7F",
"t. c #C7B277",
"y. c #797D84",
"u. c #8A8885",
"i. c #978F81",
"p. c #9C9384",
"a. c #99958B",
"s. c #979797",
"d. c #9C9C9C",
"f. c #A69B86",
"g. c #A49C9A",
"h. c #B49C96",
"j. c #AAA38E",
"k. c #B5A889",
"l. c #A8A49B",
"z. c #B8AE93",
"x. c #BDB69C",
"c. c #979BA2",
"v. c #9FA3A3",
"b. c #A5A6A6",
"n. c #ACAAA5",
"m. c #A6A7A8",
"M. c #A7AAAE",
"N. c #ADADAC",
"B. c #B7B4AE",
"V. c #ACAEB1",
"C. c #ADB2B9",
"Z. c #B5B5B5",
"A. c #B3B5B9",
"S. c #B7B9BC",
"D. c #BBBCBC",
"F. c #CA9588",
"G. c #CF988C",
"H. c #E8A99C",
"J. c #C5BCA5",
"K. c #C0BDB8",
"L. c #E6ABA6",
"P. c #ECADA4",
"I. c #F5B3A5",
"U. c #F8B5A7",
"Y. c #F5B5AC",
"T. c #FAB7A9",
"R. c #FDB9AB",
"E. c #FFBEB2",
"W. c #DAC383",
"Q. c #E4CA83",
"!. c #F8D889",
"~. c #F8DB92",
"^. c #FFE295",
"/. c #FFE79B",
"(. c #C5C1BA",
"). c #D8CFB1",
"_. c #E1D7AF",
"`. c #FFC3B4",
"'. c #E2D5B7",
"]. c #B7BBC2",
"[. c #BEC1C4",
"{. c #BFC3CB",
"}. c #C3C3C4",
"|. c #C2C5CB",
" X c #C6C9CD",
".X c #CCCCCC",
"XX c #D0CFCE",
"oX c #D8D4CB",
"OX c #C5CAD2",
"+X c #CACDD2",
"@X c #CED1D5",
"#X c #CED1D8",
"$X c #D6D6D6",
"%X c #D8D7D6",
"&X c #D9D8D7",
"*X c #D2D5DB",
"=X c #D6D9DD",
"-X c #D9D9D9",
";X c #EFE5C0",
":X c #F8ECC8",
">X c #FEF1CA",
",X c #E2E1DF",
"<X c #FFFAD3",
"1X c #D1D8E4",
"2X c #DBDDE1",
"3X c #DFE1E3",
"4X c #DEE2E9",
"5X c #E1E2E2",
"6X c #E5E6E9",
"7X c #F7FFFF",
"8X c #FEFFFF",
/* pixels */
"-X-X-X-X-X-X-X-X-X-X-X-X-X&X-X-X-X-X-X&X-X&X-X&X2X%Xf.Y P a.=X-X&X&X&X&X&X&X-X&X&X-X-X-X&X&X-X-X-X-X",
"-X-X-X-X-X-X-X-X-X-X-X-X-X-X-X-X-X-X-X=X-X-X-X-X+X6 V ( ] f 3 |.,X&X-X&X&X-X&X-X2X=X-X&X-X-X&X-X&X-X",
"-X-X-X-X-X-X-X-X-X-X-X-X-X-X-X&X-X-X-X-X&X&X&X-XW Q Y.G.U ..n > |.-X&X&X-X&X2X X4.>.}.,X-X-X&X-X-X-X",
"-X-X-X-X-X-X-X-X-X-X-X-X-X-X-X-X-X-X-X-X&X&X5Xb.f.E.E.E.Y.K ..m 6 =X&X&X&X-X#XP ' ' P #X=X&X&X&X-X-X",
"-X-X&X-X-X-X-X-X-X-X-X-X-X-X-X-X-X-X=X-X&X-X-XW I.R.T.T.R.L.S &.j u.3X$X-X3Xf.^ o.#.~ l.3X*X&X-X-X-X",
"-X-X-X-X-X-X-X-X-X-X-X-X-X-X-X-X-X-X&X-X%X5Xm.E E.T.R.R.T.E.F.b *.B D.4X-Xb.% $ h o.X.>.*X&X&X-X&X-X",
"-X-X-X-X-X-X-X-X-X-X-X-X-X-X-X-X-X-X-X&X&X3Xu.G.E.T.R.T.T.T.Y.G +.{ T j.H   o x o. .+.` @X-X-X-X&X&X",
"-X-X-X-X-X-X-X-X-X-X-X-X-X-X-X-X-X-X%X%X-X%XW H.R.R.R.R.T.T.E.Y [ &.x x n s s X   # $ % d.@X-X-X-X=X",
"&X-X-X-X-X-X-X-X-X-X-X-X-X-X-X-X-X-X&X&X-X XE I.R.R.R.T.R.T.`.0.~ %.#.o.%.%.#.o.f y } Z s.d.}.=X&X&X",
"-X-X-X-X-X-X-X-X-X-X-X-X-X-X-X-X-X=X&X&X,X{.E T.R.T.R.R.T.T.R.0.v %.#.#.#.#.#.#.s + $ J 3X&X.X&X-X&X",
"-X-X-X-X-X-X-X-X-X-X-X-X-X-X-X-X-X-X&X&X-X[.E U.T.R.H.Y.R.U.E.0.v %.#.#.#.#.%.v v { r ; M.3X&X&X=X&X",
"-X-X-X&X-X-X-X-X-X-X-X-X-X-X-X-X-X-X-X&X3XD.E R.T.E.G.L P.E.`.Y [ #.#.#.#.#.#...%...f [ , S.,X&X-X&X",
"-X-X-X-X-X-X-X-X-X-X&X-X-X-X-X-X-X-X&X&X-X[.0 T.R.T.E.Q B r.Y b $.#.#.#.#.#.#.%.! O # c +.H @X+X$X-X",
"-X-X-X-X-X-X-X-X-X-X-X-X-X-X-X-X-X-X&X&X-X@X6 H.E.T.T.E.8.l [ #.$.$.#.#.#.#.#.[ 8 = j #.#.d 2.V.-X%X",
"-X-X-X-X-X-X-X-X-X-X-X-X-X-X&X-X&X-X=X-X&X3X0 F.E.T.R.E.8.} %.#.#.o.#.#.#.#.O.K 8XJ.' -.#.^ - {.$X-X",
"&X=X-X-X-X-X-X-X-X-X-X-X-X-X=X-X-X-X&X&X&X5Xc.4 `.T.R.Y.D O.#.#.#.(  .%.#.%.! (.8XB.~ %.( O O u.}.-X",
"-X-X-X-X-X-X-X-X-X-X-X&X-X-X-X-X-X-X&X&X-X%X-Xw F.`.R.P.B +...o.%.#.~  .( o.F [.8Xk.{ O.<.l.# N.5X%X",
"-X-X-X-X-X-X-X-X-X-X-X-X-X-X-X-X-X-X=X&X-X-X-X$Xw F.T.L.N +...m ( O.%.^ ~ ~ @ 2 8X1.+.z D.'.p ].-X%X",
"-X-X-X-X-X-X-X-X-X-X-X-X-X-X-X-X-X-X-X-X&X=X-X-X$Xg.h.h.: $.-.$.~ v  .o.( h   s.oX^ +.,.7X9.< *X-X-X",
"-X-X-X-X&X-X-X-X-X-X-X-X-X-X-X-X-X-X-X-X&X-X-X%X%X,X*X*XT ' ;.#. .C v ! O.p 6.l._ &.j s.,X* N.,X-X-X",
"-X-X-X-X-X-X-X-X-X-X-X-X-X-X-X-X-X-X-X-X-X&X&X=X&X&X%X3XN.F &.#.! k.z.` a - _.;X<.O.X y.P a.3X&X-X-X",
"-X-X&X-X-X-X-X-X-X-X-X-X-X-X&X-X-X-X-X-X-X-X&X&X&X&X&X$X%XP X.:.! W.<X;Xx.4.).<X6.: . 3 l.3X&X&X-X-X",
"-X-X=X-X-X-X-X-X=X&X-X-X-X-X-X-X-X-X-X-X-X&X=X&X&X$X&X,X6X].N ..' 9.>X>X:Xj.>X<X6 1 6 R 3X$X$X&X-X-X",
"-X-X-X-X-X-X-X-X-X-X-X-X-X-X-X-X-X-X-X-X&X&X-X%X&X3X=XV.i.>.N x ~ s q.:X:X(.z.:X(.3 a.> 2.OXD.[.$X-X",
"-X-X-X-X-X-X-X-X-X-X-X-X-X-X-X-X-X-X-X-X&X-X%X,X2Xv.5 h [ X.$.$.#.%.u z.<X:X(.w.f.x.q.r % A.%X$X$X-X",
"-X-X-X-X-X-X-X-X-X-X-X-X=X-X-X-X-X-X-X-X-X&X-X}.P f } &.-.-.#.#.#.%.X.>.'.:X<X_.9.z ' k R S.N. X-X-X",
"-X-X-X-X&X-X-X-X-X-X-X-X&X-X-X-X-X-X-X-X-X-X@X5 ! :.-.#.#.#.#.#.#.#. .~ ) 5 3 , e $ J a.+X5X$XZ.D.-X",
"-X-X-X-X-X-X-X-X-X-X-X-X=X-X-X-X-X%X&X&X&X5XM.f :.#.#.#.#.#.%.$.#.#.O.~ ^ ! 7 c.J u 4.6X5X$X-X-XS.}.",
"-X-X-X-X&X&X&X-X&X&X&X%X-X&X-X-X-X%X-X-X%X,XC.V &.#.#.#.$.#.m b  .@.) t.B o.i C R b & w N.-X-X-X-XXX",
"-X-X&X&X&X&X&X&X%X&X%X%X-X&X&X&X-X-X-X$X2X-Xm.* $.#.#.#.| s x M #.^ t.^.D c d %.> N n e a n.5X&X-X-X",
"-X&X-X-X&X-X2X2X4X2X5X2X-X%X&X&X&X&X%X2XZ.>.=.t n $.#.#.| f #.:.X.,.~.!.,.@ ( ( s # x ( } 3.-X-X-X-X",
"-X&X=X&X-X3X}.f.q.q.h.D.#X2X2X%X%X&X3Xb.C O.$.M @ #.#.o.&.n c &.) W.^.Q.C y o.| #.o.o.-.X.I *X-X-X-X",
"&X-X$X2XXX3.S Z Z a e r K q.].3X-X5XA.N +.#.d + + r ..%.#.#.i F W.~.^.1.^ h o.#.o.#.X.' C n.,X&X-X-X",
"-X%X,X X2 5.(..X.X[.n.5.N j F 5.D.1XR ' ;.} r i | s O i o.%.x e.^.^.t.; &.~ ~ #.f * >.7.Z.-X-X&X=X&X",
"&X3X}.9 d.6X2X=X-X-X5X5X{.p.D j / ,.) $.#.$.c # | o.+.{ #.*.f e./.Q.2.d./ #.( #.%.V A.6X-X&X&X&X&X&X",
"%XZ.w A.5X%X&X%X-X%X-X%X-X3X{.6.B c | o.#.#.%.v i s f c f r A ~.!.2.D.4X2.c *.#.%.[ p.3X&X&X&X&X&X-X",
"$XS.$X3X%X%X-X-X=X&X-X&X-X&X-X3XOXR f ..#.#.#.%.#.n x d x ^ ` W.3.N.,X&X*Xq g { O.j d.5X&X-X-X&X-X-X",
"-X-X-X&X&X&X&X-X-X&X&X&X-X-X-X%X5X2.} %.#.#.#.#.#.%.&.%.%.;.} : Z.6X&X&X-X3Xm.2.>.6.$X-X&X=X-X-X-X-X",
"-X&X&X-X&X&X-X-X-X-X-X-X&X-X$X,XZ.%  .#.#.#.#.#.#.#.#.#.#.#.%.} J  X2X&X-X&X,X2X*X-X-X-X&X&X-X-X-X-X",
"-X&X&X=X&X&X-X-X-X-X&X&X-X&X-X@X5 ! ..%.#.#.#.#.#.#.#.#.#.#.#.;.[ H  X-X&X&X$X&X-X&X-X=X&X&X-X-X-X-X",
"-X-X-X-X-X-X&X&X&X&X-X&X&X%X2Xl.M %.#.#.#.#.#.$.+.$.#.#.#.#.#.#.%.' T 2X&X&X&X-X&X&X&X&X=X-X-X-X-X-X",
"-X-X-X-X-X-X=X&X=X&X-X-X%X-X=X>.X.#.#.#.%.%.~ p A _ { +.%.#.#.#.#.%.p S.,X%X&X-X=X&X&X&X-X-X-X-X-X-X",
"-X-X-X-X-X-X&X-X-X-X-X5X3X-X{.D $.#.#.;.} V 5.Z. XD.f.` [ %.#.#.#.%.b d.5X%X-X-X&X-X-X&X-X-X-X-X-X-X",
"-X-X-X-X-X-X-X&X&X=XK.f.2.P 3 x %.#.$.^ J A.3X2X,X-X2X+X7.F $.#.#.%.( g.2X%X=X-X-X-X-X-X&X-X-X-X-X-X",
"-X-X-X-X-X-X&X$X3Xd.* l ' O.l | %.$.M p.#X3X%X%X-X&X&X-X5XM.V $.#.;.^ P w.<.<.5.}.-X%X=X-X&X=X-X-X-X",
"-X-X-X-X-X-X%X3XN.b %.:.;.#.o.#.$._ N.2X-X&X&X&X&X&X&X-X$X5XW l ;.#.( c +.O...e 3 @X-X&X&X&X-X-X-X-X",
"-X&X-X-X-X-X-X-XZ.B k { $.@.%.&.z 6.5X$X-X-X&X&X-X=X&X-X-X,XN.g %.#.o...#.-. .| c R 2X%X&X%X-X-X-X-X",
"-X-X-X-X-X-X-X-X=X{.u.7 < , B B R +X-X&X-X-X&X-X-X&X&X&X-X-X{.Z &.-.%.-.;.%.%.X.r a.3X%X&X-X-X-X-X-X",
"-X-X-X&X-X&X&X=X&X-X6X=X+X].[.OX2X-X-X-X$X$X-X-X-X-X-X-X$X-X-X5.f [ [ ^ ^ b C 5 d.2X%X&X&X-X-X-X-X-X",
"-X-X-X-X-X-X%X-X-X&X$X-X-X,X,X-X-X-X-X%X-X-X-X-X-X-X-X-X-X-X-X*Xb.f.7.5.p.l.].=X5X%X*X&X&X&X-X=X-X-X"
};
