/* XPM */
static char *_66313fc70214ab1dfc422b8838b4afeqVQxxHBkl7dFUdaO[] = {
/* columns rows colors chars-per-pixel */
"50 50 220 2 ",
"   c #1E1517",
".  c #2D0D04",
"X  c #270F0F",
"o  c #290E0A",
"O  c #360F05",
"+  c #390F03",
"@  c #28110B",
"#  c #2E110B",
"$  c #331205",
"%  c #3B1303",
"&  c #361906",
"*  c #3B1B05",
"=  c #33130A",
"-  c #351B0B",
";  c #3C1D0A",
":  c #271716",
">  c #3B1E13",
",  c #3E200B",
"<  c #2F2117",
"1  c #372314",
"2  c #2B2B2C",
"3  c #34292A",
"4  c #32302E",
"5  c #343333",
"6  c #353637",
"7  c #421806",
"8  c #421E0A",
"9  c #4A1D0C",
"0  c #541400",
"q  c #561D07",
"w  c #611E02",
"e  c #452107",
"r  c #44220B",
"t  c #4B260D",
"y  c #4E290E",
"u  c #59250B",
"i  c #532B0E",
"p  c #592E0E",
"a  c #57300F",
"s  c #452512",
"d  c #4D2B12",
"f  c #492916",
"g  c #542D11",
"h  c #592F10",
"j  c #562F1D",
"k  c #4C3019",
"l  c #573013",
"z  c #5C3212",
"x  c #54351C",
"c  c #5A3519",
"v  c #5A3A1D",
"b  c #6A280C",
"n  c #732403",
"m  c #7E2700",
"M  c #7C2C02",
"N  c #60300F",
"B  c #79340B",
"V  c #612F17",
"C  c #623513",
"Z  c #663915",
"A  c #6B3B16",
"S  c #6C371B",
"D  c #653C1A",
"F  c #6B3F1A",
"G  c #763A17",
"H  c #703E15",
"J  c #7A3F1B",
"K  c #4E3723",
"L  c #553A22",
"P  c #593A26",
"I  c #463B39",
"U  c #633B23",
"Y  c #65401F",
"T  c #6D411C",
"R  c #724016",
"E  c #72441D",
"W  c #75481E",
"Q  c #79491F",
"!  c #5F4024",
"~  c #59453A",
"^  c #654122",
"/  c #6C4523",
"(  c #6D4529",
")  c #734522",
"_  c #7B4423",
"`  c #744923",
"'  c #7C4D23",
"]  c #694B38",
"[  c #7D5233",
"{  c #75523D",
"}  c #3C454C",
"|  c #3D4750",
" . c #444345",
".. c #5D4C42",
"X. c #59534D",
"o. c #4C5458",
"O. c #575757",
"+. c #735C4C",
"@. c #625853",
"#. c #665E59",
"$. c #78604D",
"%. c #6E6159",
"&. c #726358",
"*. c #4D5A63",
"=. c #5C6367",
"-. c #5D666C",
";. c #5B6972",
":. c #636363",
">. c #63696C",
",. c #6B6A6A",
"<. c #6E6D6D",
"1. c #796C63",
"2. c #716A69",
"3. c #6D7274",
"4. c #747473",
"5. c #812400",
"6. c #832B00",
"7. c #892D00",
"8. c #8B3401",
"9. c #863808",
"0. c #943B06",
"q. c #A13A00",
"w. c #AE3D00",
"e. c #9D480B",
"r. c #864219",
"t. c #984D18",
"y. c #AC4401",
"u. c #AE4A04",
"i. c #A54808",
"p. c #B24500",
"a. c #B34A01",
"s. c #BC4A00",
"d. c #B14F0A",
"f. c #B3560B",
"g. c #AF5813",
"h. c #AC5A19",
"j. c #B36317",
"k. c #804522",
"l. c #924E22",
"z. c #825125",
"x. c #87512B",
"c. c #945228",
"v. c #855434",
"b. c #A85D25",
"n. c #B35C21",
"m. c #92613E",
"M. c #A96829",
"N. c #B36228",
"B. c #A36637",
"V. c #B56E3C",
"C. c #B87639",
"Z. c #C04A00",
"A. c #C46B00",
"S. c #84624C",
"D. c #9F6947",
"F. c #987157",
"G. c #A16A4A",
"H. c #B07853",
"J. c #84756C",
"K. c #907667",
"L. c #847D78",
"P. c #BD853E",
"I. c #CB8229",
"U. c #B88558",
"Y. c #87827F",
"T. c #B4896F",
"R. c #AD8B76",
"E. c #C18A45",
"W. c #C28557",
"Q. c #C39259",
"!. c #C49576",
"~. c #8A8889",
"^. c #988F89",
"/. c #8D959B",
"(. c #959493",
"). c #9A9795",
"_. c #96999D",
"`. c #9B9B9D",
"'. c #AB9588",
"]. c #B89986",
"[. c #A39A93",
"{. c #ADA19B",
"}. c #B9A697",
"|. c #959CA0",
" X c #9B9EA2",
".X c #9AA2A8",
"XX c #A2A4A4",
"oX c #AAA8A7",
"OX c #ABACAB",
"+X c #B0AFAF",
"@X c #BEB0A5",
"#X c #B2B2B3",
"$X c #B6B7B8",
"%X c #B7B9BA",
"&X c #BABBBB",
"*X c #C6A998",
"=X c #CAB5A8",
"-X c #C8B7AE",
";X c #CDC3BD",
":X c #D4C7BF",
">X c #B3BBC0",
",X c #BDC0C1",
"<X c #C4C7C9",
"1X c #CCCBCA",
"2X c #D6CCC5",
"3X c #D4CDCB",
"4X c #D5D1CE",
"5X c #D8D1CD",
"6X c #D6D5D5",
"7X c #D8D7D6",
"8X c #D8D8D7",
"9X c #D4D7D8",
"0X c #D7D8D8",
"qX c #D9D9D9",
"wX c #E0E0DF",
"eX c #DCDFE1",
"rX c #DDE1E4",
"tX c #DFE5E8",
"yX c #E0E1E2",
"uX c #E2E8EB",
/* pixels */
"qXqXqXqXqXqXqXqXqXqXqXqXqX7XqXqX7XqXqXqX7XqXqXqXqXyXeXqX0XqX0X0XqXqX0XqX0XqXqXqXqXqXqXqXqXqXqXqXqXqX",
"qXqXqXqXqXqXqXqXqXqXqXqX7XqXqX7X7X6X9XqXrX3X6XqX4X*X*XeXeX6XeXqX9XqX0XqX0X0XqXqXqXqXqXqXqXqXqXqXqXqX",
"qXqXqXqXqXqXqXqXqXqX7X7XqXqXqX7XeXeXeX4XW.d.G./.&.5.9./.R.N.!.eXrXeX0X0XqX0XqX0XqXqXqXqXqXqXqXqXqXqX",
"qXqXqXqXqXqXqXqXqXqX7X7XqX7XqXeX=X].XX4.0.p.t.>.+.7.J >.v.w.i.~.-X-X7X0X0XqXqXqX7XqXqXqXqXqXqXqXqX7X",
"qXqXqXqXqXqXqXqXqXqXqXqXqXqX7XG.6.G >.>.t.s.e.o.P m S *.v.Z.t.-.&.y.H.0XeX0X0XqXqX7XqXqXqXqXqXqXqXqX",
"qXqXqXqXqXqXqXqXqXqX7XqXeX<X~.S 7.8...| j w 8   : o :   f M U *.l.s.l./.-X6XeX9XqXqXqXqXqXqXqXqXqXqX",
"qXqXqXqXqXqX8X8XqXqXwX7XU.&.;.@.B q # X o = 8 9 s s u 9 = X X : b 0.#.:.B G.4X0X7XqX0X7XqXqXqXqXqXqX",
"qXqXqXqXqXqX8XqXqXqX5XC.w.t.X.5 X o ; i i Z G A Z h F H h t i - o : 5 J 8.M {.uXqX7XqXqXqXqXqXqXqXqX",
"qXqXqXqXqX0X0XqX7XyXoXk.d.p.9 o 8 g l l y C A A C h A A h d z l t t o 7 B @.3.'.6XqX7XqXqXqXqXqXqXqX",
"qXqXqXqX0X0XqX7XwX<X4.=.~ q O A C d l l y C A H Z h A A h d g h t Z S = <  ._ 5.G.0XqXqX0X0XqXqXqXqX",
"qXqXqXqXqXqX7XeX;XS.@.O.2 # H A z i l l t z F A C h A C p d g l t l H C # 7 7.7.9.3XqXqXqX0XqXqXqXqX",
"qXqXqXqX0X0X7XeXG.5.9.C . N A A C y h g t z A A C h H C h d g l t z A C t o w _ ,.>XyX0X0XqXqXqXqXqX",
"qXqXqXqX8X7XqX:Xr.9.7.0 = Z A Z C i g h t h A Z C z H C h d g g t z A Z g ; X O.#.m.W.6XqXqXqXqXqXqX",
"qXqXqXqXqX8XqX1X3.@.P O 8 C A A C i g g s h Z Z C C A C h y d h t z Z C i r o 9.d.p.y.:XqX0X0XqXqXqX",
"qXqXqXqXqX7XqX&X<.:.5 # y z A Z C g g l t h A Z z C A Z h d h g t h Z A h 9 $ 7.p.y.u.=XeX0XqXqXwXqX",
"qXqXqXqX8X7XyXOX:.O.3 = i z A A C h l l y h Z A z C A A h d l g t C A C g r & n l.[ '.7X0X8XqXqX7X7X",
"qXqXqXqX0X0X9XV.i.t.t & y C A A C d h g y C C Z z C A Z p y l h y z A A h r $ 3 -.-._.yX0X8XqXqXqXqX",
"qXqXqXqX0X0X9XN.y.p.0 ; y z A A C h g l y C Z R z C A A i i l g y z A A l e $ 9 E J _ *XeX7X8XqXqXqX",
"qXqXqXqX0X0XqX'.+...# ; y i A A h i l g e i Z A i a A A e t g g r i A C y 8 - 0 8.8.5.T.uX6X0XqXqXqX",
"qXqXqXqX0X0XyX.X;.| , z T D E W T T W ) Y T E W Z y T Q c g T T T T E T F F g u 9.6.M ].rX0XqXqXqXqX",
"qXqXqXqXqXqX2XG.[ U i k E Q W ^ ' W D Y Q ' T / Y a T ^ W W Y / z.W v W z.` l k ..@.2.1X8X8X8XqXqXqX",
"qXqXqXqX0XrX*Xw.s.w.u k T Q / ^ ' ' ^ Y ' z.Y Y C y ^ ^ ' ' ^ ` z.' ! ' ' L g k X.1.J.2XqX8X8XqXqXqX",
"qXqXqXqX7XqX2XF.[ ( 9 t t t y i i l z C Z c C a r e C R c z Z F T C Z c c z d u i.d.y.*XrX0X0XqXqXqX",
"qXqXqX0XqX7XuX>X-.| @ & * 8 t y e * , , * r i i r * * , & & e , * * e e * * - q y.y.y.=XrX0X8X8XqXqX",
"qXqXqX7XqXqX5XK.{ U O t t h F H z g l l y Z A A p t 4 4 - i l l t N F C t t 8 = ] $.$.1XqX8XqXqXqXqX",
"qXqXqXqX7XwX-X7.8.6.+ t t z A A p g l g t Z A A a d 6 2 < y l l t C A C p y r #  .<.4.1XqXqX8XqXqXqX",
"qXqXqXqX7XeX3Xc.B B % s t h Z A z y l g y C A Z p s 5 4 < y g d t C A Z i t 9 % B 9.m T.tX0X8XqXqXqX",
"qXqXqXqXqX7XyX#X:. .= e t h A A z y g i t C A Z i y 5 2 < y g d t C A Z i t r + m 9.m T.tX0XqXqXqXqX",
"qXqXqXqXqX7XeX$X,. .= t t i A A z i g g t z Z Z i y 6 5 < y i d t C Z Z g t r + m 8.m R.uX8XqXqXqXqX",
"qXqXqXqX7XqX5XG.i.0.% s t i Z A N y g g y C A Z y i c k g y g g t C F Z i t t # P ] +.;XqX8XqXqXqXqX",
"qXqXqXqXqXqX7Xn.p.q.% r t y Z A z y d l y C A Z i i R R z y l l t C A A i t e = } >.4.0XqXqXqXqXqXqX",
"qXqXqXqXqXqX7XN.p.q.% r t i A A z d g l y N A Z i t A T C d l g y C H A g t t # I &.J.6XqX8XqXqX8XqX",
"qXqXqXqX6XqXqX].$.P = e y y Z H z y h z y z A A i t A H C y l a y z H A g t t O 0.u.u.=XrXqXqXqXqXqX",
"7XqXqXqXqXqXeX@XS.] % 1 t g C c z y f f y z c C i i Z c C y f k y z C Z g t , $ q.a.a.-XqXqXqXqXqXqX",
"qXqXqX7XqXqX4Xn.a.y.7 1 t i C x l y d f y h x Z p t C x z i f d y z c c i t 1 $ U [ F.4XqX0X8XqXqXqX",
"qXqXqXqXqXqX4Xd.s.w.+ 9 y g C H z y g l y h A A p t A A z d z l y h A A i t e . } -./.eX0XqXqXqXqXqX",
"qXqXqX7XqXqX7XH.x._ $ r t i C A z y g l i p A A z t C A N i g g g i A A g t , $ V _ x.=XeX7XqXqXqXqX",
"qXqXqXqXqX7XwX%Xo.| # 8 t i C A z y g h i i A Z z t C A C y d g g i Z A i t , $ n 8.5.].yX0X0XqXqXqX",
"qXqXqXqXqX7XwX'.( P = ; t i C A C y h l d h A A N t A A z y y g y i C A i t ; $ n 9.8.-XeX0X0XqXqXqX",
"qXqXqXqXqXqXwXD.6.9.% ; t i A H C y g l i z A A z t A A N y g g d i A A i t , . I ..L.wX0X0XqXqXqXqX",
"qXqXqXqX7X0XeXG.5.6.+ 9 y i A A A i a l g C A A h t A A C t d g y i A A i y r . O.3.|.eX7X7XqXqXqXqX",
"qXqXqXqX0X0XeX}.F.K.> * ; 8 z Z z y y l y i A Z i t A A C t g g d t A A i y t = ~.oX#X1XqX7XqXqXqXqX",
"qXqXqXqX0XqX8X,X#X XK D E U F F D z z c l c D A C t C A C r d y y t C z t r r $ Y.XX#X9XqX7XqXqXqXqX",
"qXqXqXqX0XqX8X%XoX(.P V / z.' ' z.' Y Q Q ' ' ^ F z ` T E T ` ` ' ' ` ` ) T ) h L.XX+X4XqXqX7XqXqXqX",
"qXqXqXqX8XqXqX&XOX(.P D L ' ^ L ' ' L / z.T Y x c C / L ' ' ' K ' z.' L ' ' L c Y.XX+X4XqX7XqXqXqXqX",
"qXqXqX8XqXqX8X,X+X(.P A T F F T T T E E c e 8 e * p T T E E W E T l z d z h s , 4.OX#X4XeX7XqXqXqXqX",
"qXqXqXqXqX8XqX%X.X(.- . * * % % e % & * % r s f s , r t f x L x 1 ; r r ; - > % L.[.[.2XeX6X7XqXqXqX",
"qXqXqXqXqXqX4X X(.(.2.%.%.&.&.1.1.1.4.Y.~.^.(.(.).(.(.(._. X`. X`.`.`.`. X`.M.A.M.h.d.H.qXqXqXqXqXqX",
"qXqXqXqX7XqX1X#X#X#X&X&X%X#X%X%X&X&X%X$X$X#X#X$X#X#X&X%X}.}.{.].C.I.E.U.Q.P.M.M.M.b.M.Q.qX0X0X0XqXqX",
"qXqXqX7XqXqX<X(.~.^..XOXOX#X+X#X#XOX#X+X#X+X#X#X+X#X+X[.M.B.B.M.M.M.j.f.j.j.j.g.h.M.g.W.eX8X0X0XqXqX"
};
