/* XPM */
static char *_38a5c243d0e4d26bc91679d1bec10edDrKk9uOLTTLyLkYy[] = {
/* columns rows colors chars-per-pixel */
"50 50 193 2 ",
"   c #2B2526",
".  c #343536",
"X  c #561100",
"o  c #56220C",
"O  c #4D2C1B",
"+  c #552715",
"@  c #6A2300",
"#  c #7F2400",
"$  c #782D03",
"%  c #7A340A",
"&  c #6D2F18",
"*  c #773813",
"=  c #753918",
"-  c #462F2D",
";  c #6C3B24",
":  c #59463A",
">  c #69422B",
",  c #784222",
"<  c #7D4C2B",
"1  c #664734",
"2  c #744B31",
"3  c #7A5235",
"4  c #464443",
"5  c #4B4C4C",
"6  c #574D46",
"7  c #444E54",
"8  c #4F4F51",
"9  c #465158",
"0  c #575858",
"q  c #624C40",
"w  c #685548",
"e  c #755C48",
"r  c #635A55",
"t  c #675D57",
"y  c #7F604B",
"u  c #6E6058",
"i  c #736357",
"p  c #77685F",
"a  c #4A5760",
"s  c #5A5F62",
"d  c #5D666C",
"f  c #5F686F",
"g  c #586670",
"h  c #626262",
"j  c #646769",
"k  c #676869",
"l  c #6B6B6B",
"z  c #736362",
"x  c #776D67",
"c  c #626A70",
"v  c #6C7275",
"b  c #727273",
"n  c #787676",
"m  c #822600",
"M  c #842D00",
"N  c #892D00",
"B  c #802F08",
"V  c #853503",
"C  c #8A3300",
"Z  c #863609",
"A  c #8A3809",
"S  c #8A3B0C",
"D  c #943906",
"F  c #813D15",
"G  c #AF3D00",
"H  c #B53E00",
"J  c #89400D",
"K  c #9F4B0D",
"L  c #8A4316",
"P  c #924712",
"I  c #9E4813",
"U  c #A34705",
"Y  c #AD4400",
"T  c #AD4A04",
"R  c #AA460A",
"E  c #B24500",
"W  c #B34901",
"Q  c #BE4B00",
"!  c #B24E0A",
"~  c #AF550E",
"^  c #B3540A",
"/  c #A14F13",
"(  c #A85218",
")  c #AC5C1A",
"_  c #B05619",
"`  c #B36317",
"'  c #824A24",
"]  c #86512D",
"[  c #834D35",
"{  c #865434",
"}  c #965837",
"|  c #B45D22",
" . c #92613E",
".. c #A96829",
"X. c #B06221",
"o. c #B5622A",
"O. c #A26337",
"+. c #B76D3A",
"@. c #B17439",
"#. c #855D48",
"$. c #9F6948",
"%. c #826857",
"&. c #977056",
"*. c #A26B4B",
"=. c #B46F40",
"-. c #B37F5B",
";. c #826D62",
":. c #857367",
">. c #9B7A67",
",. c #847B74",
"<. c #8B7F77",
"1. c #BE853E",
"2. c #CC8329",
"3. c #B98558",
"4. c #8F827D",
"5. c #AE846D",
"6. c #BD8660",
"7. c #B08771",
"8. c #B4917D",
"9. c #C3925A",
"0. c #C49576",
"q. c #767F85",
"w. c #8C7E80",
"e. c #8A8583",
"r. c #8F8A87",
"t. c #858889",
"y. c #8D8D8C",
"u. c #918885",
"i. c #918E8D",
"p. c #968F92",
"a. c #8E959A",
"s. c #959393",
"d. c #9D9593",
"f. c #96979A",
"g. c #9A9B9C",
"h. c #AC9588",
"j. c #B89987",
"k. c #A59B94",
"l. c #AA9D95",
"z. c #A79E99",
"x. c #ABA29D",
"c. c #B8A394",
"v. c #BAAB9C",
"b. c #8F99A0",
"n. c #959CA0",
"m. c #9B9EA0",
"M. c #9BA4AB",
"N. c #A2A3A4",
"B. c #ADA7A3",
"V. c #AEA9A6",
"C. c #A7A9AB",
"Z. c #ACABAC",
"A. c #B2A6A1",
"S. c #B1AAA5",
"D. c #B3ADAA",
"F. c #BBAEA9",
"G. c #BFB0A6",
"H. c #B1B0AE",
"J. c #ACB5BA",
"K. c #B2B2B2",
"L. c #B6B7B8",
"P. c #B7B9BA",
"I. c #BABBBC",
"U. c #C6A998",
"Y. c #C4AEA3",
"T. c #CDB3A3",
"R. c #C5B6AE",
"E. c #C8BCB7",
"W. c #D0BEB2",
"Q. c #CDC3BD",
"!. c #D4C7BF",
"~. c #B4BCC1",
"^. c #BEC1C2",
"/. c #C6C6C7",
"(. c #CDCCCB",
"). c #D6CCC5",
"_. c #D2CDCB",
"`. c #D4D0CE",
"'. c #D8D1CD",
"]. c #D6D6D5",
"[. c #D8D7D6",
"{. c #D8D8D7",
"}. c #D4D7D8",
"|. c #D7D8D9",
" X c #D9D9D9",
".X c #E0DEDE",
"XX c #E0E0DF",
"oX c #DCDFE1",
"OX c #DEE1E2",
"+X c #DEE5E8",
"@X c #E2E3E4",
"#X c #E3E7E9",
"$X c #E5E9EB",
/* pixels */
" X X X X X X X X X X X X X[. X X[. X X|.|.oX X{. XOXoX{.[.{.[.{. X X{. X{. X X X X X X X X X X X X X",
" X X X X X X X X X X X X[.|.[.|.[.[.[. XoX)._.oX_.U.Y. XoX[.oX X X X{. X{.{. X X X X X X X X X X X X",
" X X X X X X X X X X[.|. X X|.[..X@XoX`.6.! $.b.%.M F a.h.o.0.oX.X X X X X{. X X X X X X X X X X X X",
" X X X X X X X X X|. X X|.[. XoXY.l.N.n U W P s 1 m * c [ H U y.~.W.{. X{.{. X{. X{. X X{. X X X X X",
" X X X X X X X X{. X X X[..X].*.N * j s P E ( v ;.} #.s ] H P j i E =. XoX{.{. X{. X X X X X X X X X",
" X X X X X X X X X X[. XoX/.t.= C m : j h.T._.]. XoX X(.G.8.#.7 L Q ] f.E.].oX{. X{. X X X X X X X X",
" X X X X X X{.{. X{.oX[.3.i c 0 @ [ A.].oXoXoX X X X{. XoX+X|.C.#.C r h % O.`. X{.{.{.{. X X X X X X",
" X X X X X X{.{. X X'.+.G / 6 . e. X@X X`.].].{. X{.{.{.].{.{.@X Xu.. & D % z.$X X|. X X X X X X X X",
" X X X X X{. X{.|.OXV.' ^ G + N.#X X].[.{. X{. X X X X{. X X{.[. X#XN.+ $ r v h.`.oX[. X X X X X X X",
" X X X X X{. X|.oX/.b d : o Z.$X]. X X X X X X X X X X X X{. X X[.].#XD.  4 , # *.}. X X}. X X X X X",
" X X X X{. X{.oX!.#.r 8   p.#X].[. X[. X X X X X X X X X X X X{. X X].#Xf.X B C J (. X X X X[. X{. X",
" X X X X{.{.{.oX*.m S o z @X].{.|.[. X X X X X X X X X X X X X X{.{.[.].#Xz X , l J.OX X[. X X X X X",
" X X X X{.{.oXE.L Z N & (. X{. X[. X X X X X X X X X X X X X X X X{. X]. X_.- 8 i  .3.{. X[.[. X X X",
" X X X X{.{. X(.v r O 4.#X{. X X X X X X X X X X{. X X X X X X X X X X X|.#Xw.$ ^ Y Y !.oX[. X X X X",
" X X X X{.|. XI.b s 4 (. X X{.{. X X X X X X X X X X X X X X X X X X{.{.{.oX/.D E W T T.oX}. X X X X",
" X X X X{.|.@XV.k 5 l  X{. X X X X X X X X X X X X X X X X X X X X X X{.{.{.oX*.L 3 h.[. X[. X X X X",
" X X X X{.|.|.@.K S h.@X|.{. X X X X X X X X X X X X X X X X X X X X X X{.|.@Xf.0 c n.+X[. X X X X X",
" X X X X|.|.].o.E E Y.oX{.{. X X X X X X X X X X X X X X X X X X X X X X{.|.OXF.= = , Y.oX[.[. X|. X",
" X X X X X]. Xh.t q I.oX|.{. X X X X X X X X X X X X X X X X X X X X X X{.{.oXE.C C m 5.+X[.[. X X X",
" X X X X X].@XM.d 7 (. X{.{. X X X X X X X X X X X X X X X X[. X X X X X{.{. X_.S V m j.+X}. X X X X",
" X X X{.{. X!.$.2 < (. X{. X X X X X X X X X X X X X X X X X X X X X X X X{.oX(.w 0 l _. X X X X X X",
" X X X X].+XU.H Q W _.oX{. X X X X X X X X X X X X X X X X X X X X X X X X X X`.r z ;._. X X}. X X X",
" X X X{.{. X).>.< 2 _. X{. X X X X X X X X X X X X X X X X X X X X X X X X{.oX_.( T Y U.OX[. X X X X",
" X X X X{.].@X~.g 9 (. X X X X X X X X X X X X X X X X X X X X X X X X X X{. X`.! E W T.OX[. X X X X",
" X X X{.{. X`.>.3 > (. X X X X X X X X X X X X X X X X X X X X X X X X X X XoX_.q y y (. X{.{. X X X",
" X X X X[.oXR.M N A _. X X X X X X X[. X X X X X X X X X X X X X X X X X X{. X(.8 l b (. X|. X X X X",
" X X X X[. X_.} % F _. X X X X X X X X X X X X X X X X X X X X X X X X X X{. X`.* S M 7.+X{.|. X X X",
" X X X X X[..XK.h 5 (. X X X X X X X X X X X X X X X X X X X X X X X X X X{.oX_.S V # 7.#X]. X X X X",
" X X X X X[.oXL.j 5 (. X[. X X X X X X X X X X X X X X X X X X X X X X X X X X_.Z C m 8.+X{. X X X X",
" X X X X|. X[.=.U I _. X X X X X X X X X X X X X X X X X X X X X X X X X X X X(.1 1 e E. X X X X X X",
" X X X X{. X].| E R _. X[. X X X X X X X X X X X X X X X X X X X X X X X X X X].7 f q.]. X X X X X X",
" X X X[. X[.[.o.H R _. X X X X X X X X X X X X X X X[.[..X[. X X X X X X X X X(.6 u :._. X[. X X X X",
" X X X X|.[. Xc.e q /. X X X X X X X X X X X X X X X X X X X X X X X X X X X X(.K T T T.oX]. X X X X",
" X X X X|.|..XY.#.2 _. X{. X X X X X X X X X X X{. X X X X X X X X X X X X XoX`.R W Y W.oX|.{. X X X",
" X X X[.|. X`._ T ! ).oX X X X X X X X X X X X X X X X X X X X X X X X X X X X(.2 3 &.]. X{.{. X X X",
" X X X X[.oX`.! E ! _. X{. X X X X X X{. X X X X X X X X X X X X X X X X X X X_.7 s b.oX{.{. X X X X",
" X X X[. X X[.-.' ' _. X X X X X X X X X X X X X X X X X X X X X X X X X X X X].; = { Y.oX{.{.{. X X",
" X X X X X[..X~.a 9 (.oX{. X X X X X X X X X X X X X X X X{. X X X X X X X{. X(.Z N N j.+X|.{. X X X",
" X X X X X[.oXh.> 1 (. X{. X X X X X X X X X X X X X X X X X X X X X X X X{. X`.= Z A R.oX|. X X X X",
" X X X X|.[.oX$.M S _. X X X X X X X X X X X X X X X X X X X X X X X X X X{.XX_.6 - <. X|.{. X X X X",
" X X X X[.[.oX*.m Z (.oX[. X X X X X X X X X X{. X X X X X X X X X X X X X X X(.l v g. X|. X|. X X X",
" X X X X[.].oXv.&.>._. X X X X X X X X X X X X X X{. X X X X X X X X X X X X X].p.N.K.`. X{.{. X X X",
" X X X X{. X[.^.J.N.`.|.[. X X X X X X{. X X X X X X X X X X X X X X X X X X X`.p.m.K.]. X{. X X X X",
" X{. X X X X XI.N.g.`.oX X X X X X X X{. X X X X X X X X X X X X X X X X X X X`.y.N.K._. X|.{. X X X",
" X X X X{. X{.I.Z.g.(.[.].].[.].[.[.[.[.[.[.[.[.{. X X{.].].{.].}.}.{.}.}.].{.(.r.N.K.`. X X X X X X",
" X X X[.|. X X~.Z.m. X@XOX@X@XOX@XXXOX@XOXOXXXXX@X XOX@X@XXXXXOX@XXXXXXX@X@X@X}.t.C.K.]. X X X X X X",
" X X X X{.{. XI.g.p.k.k.k.l.z.z.x.k.x.x.x.B.D.D.D.A.B.A.S.D.H.D.S.V.x.S.x.S.D.c.,.d.l.Q. X|. X X X X",
" X X X X|.{.].N.p.s.z u t i p x p x n 4.e.r.i.i.s.s.i.i.s.g.g.g.g.s.g.g.m.d...^ .._ W -.oX X{. X X X",
" X X X X|. X(.K.K.K.I.~.P.P.P.P.I.P.P.P.P.L.K.P.L.L.K.P.v.c.c.j.@.2.2.3.3.1.....X.....9.OX}.|. X X X",
" X X X[.[.oX/.p.y.y.m.V.Z.K.K.D.K.K.K.Z.D.K.K.K.Z.K.K.k...O. .......` ` X.` ` ` ) ..~ 3. X[. X X X X"
};
